<svg width="36" height="36" viewBox="0 0 36 36" fill="none" xmlns="http://www.w3.org/2000/svg">
<path d="M17.2984 5.3387C17.6974 4.89356 18.3951 4.89548 18.7916 5.34282L24.3176 11.5782C25.2607 12.6423 26.8211 12.8983 28.0547 12.1912L31.1629 10.4096C31.865 10.0072 32.7294 10.5619 32.6561 11.3678L30.9362 30.2834C30.8894 30.7984 30.4575 31.1928 29.9403 31.1928H6.05967C5.54247 31.1928 5.11061 30.7984 5.06378 30.2834L3.34377 11.3671C3.2705 10.5614 4.13458 10.0067 4.83664 10.4088L7.96366 12.1997C9.19173 12.903 10.7443 12.6525 11.6888 11.5985L17.2984 5.3387Z" fill="#AB6239" stroke="url(#paint0_angular_12615_54404)" stroke-width="2"/>
<path d="M18.408 11C20.136 11 21.552 11.408 22.608 12.248C23.64 13.088 24.168 14.24 24.168 15.728C24.168 17.6 23.208 18.848 21.312 19.472C22.32 19.784 23.112 20.24 23.64 20.864C24.216 21.512 24.504 22.352 24.504 23.36C24.504 24.944 23.952 26.24 22.848 27.248C21.696 28.28 20.184 28.808 18.312 28.808C16.536 28.808 15.096 28.352 14.016 27.44C12.816 26.432 12.144 24.944 12 23.024H14.856C14.904 24.128 15.24 24.992 15.912 25.592C16.512 26.144 17.304 26.432 18.288 26.432C19.368 26.432 20.232 26.12 20.856 25.52C21.408 24.968 21.696 24.296 21.696 23.48C21.696 22.496 21.384 21.776 20.808 21.32C20.232 20.84 19.392 20.624 18.288 20.624H17.088V18.512H18.288C19.296 18.512 20.064 18.296 20.592 17.864C21.096 17.432 21.36 16.784 21.36 15.944C21.36 15.104 21.12 14.48 20.664 14.048C20.16 13.616 19.416 13.4 18.432 13.4C17.424 13.4 16.656 13.64 16.104 14.144C15.528 14.648 15.192 15.416 15.096 16.448H12.336C12.48 14.72 13.104 13.376 14.256 12.416C15.336 11.456 16.728 11 18.408 11Z" fill="#FDFDFD"/>
<defs>
<radialGradient id="paint0_angular_12615_54404" cx="0" cy="0" r="1" gradientUnits="userSpaceOnUse" gradientTransform="translate(18 17.5964) rotate(90) scale(14.5964 16)">
<stop offset="0.135554" stop-color="#E3AA68"/>
<stop offset="0.331477" stop-color="#FFCE6F"/>
<stop offset="0.508307" stop-color="#B46E3B"/>
<stop offset="0.642924" stop-color="#F3BA78"/>
<stop offset="0.805" stop-color="#EE8407"/>
<stop offset="0.991925" stop-color="#FFC590"/>
</radialGradient>
</defs>
</svg>
