<svg width="36" height="36" viewBox="0 0 36 36" fill="none" xmlns="http://www.w3.org/2000/svg">
<path d="M17.2984 5.3387C17.6974 4.89356 18.3951 4.89548 18.7916 5.34282L24.3176 11.5782C25.2607 12.6423 26.8211 12.8983 28.0547 12.1912L31.1629 10.4096C31.865 10.0072 32.7294 10.5619 32.6561 11.3678L30.9362 30.2834C30.8894 30.7984 30.4575 31.1928 29.9403 31.1928H6.05967C5.54247 31.1928 5.11061 30.7984 5.06378 30.2834L3.34377 11.3671C3.2705 10.5614 4.13458 10.0067 4.83664 10.4088L7.96366 12.1997C9.19173 12.903 10.7443 12.6525 11.6888 11.5985L17.2984 5.3387Z" fill="#AFBFBF" stroke="url(#paint0_angular_12615_54386)" stroke-width="2"/>
<path d="M18.24 11C19.896 11 21.264 11.48 22.344 12.44C23.4 13.4 23.928 14.624 23.928 16.16C23.928 17.648 23.352 18.992 22.248 20.216C21.576 20.936 20.376 21.848 18.696 22.976C16.944 24.128 15.888 25.136 15.504 26H23.952V28.472H12C12 26.72 12.552 25.208 13.704 23.912C14.328 23.192 15.648 22.136 17.64 20.768C18.744 20 19.512 19.352 19.992 18.848C20.736 18.008 21.12 17.096 21.12 16.136C21.12 15.2 20.856 14.504 20.376 14.048C19.872 13.592 19.128 13.376 18.144 13.376C17.088 13.376 16.296 13.736 15.768 14.456C15.24 15.128 14.952 16.16 14.904 17.504H12.096C12.12 15.584 12.672 14.048 13.776 12.872C14.904 11.624 16.392 11 18.24 11Z" fill="#FDFDFD"/>
<defs>
<radialGradient id="paint0_angular_12615_54386" cx="0" cy="0" r="1" gradientUnits="userSpaceOnUse" gradientTransform="translate(18 17.5964) rotate(90) scale(14.5964 16)">
<stop offset="0.135554" stop-color="#A1A1A1"/>
<stop offset="0.331477" stop-color="#646464"/>
<stop offset="0.508307" stop-color="#9D9D9E"/>
<stop offset="0.642924" stop-color="#696969"/>
<stop offset="0.852135" stop-color="#797C7F"/>
<stop offset="0.991925" stop-color="#505050"/>
</radialGradient>
</defs>
</svg>
