<svg width="30" height="30" viewBox="0 0 30 30" fill="none" xmlns="http://www.w3.org/2000/svg">
<g clip-path="url(#clip0_24310_307)">
<g clip-path="url(#clip1_24310_307)">
<path fill-rule="evenodd" clip-rule="evenodd" d="M17.0539 1.94508C17.8293 1.01504 19.3397 1.6506 19.217 2.85549L18.3508 11.3191H25.358C25.5911 11.3192 25.8194 11.3857 26.0161 11.5108C26.2128 11.636 26.3698 11.8146 26.4687 12.0257C26.5676 12.2369 26.6042 12.4718 26.5744 12.703C26.5446 12.9342 26.4495 13.1522 26.3003 13.3313L14.0306 28.0549C13.2552 28.985 11.7448 28.3494 11.8675 27.1445L12.7337 18.6809H5.72651C5.49337 18.6808 5.26508 18.6143 5.06837 18.4892C4.87166 18.364 4.71468 18.1854 4.6158 17.9743C4.51693 17.7631 4.48026 17.5282 4.51008 17.297C4.5399 17.0658 4.63499 16.8478 4.7842 16.6687L17.0539 1.94508Z" fill="#999BA0"/>
</g>
</g>
<defs>
<clipPath id="clip0_24310_307">
<rect width="30" height="30" fill="white"/>
</clipPath>
<clipPath id="clip1_24310_307">
<rect width="30" height="30" fill="white"/>
</clipPath>
</defs>
</svg>
