<svg width="32" height="32" viewBox="0 0 32 32" fill="none" xmlns="http://www.w3.org/2000/svg">
<path d="M4.81253 29.4717C4.60585 29.2651 4.4419 29.0197 4.33004 28.7497C4.21819 28.4797 4.16061 28.1903 4.16061 27.8981C4.16061 27.6058 4.21819 27.3164 4.33004 27.0464C4.4419 26.7764 4.60585 26.5311 4.81253 26.3245L6.22911 24.9082C6.64767 24.497 7.2117 24.2678 7.79844 24.2704C8.38519 24.273 8.94715 24.5073 9.36203 24.9222C9.7769 25.3371 10.0111 25.8991 10.0137 26.4859C10.0162 27.0726 9.78691 27.6366 9.37567 28.0551L7.95942 29.4714C7.75284 29.6781 7.50755 29.8421 7.23757 29.9539C6.96759 30.0658 6.67822 30.1234 6.38598 30.1234C6.09374 30.1234 5.80436 30.0658 5.53438 29.9539C5.2644 29.8421 5.01911 29.6781 4.81253 29.4714" fill="#C5312F"/>
<path d="M27.1766 29.4716C27.3833 29.265 27.5472 29.0197 27.6591 28.7497C27.7709 28.4797 27.8285 28.1903 27.8285 27.898C27.8285 27.6058 27.7709 27.3164 27.6591 27.0464C27.5472 26.7764 27.3833 26.531 27.1766 26.3244L25.7603 24.9082C25.5537 24.7015 25.3084 24.5376 25.0384 24.4258C24.7684 24.314 24.479 24.2565 24.1868 24.2565C23.8945 24.2565 23.6052 24.3141 23.3352 24.4259C23.0652 24.5378 22.8199 24.7017 22.6133 24.9083C22.4066 25.115 22.2427 25.3603 22.1309 25.6303C22.0191 25.9003 21.9616 26.1897 21.9616 26.4819C21.9616 26.7741 22.0192 27.0635 22.131 27.3335C22.2429 27.6034 22.4068 27.8488 22.6134 28.0554L24.0297 29.4713C24.2363 29.678 24.4816 29.842 24.7515 29.9539C25.0215 30.0657 25.3109 30.1233 25.6031 30.1233C25.8954 30.1233 26.1848 30.0657 26.4547 29.9539C26.7247 29.842 26.97 29.678 27.1766 29.4713" fill="#C5312F"/>
<path d="M5.41889 5.60336L6.51415 4.78125C6.67621 4.65955 6.86067 4.57096 7.05697 4.52055C7.25328 4.47014 7.45759 4.45888 7.65824 4.48744C7.8589 4.51599 8.05196 4.58378 8.22641 4.68695C8.40086 4.79012 8.55328 4.92664 8.67497 5.08872L10.6959 7.78133C10.8176 7.9434 10.9062 8.12785 10.9566 8.32416C11.007 8.52046 11.0183 8.72477 10.9897 8.92543C10.9612 9.12608 10.8934 9.31915 10.7902 9.4936C10.6871 9.66805 10.5505 9.82047 10.3885 9.94216L9.2932 10.7636C8.96599 11.0094 8.55458 11.1151 8.14942 11.0576C7.74427 11 7.37856 10.7839 7.1327 10.4568L5.11143 7.76385C4.98973 7.60181 4.90115 7.41738 4.85074 7.22111C4.80034 7.02483 4.78909 6.82054 4.81764 6.61992C4.84619 6.41929 4.91398 6.22625 5.01715 6.05183C5.12031 5.87741 5.25682 5.72501 5.41889 5.60336ZM26.1424 6.02727L25.0471 5.20517C24.885 5.08349 24.7005 4.99492 24.5042 4.94453C24.3079 4.89415 24.1036 4.88292 23.9029 4.9115C23.7023 4.94009 23.5092 5.00791 23.3348 5.11111C23.1603 5.21431 23.0079 5.35086 22.8863 5.51296L20.8653 8.20525C20.7436 8.36732 20.655 8.55177 20.6046 8.74808C20.5542 8.94438 20.543 9.14869 20.5715 9.34935C20.6001 9.55 20.6679 9.74306 20.771 9.91752C20.8742 10.092 21.0107 10.2444 21.1728 10.3661L22.268 11.1882C22.5955 11.4338 23.007 11.5393 23.4122 11.4816C23.8174 11.4239 24.1831 11.2076 24.4289 10.8804L26.4498 8.18777C26.6955 7.86053 26.8011 7.44912 26.7434 7.04401C26.6858 6.63891 26.4696 6.2733 26.1424 6.0276" fill="#755561"/>
<path d="M28.3678 17.3242C28.3678 24.1877 22.8038 29.7524 15.9396 29.7524C9.07612 29.7524 3.51175 24.1877 3.51175 17.3242C3.51175 10.46 9.07612 4.896 15.9396 4.896C22.8038 4.896 28.3678 10.46 28.3678 17.3242Z" fill="#E7423F"/>
<path d="M24.7278 17.3243C24.7278 22.1777 20.7931 26.112 15.94 26.112C11.0862 26.112 7.15183 22.1777 7.15183 17.3243C7.15183 12.4705 11.0862 8.53613 15.94 8.53613C20.7931 8.53613 24.7278 12.4705 24.7278 17.3243Z" fill="#F0E3CC"/>
<path d="M3.40124 8.89471C2.14004 7.21487 2.47951 4.83071 4.15934 3.56984L4.91283 3.00407C6.59233 1.74287 8.9765 2.08201 10.2374 3.76217C10.3015 3.8476 10.3482 3.94483 10.3748 4.04832C10.4014 4.1518 10.4074 4.25951 10.3923 4.36529C10.3773 4.47107 10.3416 4.57285 10.2872 4.66482C10.2328 4.75679 10.1608 4.83715 10.0754 4.9013L4.54037 9.05669C4.45496 9.1209 4.35773 9.16764 4.25424 9.19426C4.15075 9.22087 4.04303 9.22682 3.93724 9.21178C3.83144 9.19674 3.72965 9.16099 3.63768 9.10659C3.54571 9.05218 3.46537 8.98018 3.40124 8.89471Z" fill="#E7423F"/>
<path d="M28.4787 8.89471C29.7395 7.21487 29.4001 4.83071 27.7206 3.56984L26.9668 3.00407C25.2873 1.74287 22.9031 2.08201 21.6422 3.76217C21.578 3.84758 21.5313 3.94481 21.5047 4.0483C21.478 4.15179 21.4721 4.25951 21.4871 4.36531C21.5022 4.4711 21.5379 4.57289 21.5923 4.66486C21.6467 4.75683 21.7187 4.83718 21.8042 4.9013L27.3392 9.05669C27.4247 9.12091 27.5219 9.16766 27.6254 9.19428C27.7289 9.22089 27.8367 9.22685 27.9425 9.21181C28.0483 9.19677 28.1502 9.16102 28.2422 9.10661C28.3341 9.0522 28.4145 8.98019 28.4787 8.89471Z" fill="#E7423F"/>
<path d="M15.9753 10.8127C15.9265 10.8127 15.8782 10.8031 15.8332 10.7845C15.7881 10.7658 15.7472 10.7384 15.7127 10.7039C15.6782 10.6694 15.6509 10.6285 15.6323 10.5834C15.6137 10.5383 15.6041 10.49 15.6041 10.4413V10.1444C15.6041 10.046 15.6432 9.9517 15.7127 9.88216C15.7823 9.81263 15.8766 9.77356 15.9749 9.77356C16.0733 9.77356 16.1676 9.81263 16.2371 9.88216C16.3067 9.9517 16.3457 10.046 16.3457 10.1444V10.4413C16.3457 10.6458 16.1798 10.8124 15.9753 10.8124M15.9753 24.8743C15.8768 24.8743 15.7824 24.8352 15.7128 24.7656C15.6432 24.696 15.6041 24.6016 15.6041 24.5031V24.2065C15.6041 24.1579 15.6137 24.1096 15.6324 24.0646C15.651 24.0197 15.6783 23.9788 15.7127 23.9444C15.7472 23.9099 15.788 23.8826 15.833 23.864C15.878 23.8453 15.9262 23.8357 15.9749 23.8357C16.0236 23.8357 16.0718 23.8453 16.1168 23.864C16.1618 23.8826 16.2027 23.9099 16.2371 23.9444C16.2716 23.9788 16.2989 24.0197 16.3175 24.0646C16.3361 24.1096 16.3457 24.1579 16.3457 24.2065V24.5035C16.3457 24.708 16.1798 24.8743 15.9753 24.8743ZM22.4868 17.3242C22.4868 17.1194 22.6527 16.9531 22.8572 16.9531H23.1541C23.2498 16.9571 23.3402 16.998 23.4064 17.0671C23.4727 17.1362 23.5096 17.2282 23.5096 17.3239C23.5096 17.4196 23.4727 17.5117 23.4064 17.5808C23.3402 17.6498 23.2498 17.6907 23.1541 17.6947H22.8572C22.6527 17.6947 22.4868 17.5288 22.4868 17.3242ZM8.42557 17.3242C8.42557 17.1194 8.59118 16.9531 8.79604 16.9531H9.09295C9.18859 16.9571 9.27897 16.998 9.34521 17.0671C9.41146 17.1362 9.44844 17.2282 9.44844 17.3239C9.44844 17.4196 9.41146 17.5117 9.34521 17.5808C9.27897 17.6498 9.18859 17.6907 9.09295 17.6947H8.79604C8.59151 17.6947 8.42524 17.5288 8.42524 17.3242" fill="#6B312A"/>
<path d="M16.5437 16.9534H15.4065L15.9317 11.5068H16.0181L16.5437 16.9534ZM17.2404 17.8926V16.7555L20.2431 17.2807V17.3671L17.2404 17.8926Z" fill="#6F5F70"/>
<path d="M17.7198 15.9743L11.2261 22.4677C11.2024 22.4916 11.1742 22.5107 11.1431 22.5237C11.112 22.5367 11.0787 22.5434 11.045 22.5435C11.0113 22.5436 10.9779 22.5371 10.9468 22.5242C10.9157 22.5114 10.8874 22.4925 10.8635 22.4687C10.8397 22.4448 10.8208 22.4165 10.808 22.3854C10.7951 22.3543 10.7886 22.3209 10.7887 22.2872C10.7887 22.2535 10.7955 22.2202 10.8085 22.1891C10.8215 22.158 10.8405 22.1298 10.8645 22.1061L17.3582 15.6124C17.4062 15.5645 17.4712 15.5376 17.5391 15.5376C17.6069 15.5376 17.672 15.5646 17.7199 15.6126C17.7679 15.6606 17.7948 15.7257 17.7948 15.7935C17.7947 15.8613 17.7677 15.9264 17.7198 15.9743Z" fill="#E7423F"/>
<path d="M17.5538 17.3242C17.5538 17.7428 17.3875 18.1443 17.0915 18.4404C16.7954 18.7364 16.3939 18.9027 15.9753 18.9027C15.5566 18.9027 15.1551 18.7364 14.859 18.4404C14.563 18.1443 14.3967 17.7428 14.3967 17.3242C14.3967 16.9055 14.563 16.504 14.859 16.208C15.1551 15.9119 15.5566 15.7456 15.9753 15.7456C16.3939 15.7456 16.7954 15.9119 17.0915 16.208C17.3875 16.504 17.5538 16.9055 17.5538 17.3242Z" fill="#5C4F5D"/>
</svg>
