
<svg width="38" height="39" viewBox="0 0 38 39" fill="none" xmlns="http://www.w3.org/2000/svg">
<mask id="mask0_12102_55428" style="mask-type:alpha" maskUnits="userSpaceOnUse" x="-1" y="0" width="43" height="43">
<rect width="41.6438" height="41.6438" transform="matrix(-1 0 0 1 41.6436 0.5)" fill="#999999"/>
</mask>
<g mask="url(#mask0_12102_55428)">
<path d="M5.66748 33.8888C5.51888 33.8889 5.37188 33.8582 5.23577 33.7986C5.09966 33.7389 4.97742 33.6517 4.8768 33.5423L2.8962 31.4545C2.70225 31.2303 2.60005 30.9412 2.61004 30.6449C2.62734 30.3568 2.75392 30.0861 2.96398 29.8881L8.40305 24.7634L6.81408 23.0634C6.59242 22.8212 6.47456 22.5018 6.48582 22.1737C6.49708 21.8456 6.63656 21.5351 6.8743 21.3087L8.46517 19.8195C8.71507 19.6066 9.03657 19.4968 9.3645 19.5121C9.69242 19.5275 10.0022 19.667 10.2311 19.9023L11.1612 20.9228L25.2888 5.49796L35.7697 2.2334L35.9579 2.44049L32.2961 12.8404L16.122 26.0757L16.828 26.985C17.1105 27.29 17.2309 27.61 17.2196 27.932C17.2056 28.2651 17.0624 28.5798 16.8205 28.8093L15.2259 30.2966C15.0016 30.5108 14.7038 30.6307 14.3937 30.6317C14.2265 30.6304 14.0613 30.5954 13.908 30.5288C13.7547 30.4622 13.6164 30.3653 13.5014 30.2439L11.9575 28.4723L6.48461 33.597C6.26857 33.7852 5.9917 33.8889 5.70517 33.8888H5.66748ZM32.876 34.2333C32.5872 34.2369 32.3086 34.1266 32.1004 33.9264L26.6443 28.8281L25.0553 30.515C24.9449 30.6338 24.812 30.7296 24.6643 30.7968C24.5166 30.864 24.3571 30.9013 24.195 30.9066H24.1912C23.8675 30.9137 23.5536 30.7949 23.3157 30.5753L21.7192 29.0804C21.4813 28.8583 21.3411 28.5509 21.3295 28.2257C21.3202 28.0633 21.3444 27.9007 21.4008 27.7481C21.4572 27.5956 21.5444 27.4563 21.6571 27.3389L28.3783 20.1678C28.6124 19.9375 28.9253 19.8049 29.2536 19.7968C29.5819 19.7888 29.901 19.9059 30.1461 20.1245L31.7238 21.6043C31.8433 21.7135 31.9397 21.8456 32.0073 21.9927C32.0749 22.1399 32.1123 22.2991 32.1173 22.4609C32.1252 22.6234 32.1003 22.7859 32.044 22.9386C31.9877 23.0913 31.9012 23.231 31.7897 23.3495L30.1856 25.0496L35.636 30.1516C35.845 30.3493 35.9749 30.6298 35.9899 30.9273C35.9963 31.2416 35.8802 31.5461 35.6661 31.7763L33.7213 33.8662C33.6144 33.9803 33.4852 34.0715 33.3418 34.1339C33.1984 34.1964 33.0437 34.2289 32.8873 34.2295H32.876L32.876 34.2333ZM6.33773 13.2076L2.64204 2.72099L2.77761 2.50449L13.234 5.75027L16.6285 9.42903L9.94686 16.1784L6.33773 13.2076Z" fill="url(#paint0_linear_12102_55428)"/>
</g>
<defs>
<linearGradient id="paint0_linear_12102_55428" x1="19.2998" y1="34.2334" x2="19.2998" y2="2.2334" gradientUnits="userSpaceOnUse">
<stop stop-color="#055ABE"/>
<stop offset="1" stop-color="#26A4FF"/>
</linearGradient>
</defs>
</svg>
