<svg width="38" height="39" viewBox="0 0 38 39" fill="none" xmlns="http://www.w3.org/2000/svg">
<mask id="mask0_12102_54860" style="mask-type:alpha" maskUnits="userSpaceOnUse" x="-1" y="0" width="43" height="43">
<rect width="41.6438" height="41.6438" transform="matrix(-1 0 0 1 41.6436 0.5)" fill="#999999"/>
</mask>
<g mask="url(#mask0_12102_54860)">
<path d="M10.0044 35.7083C7.65769 36.1009 4.55184 33.9925 4.68687 31.5528C4.74134 30.5723 5.12149 29.7735 6.00434 29.2515C7.69854 28.2495 9.54707 28.1088 11.4376 28.3028C12.8072 28.4435 14.1644 28.717 15.5341 28.8611C16.4623 28.9587 17.3838 28.8112 18.2394 28.3959C19.1563 27.9499 19.6975 27.2168 19.8337 26.2035C19.9585 25.2787 19.7997 24.3867 19.3821 23.5606C18.9418 22.6891 18.1735 22.6199 17.5097 23.3428C17.0252 23.8704 16.5679 24.4333 16.0288 24.8997C14.8725 25.9005 13.521 26.3283 11.9789 26.1229C11.5488 26.0651 11.3831 25.8563 11.3877 25.4557C11.3911 25.2094 11.3967 24.9643 11.4058 24.7192C11.433 23.9147 11.2311 23.6832 10.414 23.5913C10.3028 23.5788 10.1916 23.5674 10.0668 23.5538C10.0963 23.3212 10.1235 23.1113 10.1564 22.8525C9.84665 22.8242 9.58906 22.8015 9.24182 22.7708C9.24182 22.4009 9.25884 22.0321 9.23841 21.6644C9.18281 20.6216 8.81515 20.3322 7.78932 20.3595C7.44549 20.3685 6.92576 20.2676 6.79413 20.0383C6.63867 19.7683 6.71016 19.2508 6.8713 18.9376C7.33655 18.0355 7.89712 17.1821 8.43954 16.2777C8.23642 16.1665 8.07982 16.0814 7.82223 15.9407C7.99585 15.8885 8.12634 15.8488 8.26706 15.8068C7.23215 14.6675 6.40831 13.5656 5.90675 12.2584C5.29738 10.6709 5.54816 9.19339 6.55129 7.70117C6.55129 8.3843 6.47867 8.96416 6.56491 9.51793C6.88378 11.5696 8.17854 12.9154 9.9692 13.754C11.2277 14.3429 12.5848 14.722 13.9023 15.1827C16.0379 15.9305 18.0737 16.861 19.7838 18.3861C22.2893 20.6216 23.0939 23.3643 22.16 26.5836C21.2113 29.8552 19.3832 32.4719 16.333 34.1298C15.121 34.788 13.8433 35.2294 12.4373 35.1398C11.4887 35.0796 10.6716 34.7415 10.1247 33.9188C10.0135 33.7508 9.93289 33.5488 9.88977 33.3514C9.74565 32.7034 10.0498 32.186 10.6444 32.0396C11.3377 31.8694 11.3241 32.4311 11.4546 32.9111C11.9051 32.523 11.8257 32.1168 11.6214 31.7253C11.1346 30.7925 9.73884 30.7051 8.93997 31.5437C8.27613 32.2404 8.14223 33.3264 8.71756 34.2161C9.06933 34.7596 9.56749 35.209 10.0055 35.7049L10.0044 35.7083Z" fill="url(#paint0_linear_12102_54860)"/>
<path d="M19.0807 33.4208C20.7942 32.025 22.3874 30.5271 23.6447 28.7058C25.6158 25.8496 26.5474 22.7392 25.7883 19.2691C25.2039 16.5956 23.7616 14.3976 21.7826 12.5627C20.8044 11.6549 19.7082 10.8696 18.6347 10.0707C17.4478 9.18562 16.3017 8.2676 15.4449 7.04092C15.2509 6.76403 15.0761 6.46672 14.9399 6.15807C14.2364 4.56486 14.7947 3.20541 16.4299 2.60285C18.1105 1.98327 19.7752 2.20455 21.4172 2.79803C21.5942 2.86158 21.7655 2.94328 21.9369 3.02045C21.9687 3.0352 21.9925 3.06924 22.0572 3.12938C21.6203 3.25648 21.2004 3.34499 20.8078 3.49932C19.58 3.98386 19.3973 4.76117 20.3301 5.68487C21.0801 6.42814 21.9165 7.08404 22.6745 7.81936C25.0575 10.1286 27.1069 12.6841 28.2371 15.8524C29.676 19.8864 29.1029 23.6686 26.6144 27.141C24.683 29.8361 22.0969 31.7776 19.2293 33.3743C19.1851 33.3992 19.1306 33.4072 19.0807 33.423V33.4208Z" fill="url(#paint1_linear_12102_54860)"/>
<path d="M22.4558 29.256C22.7055 28.0407 23.0221 26.8345 23.1912 25.6078C23.7506 21.5396 22.1506 18.4803 18.6305 16.4707C17.2461 15.6809 15.7392 15.0885 14.2515 14.5007C12.3246 13.7404 10.4455 12.9211 8.96461 11.4164C7.52346 9.95257 7.11608 8.24816 7.87524 6.67651C8.11694 6.17608 8.46078 5.69721 8.85341 5.30231C9.94732 4.20159 11.317 3.58995 12.8478 3.21094C12.7933 3.8169 12.6673 4.38882 12.7025 4.95053C12.8444 7.20871 14.1482 8.78603 15.9514 9.9242C17.8124 11.0987 19.5803 12.3685 21.1486 13.9084C22.752 15.4823 24.1534 17.2071 24.8876 19.3722C25.8408 22.1819 25.3007 24.8134 23.847 27.3099C23.4419 28.0044 22.9642 28.6569 22.5194 29.3287C22.4989 29.3037 22.4774 29.2799 22.457 29.2549L22.4558 29.256Z" fill="url(#paint2_linear_12102_54860)"/>
<path d="M14.1533 36.1375C15.304 35.7369 16.4705 35.3783 17.6007 34.9289C21.5247 33.3698 24.9313 31.09 27.3756 27.5745C31.6139 21.4786 30.9138 13.6169 25.6632 8.31758C24.8031 7.44949 23.8158 6.70735 22.8978 5.89486C22.5755 5.6089 22.2328 5.32407 21.99 4.9757C21.67 4.51612 21.8674 4.09626 22.4235 4.04519C22.7877 4.01115 23.2076 4.0225 23.5276 4.17229C27.404 5.97997 30.5189 8.59787 32.1802 12.649C33.829 16.6717 33.5918 20.7047 31.7966 24.5935C28.8099 31.0605 23.6025 34.6782 16.6759 35.94C15.8487 36.0909 15.0021 36.1375 14.1658 36.2328C14.1613 36.201 14.1567 36.1692 14.1533 36.1386V36.1375Z" fill="url(#paint3_linear_12102_54860)"/>
</g>
<defs>
<linearGradient id="paint0_linear_12102_54860" x1="13.6098" y1="35.7556" x2="13.6098" y2="7.70117" gradientUnits="userSpaceOnUse">
<stop stop-color="#D43705"/>
<stop offset="1" stop-color="#FFDC26"/>
</linearGradient>
<linearGradient id="paint1_linear_12102_54860" x1="21.8275" y1="33.423" x2="21.8275" y2="2.23242" gradientUnits="userSpaceOnUse">
<stop stop-color="#D43705"/>
<stop offset="1" stop-color="#FFDC26"/>
</linearGradient>
<linearGradient id="paint2_linear_12102_54860" x1="16.4324" y1="29.3287" x2="16.4324" y2="3.21094" gradientUnits="userSpaceOnUse">
<stop stop-color="#D43705"/>
<stop offset="1" stop-color="#FFDC26"/>
</linearGradient>
<linearGradient id="paint3_linear_12102_54860" x1="23.7218" y1="36.2328" x2="23.7218" y2="4.0293" gradientUnits="userSpaceOnUse">
<stop stop-color="#D43705"/>
<stop offset="1" stop-color="#FFDC26"/>
</linearGradient>
</defs>
</svg>
