<svg width="38" height="39" viewBox="0 0 38 39" fill="none" xmlns="http://www.w3.org/2000/svg">
<path d="M10.7149 5.5C11.2289 5.5 11.6363 5.90451 11.6363 6.3937V7.18392C13.0234 6.18674 14.7983 5.5 17.0487 5.5C18.6394 5.5 20.4822 5.84807 22.5871 6.67591C23.1884 6.9111 23.7316 7.00517 24.2263 7.00517C25.3515 7.00517 26.205 6.5254 26.7288 6.11147L26.7482 6.09266C26.9227 5.95155 27.1264 5.88569 27.3301 5.88569C27.5436 5.88569 27.7569 5.96096 27.9314 6.10206C27.9412 6.11147 27.9509 6.12088 27.9703 6.1397L28.0285 6.19614L29.852 8.07762V8.09644C29.852 8.09644 29.8811 8.10585 29.8811 8.11525C30.1915 8.46333 30.1915 8.98073 29.8617 9.3194C29.8617 9.3194 29.852 9.33821 29.8422 9.33821L29.8229 9.35703C28.7074 10.4671 26.9519 12.3392 25.3224 14.6816C23.1205 18.2846 21.8596 22.4898 21.8596 26.9677C21.8596 27.2876 21.879 27.9366 21.879 27.946C21.879 28.4446 21.4619 28.8397 20.9576 28.8397L15.1472 28.755C14.672 28.755 14.2742 28.3975 14.2257 27.946C14.2257 27.9366 14.2257 27.9178 14.2257 27.9084V27.8613C14.2064 27.532 14.1966 27.2029 14.1966 26.883C14.1966 20.5142 16.0205 15.0015 21.1806 11.8123C21.0933 11.8123 21.0061 11.8217 20.9091 11.8217C19.6094 11.8217 17.5143 11.0221 15.6228 11.0221C13.9933 11.0221 12.4995 11.6148 11.8013 13.8161C11.8013 13.8256 11.8013 13.8537 11.7819 13.8632C11.6558 14.2301 11.3065 14.4747 10.9089 14.4747H7.92145C7.40737 14.4747 7 14.0702 7 13.5809V6.40311C7 5.90451 7.41708 5.5094 7.92145 5.5094H10.6955" fill="url(#paint0_linear_12102_54923)"/>
<path d="M3.02647 20.7153C3.30688 20.6301 3.59965 20.7947 3.68496 21.0755L3.82276 21.529C4.40551 20.7268 5.25399 20.0385 6.48153 19.6655C7.34929 19.4018 8.41524 19.2961 9.70781 19.4224C10.0768 19.4577 10.3896 19.4216 10.6594 19.3396C11.2732 19.1531 11.6551 18.7363 11.8687 18.4119L11.876 18.3979C11.9466 18.288 12.0462 18.2164 12.1573 18.1827C12.2738 18.1473 12.4032 18.1551 12.5231 18.2072C12.53 18.211 12.537 18.2147 12.5508 18.2223L12.5924 18.2451L13.9152 19.0227L13.9185 19.0335C13.9185 19.0335 13.936 19.034 13.9377 19.0394C14.1677 19.1878 14.2579 19.4847 14.1371 19.7337C14.1371 19.7337 14.1351 19.7461 14.1298 19.7478L14.1225 19.7618C13.7076 20.5838 13.0764 21.9492 12.596 23.5636C12.0232 25.9965 12.0687 28.6189 12.8496 31.1889C12.9054 31.3725 13.0292 31.7418 13.0309 31.7472C13.1178 32.0333 12.9592 32.3292 12.6841 32.4128L8.64696 33.6395C8.38772 33.7183 8.1084 33.579 8.00322 33.328C8.00158 33.3226 7.99829 33.3117 7.99666 33.3064L7.98844 33.2793C7.92046 33.0936 7.85774 32.9063 7.80195 32.7227C6.6913 29.0675 7.57762 25.289 9.83633 22.6034C9.78868 22.6179 9.74274 22.6377 9.68984 22.6538C8.98084 22.8692 7.69851 22.7576 6.66675 23.0711C5.77786 23.3412 5.06635 23.9289 5.06933 25.3081C5.07098 25.3135 5.07589 25.3297 5.06698 25.3383C5.06218 25.5698 4.9143 25.768 4.69738 25.8339L3.06774 26.3291C2.78731 26.4143 2.49454 26.2497 2.40923 25.9689L1.15749 21.8494C1.07054 21.5632 1.22916 21.2673 1.50429 21.1837L3.01753 20.7239" fill="url(#paint1_linear_12102_54923)"/>
<path d="M26.9938 18.2144C27.2697 18.3133 27.4065 18.62 27.3075 18.8963L27.1477 19.3425C28.0939 19.0461 29.1855 18.9997 30.3932 19.4324C31.247 19.7384 32.1657 20.2893 33.1279 21.1615C33.403 21.41 33.6755 21.5676 33.941 21.6627C34.5449 21.8791 35.1001 21.7723 35.465 21.6393L35.4792 21.6324C35.6014 21.5863 35.7241 21.5883 35.8334 21.6275C35.948 21.6685 36.0472 21.752 36.1124 21.8653C36.1157 21.8725 36.119 21.8796 36.1256 21.894L36.1454 21.9371L36.7434 23.3502L36.7396 23.3608C36.7396 23.3608 36.7533 23.3717 36.7514 23.377C36.8476 23.6333 36.7429 23.9254 36.4974 24.0532C36.4974 24.0532 36.4884 24.062 36.4831 24.0601L36.4689 24.067C35.6457 24.4794 34.3246 25.1989 32.9761 26.2082C31.0654 27.8193 29.5378 29.9515 28.6318 32.48C28.567 32.6607 28.4462 33.0309 28.4443 33.0362C28.3434 33.3178 28.0396 33.4607 27.7689 33.3637L23.7968 31.9405C23.5418 31.8491 23.4006 31.5707 23.4659 31.3064C23.4678 31.3011 23.4717 31.2905 23.4735 31.2852L23.4831 31.2586C23.5393 31.0689 23.6007 30.8812 23.6654 30.7005C24.954 27.1042 27.919 24.6 31.3338 23.7915C31.2869 23.7747 31.2382 23.7632 31.1861 23.7446C30.4885 23.4946 29.5259 22.6402 28.5107 22.2765C27.6361 21.9631 26.7145 22.0105 25.8943 23.1193C25.8924 23.1246 25.8867 23.1405 25.8744 23.1422C25.7325 23.3251 25.4955 23.396 25.2821 23.3195L23.6787 22.745C23.4028 22.6462 23.266 22.3394 23.365 22.0632L24.8173 18.01C24.9182 17.7284 25.222 17.5855 25.4927 17.6825L26.9815 18.216" fill="url(#paint2_linear_12102_54923)"/>
<defs>
<linearGradient id="paint0_linear_12102_54923" x1="18.5558" y1="28.8397" x2="18.5558" y2="5.5" gradientUnits="userSpaceOnUse">
<stop stop-color="#05D458"/>
<stop offset="1" stop-color="#9FFF26"/>
</linearGradient>
<linearGradient id="paint1_linear_12102_54923" x1="11.3739" y1="32.8109" x2="7.30366" y2="19.4157" gradientUnits="userSpaceOnUse">
<stop stop-color="#05D458"/>
<stop offset="1" stop-color="#9FFF26"/>
</linearGradient>
<linearGradient id="paint2_linear_12102_54923" x1="26.4798" y1="32.9018" x2="31.2021" y2="19.7223" gradientUnits="userSpaceOnUse">
<stop stop-color="#05D458"/>
<stop offset="1" stop-color="#9FFF26"/>
</linearGradient>
</defs>
</svg>
