<svg viewBox="0 0 32 33" fill="none" xmlns="http://www.w3.org/2000/svg">
<path d="M16.572 5.3271L16.5711 5.32767C16.4862 5.38093 16.4005 5.43458 16.3145 5.48876C15.9549 5.23408 15.5804 4.96442 15.2358 4.66479C15.2046 4.64396 15.1878 4.60139 15.1704 4.55724C15.1628 4.53791 15.1551 4.51825 15.146 4.5H16.6291C16.8988 4.57491 17.1834 4.64981 17.513 4.72472C17.195 4.93671 16.8861 5.13031 16.572 5.3271Z" fill="#FF284B"/>
<path d="M26.9812 13.7335C26.9363 13.4039 26.8913 13.1043 26.8314 12.7448C26.6285 13.1675 26.5401 13.3517 26.5931 13.475C26.6341 13.5702 26.7593 13.6291 26.9812 13.7335Z" fill="#FF284B"/>
<path d="M10.7041 18.1714C10.4082 17.2158 10.1123 16.26 9.81271 15.3082C9.76777 15.1733 9.63294 15.0384 9.51309 14.9934C9.06016 14.8217 8.60724 14.6563 8.15575 14.4915C7.62174 14.2965 7.08938 14.1021 6.56179 13.8991C6.33707 13.8091 6.17228 13.8391 5.9925 13.989C5.66295 14.2213 5.32965 14.4499 4.99635 14.6785C4.66302 14.9071 4.32959 15.1358 4 15.3681V17.5718C4.04494 17.9465 4.08989 18.3063 4.16479 18.6811C4.53932 20.5999 5.31835 22.3388 6.41198 23.9428C6.54681 24.1377 6.69662 24.1976 6.90636 24.1826C7.70036 24.1377 8.47939 24.0927 9.27339 24.0327C9.37826 24.0177 9.51309 23.9428 9.588 23.8528C9.91009 23.4706 10.2284 23.0846 10.5468 22.6986C10.8651 22.3126 11.1835 21.9265 11.5056 21.5443C11.6105 21.3944 11.6704 21.2595 11.5955 21.0346C11.2959 20.0828 11 19.127 10.7041 18.1714Z" fill="#FF284B"/>
<path d="M25.4981 14.3488C25.633 14.3038 25.8427 14.3788 25.9626 14.4687C26.3306 14.7388 26.6942 15.0178 27.0631 15.3009C27.3699 15.5363 27.6803 15.7745 28 16.0128V17.152C27.969 17.3631 27.9431 17.5768 27.917 17.792C27.8802 18.0962 27.8429 18.4038 27.7903 18.7111C27.5206 20.345 26.9214 21.8441 25.9626 23.1933C25.6929 23.583 25.3933 23.9578 25.0787 24.3325C25.0038 24.4075 24.8539 24.4825 24.7491 24.4825C23.9701 24.4974 23.206 24.4974 22.442 24.4825C22.3371 24.4825 22.1723 24.3925 22.1124 24.3026C21.4981 23.4481 20.8989 22.5786 20.3146 21.6942C20.2247 21.5743 20.2098 21.3494 20.2547 21.2145C20.7878 19.6973 21.3302 18.1895 21.8746 16.6762C22.0187 16.2756 22.1629 15.8747 22.3071 15.4731C22.3521 15.3532 22.4869 15.2033 22.6068 15.1733C23.5655 14.8885 24.5245 14.6036 25.4981 14.3488Z" fill="#FF284B"/>
<path d="M19.3109 22.4588C19.236 22.3538 19.0562 22.2639 18.9064 22.2639C18.6814 22.2459 18.4563 22.2441 18.228 22.2423C18.0764 22.2411 17.9232 22.2399 17.7679 22.2339C16.075 22.189 14.3671 22.144 12.6742 22.114C12.5544 22.114 12.3896 22.2039 12.2997 22.3089C11.6555 23.1184 11.0113 23.9279 10.3971 24.7523C10.3222 24.8573 10.2773 25.0671 10.3072 25.1871C10.5469 25.8916 10.8166 26.5962 11.1012 27.2858C11.1462 27.3907 11.2361 27.5406 11.3259 27.5706C11.4595 27.6107 11.5935 27.6511 11.7277 27.6917C12.4964 27.9237 13.2745 28.1587 14.0525 28.3501C14.3249 28.4235 14.6119 28.4455 14.8982 28.4676C15.0213 28.477 15.1444 28.4865 15.266 28.5H16.1948L16.2333 28.4936C16.3983 28.4659 16.5523 28.44 16.7192 28.44C17.8278 28.425 18.9064 28.1852 19.9252 27.7655C20.015 27.7205 20.1349 27.6455 20.1649 27.5556C20.4645 26.7611 20.7491 25.9516 21.0188 25.1421C21.0488 25.0522 21.0338 24.9023 20.9888 24.8273C20.8707 24.658 20.7533 24.4888 20.636 24.3197C20.2028 23.6951 19.7707 23.0721 19.3109 22.4588Z" fill="#FF284B"/>
<path d="M11.0412 14.7386C11.2114 15.3299 11.3801 15.9185 11.5484 16.5053C11.9431 17.8819 12.335 19.2486 12.7341 20.6149C12.7641 20.7048 12.9289 20.8098 13.0337 20.8098C13.4621 20.8297 13.8971 20.8364 14.33 20.843C14.548 20.8464 14.7655 20.8497 14.9813 20.8547L15.0671 20.8568C16.2976 20.8861 17.5417 20.9157 18.7715 20.9597C18.9513 20.9597 19.0412 20.8997 19.1011 20.7348C19.7603 18.846 20.4195 16.9572 21.0936 15.0534C19.8712 14.1277 18.6569 13.1859 17.4447 12.2457L17.4429 12.2443C17.0067 11.9059 16.5708 11.5678 16.1349 11.2308L15.4218 11.7254C13.9584 12.7409 12.5109 13.7453 11.0412 14.7386Z" fill="#FF284B"/>
<path d="M7.20602 12.8048C6.96632 12.7149 6.83148 12.565 6.75658 12.3251C6.53186 11.6355 6.29216 10.931 6.03748 10.2414C5.94759 10.0316 5.99254 9.89664 6.12737 9.71675C7.16107 8.26266 8.46444 7.10838 9.99252 6.20894C11.0262 5.59433 12.1199 5.18958 13.2734 4.87478C13.3633 4.85979 13.4831 4.88977 13.5581 4.94973C14.2622 5.45941 14.9813 5.98408 15.6854 6.50876C15.7381 6.55093 15.7759 6.61534 15.8146 6.68114C15.8309 6.7089 15.8474 6.73691 15.8652 6.7636C15.8502 6.77109 15.8389 6.77484 15.8277 6.77859C15.8165 6.78233 15.8052 6.78608 15.7903 6.79358C15.7802 7.13719 15.7684 7.4791 15.7566 7.82045C15.7334 8.49176 15.7103 9.16092 15.7004 9.83667C15.7004 10.1365 15.5955 10.3314 15.3408 10.4963C14.3094 11.1812 13.2838 11.872 12.2604 12.5614C11.6487 12.9733 11.0378 13.3848 10.427 13.7942C10.3071 13.8691 10.1124 13.8991 9.99252 13.8542C9.43522 13.6563 8.87792 13.4422 8.32062 13.2282C7.94908 13.0854 7.57755 12.9427 7.20602 12.8048Z" fill="#FF284B"/>
<path d="M16.7789 6.85327C16.764 7.37794 16.764 7.88762 16.764 8.41229C16.764 8.54281 16.763 8.67425 16.7621 8.80615C16.7593 9.20434 16.7564 9.60732 16.7789 10.0013C16.7789 10.1362 16.8688 10.3311 16.9737 10.406C18.5617 11.6053 20.1497 12.8045 21.7377 13.9888C21.8126 14.0488 21.9624 14.0787 22.0523 14.0488C23.1009 13.719 24.1498 13.3892 25.1834 13.0444C25.3032 13.0144 25.4231 12.8945 25.468 12.7896C25.7527 12.085 26.0074 11.3654 26.2621 10.6459C26.307 10.541 26.292 10.3611 26.2321 10.2711C26.1602 10.1662 26.0889 10.0607 26.0176 9.95512C25.7323 9.53299 25.4471 9.11085 25.1235 8.7271C23.5804 6.88325 21.6179 5.65402 19.3407 4.91948C19.2359 4.8895 19.0711 4.93447 18.9812 4.99443C18.307 5.47413 17.6329 5.96882 16.9737 6.4785C16.8538 6.56845 16.7789 6.73334 16.7789 6.85327Z" fill="#FF284B"/>
<path d="M21.9925 25.7565C22.0225 25.6816 22.1273 25.5917 22.2022 25.5917C22.427 25.5842 22.6517 25.5842 22.8858 25.5842C23.1198 25.5842 23.3633 25.5842 23.6255 25.5767C22.9962 26.2209 22.367 26.6853 21.558 27.0149C21.6268 26.8211 21.6878 26.6377 21.7463 26.4615C21.8281 26.2156 21.9052 25.9834 21.9925 25.7565Z" fill="#FF284B"/>
<path d="M5.46825 12.9248C5.52818 12.8798 5.57312 12.7599 5.55814 12.6999C5.43829 12.2952 5.30346 11.8904 5.16863 11.4857H5.06376C4.80908 12.1603 4.5544 12.8498 4.3147 13.5244C4.32968 13.5319 4.34466 13.5431 4.35964 13.5544C4.37462 13.5656 4.3896 13.5769 4.40458 13.5844L4.56165 13.4888C4.86096 13.307 5.17544 13.1159 5.46825 12.9248Z" fill="#FF284B"/>
<path d="M8.18201 25.1388C8.44667 25.1354 8.71358 25.1321 8.97381 25.1421C9.04871 25.1421 9.15358 25.202 9.16856 25.2619C9.23598 25.4642 9.29965 25.6702 9.36332 25.8762C9.42699 26.0821 9.49066 26.2881 9.55808 26.4904C9.54309 26.5054 9.52811 26.5166 9.51313 26.5278C9.49815 26.5391 9.48317 26.5503 9.46819 26.5653C9.18355 26.3481 8.89516 26.1308 8.60677 25.9136C8.31838 25.6964 8.02999 25.4791 7.74535 25.2619C7.75284 25.2394 7.76033 25.2207 7.76782 25.202C7.77531 25.1833 7.7828 25.1645 7.79029 25.1421C7.91958 25.1421 8.05052 25.1404 8.18201 25.1388Z" fill="#FF284B"/>
</svg>
