<svg width="32" height="32" viewBox="0 0 32 32" fill="none" xmlns="http://www.w3.org/2000/svg">
<path d="M12.0357 12.0519H8.00772V7.35265C8.00772 6.32967 8.21019 5.37596 8.61512 4.49151C9.02004 3.60706 9.57948 2.82917 10.2934 2.15784C11.0074 1.48651 11.8492 0.959041 12.8189 0.575425C13.7886 0.191808 14.8489 -2.08333e-08 15.9997 0C17.0227 0 18.0084 0.191808 18.9568 0.575425C19.9052 0.959041 20.747 1.48651 21.4822 2.15784C22.2175 2.82917 22.8036 3.60706 23.2405 4.49151C23.6774 5.37596 23.8958 6.32967 23.8958 7.35265V12.0519H20.0277V8.24775C20.0277 6.9051 19.6547 5.86613 18.9088 5.13087C18.1629 4.3956 17.1506 4.02797 15.8719 4.02797C14.721 4.02797 13.7939 4.3956 13.0906 5.13087C12.3873 5.86613 12.0357 6.9051 12.0357 8.24775V12.0519ZM25.8139 13.97C26.3893 13.97 26.8848 14.1778 27.3004 14.5934C27.716 15.009 27.9238 15.5045 27.9238 16.0799V25.99C27.9238 26.5654 27.8226 27.1036 27.6201 27.6044C27.4176 28.1052 27.1406 28.5421 26.7889 28.9151C26.4373 29.288 26.0217 29.5811 25.5422 29.7942C25.0627 30.0073 24.5352 30.1139 23.9598 30.1139H7.81591C7.24049 30.1139 6.71835 30.0073 6.24948 29.7942C5.78062 29.5811 5.38102 29.2987 5.05068 28.9471C4.72034 28.5954 4.4646 28.1851 4.28345 27.7163C4.10229 27.2474 4.01172 26.7466 4.01172 26.2138V16.0799C4.01172 15.5045 4.21418 15.009 4.61911 14.5934C5.02404 14.1778 5.51422 13.97 6.08964 13.97H8.00772H12.0357H20.0277H23.8958H25.8139Z" fill="#7D8086"/>
</svg>
