<svg viewBox="0 0 38 39" fill="none" xmlns="http://www.w3.org/2000/svg">
<path d="M32.1488 19.4389C30.4141 15.4538 28.6205 13.2922 27.9783 11.5652C27.2957 9.72975 27.9688 8.16654 27.9688 8.16654C26.5448 7.88174 25.4863 9.24099 24.6872 10.6198C24.1928 11.473 23.5469 16.6446 22.5358 17.9143C22.3636 18.1306 22.0216 18.0777 21.9256 17.8185C18.4717 8.49176 20.3233 3.5 20.3233 3.5C14.8903 5.5505 13.5384 10.8548 13.2801 11.6759C12.7811 13.2623 12.9921 19.2943 12.9921 19.2943C12.9707 19.7068 12.4101 19.813 12.2392 19.437C12.2392 19.437 10.8075 15.9078 10.6409 13.971C10.5045 12.3855 10.4929 12.7158 10.4929 12.7158C8.03198 14.9915 5.2998 20.1446 5.2998 23.6063C5.2998 30.5584 11.4328 36.1942 18.9983 36.1942C26.5638 36.1942 32.6969 30.5584 32.6969 23.6063C32.6969 22.1233 32.6969 20.698 32.1488 19.4389Z" fill="url(#paint0_linear_12936_82797)"/>
<defs>
<linearGradient id="paint0_linear_12936_82797" x1="18.9983" y1="36.1942" x2="18.9983" y2="3.5" gradientUnits="userSpaceOnUse">
<stop stop-color="#D40505"/>
<stop offset="1" stop-color="#FF8E26"/>
</linearGradient>
</defs>
</svg>
