<svg width="38" height="39" viewBox="0 0 38 39" fill="none" xmlns="http://www.w3.org/2000/svg">
<mask id="mask0_12102_55488" style="mask-type:alpha" maskUnits="userSpaceOnUse" x="-1" y="0" width="43" height="43">
<rect width="41.6438" height="41.6438" transform="matrix(-1 0 0 1 41.6436 0.5)" fill="#999999"/>
</mask>
<g mask="url(#mask0_12102_55488)">
<path d="M17.3903 31.6543C18.1433 29.3431 18.2137 26.864 17.5929 24.514C18.4973 23.597 19.1308 22.4482 19.4237 21.1943C19.6338 19.7498 19.6338 18.2797 19.4237 16.8351C19.4237 16.8351 19.4598 16.1901 22.4732 19.9433C22.5953 19.1459 22.5483 18.3317 22.3351 17.5537C22.1244 16.7825 21.7509 16.0653 21.2396 15.4506C20.7372 14.8462 20.1067 14.361 19.3937 14.03C18.6895 13.7042 17.92 13.5436 17.1442 13.5605C15.6389 13.6205 15.0657 14.7501 14.3048 15.2046C14.0744 15.3788 13.7976 15.481 13.5092 15.4984C13.2208 15.5157 12.9337 15.4474 12.684 15.3021C14.4939 9.92135 22.3426 10.4869 25.3065 11.7994C32.3824 15.6021 30.9492 24.901 30.7466 26.0305C30.6887 25.3368 30.4665 24.6668 30.0983 24.0759C29.878 26.4234 28.8175 28.6126 27.1119 30.2412C25.0649 32.3308 21.8039 33.2743 21.1901 37.5C20.1336 37.083 17.866 33.4843 17.3888 31.6543H17.3903ZM13.559 31.0872C10.4 30.3282 11.3079 27.1076 11.7071 26.008C12.1063 24.91 14.0677 23.1654 13.559 21.3068C14.1442 21.4823 14.6875 21.7778 15.1602 22.1754C15.6344 22.5729 16.0276 23.0634 16.3158 23.6199C17.7564 26.197 17.5463 31.1397 14.1848 31.1397C13.9747 31.1397 13.7646 31.1217 13.559 31.0872ZM30.7466 26.0305C30.7466 26.0695 30.7395 26.1081 30.7256 26.1445L30.7481 26.0305H30.7466ZM7.18544 22.2054C7.02943 21.744 6.97088 21.2553 7.0135 20.7701C7.05612 20.2849 7.19899 19.8139 7.43305 19.3867C7.84283 18.5244 8.44444 17.767 9.19189 17.1727C10.132 16.4296 11.2336 15.9178 12.4079 15.6786C12.3444 15.8378 12.3155 16.0087 12.3233 16.18C12.3311 16.3512 12.3753 16.5188 12.4529 16.6716C12.618 16.9386 12.8431 17.1592 13.1087 17.3152C13.3744 17.4697 13.6715 17.5552 13.9762 17.5612C14.725 17.6707 15.4168 18.0352 15.9451 18.5992C16.2617 18.9142 16.5003 19.3057 16.6414 19.7393C16.6767 19.8915 16.6797 20.0494 16.6503 20.2029C16.6208 20.3564 16.5595 20.5019 16.4703 20.6303C16.2902 20.8103 16.0756 20.9468 15.84 21.0308C15.6043 21.1133 15.3525 21.14 15.1047 21.1088C15.0191 21.1088 14.9291 21.1088 14.8376 21.1013C14.4924 21.0803 14.0947 21.0308 13.6775 20.9813C12.9258 20.8719 12.1679 20.8103 11.4084 20.7968C9.87686 20.7402 8.3768 21.2413 7.18694 22.2069L7.18544 22.2054ZM10.511 17.4022H11.497C11.5765 17.4022 11.6471 17.4022 11.6681 17.3557C11.6876 17.3092 11.644 17.2252 11.53 17.0856C11.4973 17.0422 11.4552 17.0067 11.4069 16.9818C11.3586 16.9568 11.3052 16.9431 11.2509 16.9416C10.9604 17.0098 10.7004 17.1717 10.511 17.4022ZM14.0467 16.0266C14.5089 15.8541 14.9546 15.6366 15.3778 15.3771C15.4231 15.5388 15.5175 15.6824 15.6479 15.7881C15.777 15.8931 15.9346 15.9501 16.0982 15.9546C16.1769 15.9577 16.2554 15.9442 16.3286 15.9152C16.4018 15.8861 16.4681 15.842 16.5232 15.7858C16.5783 15.7295 16.6211 15.6624 16.6487 15.5886C16.6763 15.5149 16.6881 15.4362 16.6834 15.3576C16.6768 15.1533 16.6111 14.9553 16.4943 14.7876C16.5817 14.7696 16.6707 14.7606 16.76 14.7606C17.1487 14.7846 17.5298 14.8761 17.887 15.0321C17.9575 15.0621 18.0296 15.0861 18.1016 15.1071L17.8915 15.1761H17.8765C17.6064 15.2646 17.5644 15.2766 17.5644 15.3501C17.5644 15.3891 17.5584 15.4251 17.5569 15.4641C17.4968 16.2471 17.4518 16.8666 16.3833 17.1892C16.2276 17.2366 16.0658 17.2608 15.9031 17.2612C15.5165 17.2374 15.1431 17.1117 14.8211 16.8966C14.493 16.6773 14.2265 16.3778 14.0467 16.0266ZM11.9487 9.92285C14.3093 7.31274 15.2052 6.17569 15.4919 5.19315C15.6226 4.41411 15.5396 3.61421 15.2518 2.87856C16.0394 2.73126 16.8537 2.88548 17.5328 3.31058C18.2172 3.73509 18.7334 4.40562 18.9825 5.19465C20.2101 4.65313 20.1621 1.89452 20.2101 1.5C22.6653 1.99352 23.5147 3.37208 23.9379 5.88468C25.1655 4.55563 26.393 3.71709 26.393 1.5C31.1608 3.32258 31.1608 10.9114 24.8833 10.4689C17.2357 10.1719 13.4614 10.4689 12.1858 15.3456C11.0062 14.6075 9.58958 12.533 11.9487 9.92435V9.92285Z" fill="url(#paint0_linear_12102_55488)"/>
</g>
<defs>
<linearGradient id="paint0_linear_12102_55488" x1="19" y1="37.5" x2="19" y2="1.5" gradientUnits="userSpaceOnUse">
<stop stop-color="#A4BE05"/>
<stop offset="1" stop-color="#FF9B26"/>
</linearGradient>
</defs>
</svg>
