<svg viewBox="0 0 140 89" fill="none" xmlns="http://www.w3.org/2000/svg">
<path d="M0.6375 83.0465H16.5938C17.6563 83.0465 18.3938 82.884 18.8 82.5652C19.2063 82.2465 19.4125 81.784 19.4125 81.1902C19.4125 80.5965 19.2063 80.109 18.8 79.7965C18.3938 79.4902 17.6563 79.334 16.5938 79.334H8.24375C6.85625 79.334 5.65 79.134 4.60625 78.7402C3.56875 78.3465 2.70625 77.8027 2.025 77.109C1.34375 76.4152 0.8375 75.609 0.5 74.6777C0.16875 73.7527 0 72.7527 0 71.6902C0 69.5402 0.687501 67.8027 2.05625 66.4777C3.43125 65.1527 5.5375 64.4902 8.38125 64.4902H23.9625V70.0527H8.38125C7.31875 70.0527 6.58125 70.209 6.175 70.5152C5.76875 70.8277 5.5625 71.2902 5.5625 71.909C5.5625 72.5277 5.76875 72.959 6.175 73.284C6.58125 73.609 7.31875 73.7652 8.38125 73.7652H16.7312C18.1187 73.7652 19.3313 73.9652 20.3688 74.359C21.4063 74.7527 22.2688 75.2965 22.95 75.9902C23.6313 76.684 24.1375 77.4902 24.4688 78.4215C24.8 79.3465 24.9687 80.3465 24.9687 81.409C24.9687 82.4715 24.8 83.4527 24.4688 84.3402C24.1375 85.234 23.6188 85.9902 22.9313 86.6215C22.2375 87.2527 21.3687 87.7402 20.3125 88.0902C19.2625 88.434 18.0187 88.609 16.5812 88.609H0.625V83.0465H0.6375Z" fill="#343434"/>
<path d="M53.3068 69.2653C52.8943 68.2591 52.3381 67.4091 51.6568 66.7028C50.9631 65.9903 50.1443 65.4466 49.2193 65.0653C48.3006 64.6841 47.2943 64.4966 46.2381 64.4966H27.9443V70.0653H44.3756C45.6131 70.0653 46.5256 70.2903 47.1068 70.7528C47.6881 71.2091 47.9756 71.8216 47.9756 72.5903C47.9756 73.3591 47.6881 74.0091 47.1068 74.4653C46.5256 74.9216 45.6131 75.1466 44.3756 75.1466H27.9443V88.6216H33.8756V80.7153H46.2318C47.2881 80.7153 48.2943 80.5216 49.2131 80.1341C50.1381 79.7528 50.9568 79.2091 51.6506 78.4841C52.3318 77.7716 52.8881 76.9091 53.3006 75.9091C53.7006 74.9028 53.9068 73.8028 53.9068 72.5903C53.9068 71.3778 53.7006 70.2653 53.3006 69.2716L53.3068 69.2653Z" fill="#343434"/>
<path d="M56.1445 74.8841C56.1445 73.3278 56.3883 71.9091 56.8883 70.6341C57.382 69.3591 58.0883 68.2653 59.0008 67.3528C59.9133 66.4403 61.0133 65.7341 62.282 65.2403C63.557 64.7466 64.9695 64.4966 66.532 64.4966H74.3258C75.882 64.4966 77.3008 64.7466 78.5758 65.2403C79.8508 65.7341 80.9445 66.4403 81.857 67.3528C82.7695 68.2653 83.4758 69.3653 83.9695 70.6341C84.4633 71.9091 84.7133 73.3216 84.7133 74.8841V78.2216C84.7133 79.7778 84.4633 81.1966 83.9695 82.4716C83.4758 83.7466 82.7695 84.8403 81.857 85.7528C80.9445 86.6653 79.8445 87.3716 78.5758 87.8653C77.3008 88.3591 75.8883 88.6091 74.3258 88.6091H66.532C64.9758 88.6091 63.557 88.3653 62.282 87.8653C61.007 87.3716 59.9133 86.6653 59.0008 85.7528C58.0883 84.8403 57.382 83.7403 56.8883 82.4716C56.3945 81.1966 56.1445 79.7841 56.1445 78.2216V74.8841ZM62.082 78.2216C62.082 79.6841 62.4883 80.8466 63.307 81.7278C64.1258 82.6091 65.2008 83.0466 66.532 83.0466H74.3258C75.6633 83.0466 76.7383 82.6091 77.557 81.7278C78.3758 80.8466 78.782 79.6841 78.782 78.2216V74.8841C78.782 73.4278 78.3758 72.2591 77.557 71.3778C76.7383 70.5028 75.6633 70.0591 74.3258 70.0591H66.532C65.1945 70.0591 64.1195 70.4966 63.307 71.3778C62.4883 72.2591 62.082 73.4278 62.082 74.8841V78.2216Z" fill="#343434"/>
<path d="M111.856 77.9653C112.406 77.2716 112.85 76.4778 113.175 75.5653C113.494 74.6653 113.656 73.6716 113.656 72.5841C113.656 71.3778 113.45 70.2591 113.05 69.2653C112.637 68.2591 112.081 67.4091 111.4 66.7028C110.706 65.9903 109.888 65.4466 108.963 65.0653C108.038 64.6841 107.044 64.4966 105.981 64.4966H87.6875V70.0653H104.125C105.362 70.0653 106.275 70.2903 106.85 70.7528C107.431 71.2091 107.725 71.8216 107.725 72.5903C107.725 73.3591 107.437 74.0091 106.85 74.4653C106.269 74.9216 105.362 75.1466 104.125 75.1466H87.6875V88.6216H93.625V80.7153H100.263L105.831 88.6216H113.069L107.425 80.6028C108.312 80.4216 109.137 80.1153 109.887 79.6778C110.65 79.2278 111.306 78.6653 111.856 77.9716V77.9653Z" fill="#343434"/>
<path d="M140 70.0591H130.725V88.6091H124.788V70.0591H115.513V64.4966H140V70.0591Z" fill="#343434"/>
<path d="M36.2434 64.4902H22.7559V70.0527H36.2434V64.4902Z" fill="#343434"/>
<path d="M0.6375 83.0465H16.5938C17.6563 83.0465 18.3938 82.884 18.8 82.5652C19.2063 82.2465 19.4125 81.784 19.4125 81.1902C19.4125 80.5965 19.2063 80.109 18.8 79.7965C18.3938 79.4902 17.6563 79.334 16.5938 79.334H8.24375C6.85625 79.334 5.65 79.134 4.60625 78.7402C3.56875 78.3465 2.70625 77.8027 2.025 77.109C1.34375 76.4152 0.8375 75.609 0.5 74.6777C0.16875 73.7527 0 72.7527 0 71.6902C0 69.5402 0.687501 67.8027 2.05625 66.4777C3.43125 65.1527 5.5375 64.4902 8.38125 64.4902H23.9625V70.0527H8.38125C7.31875 70.0527 6.58125 70.209 6.175 70.5152C5.76875 70.8277 5.5625 71.2902 5.5625 71.909C5.5625 72.5277 5.76875 72.959 6.175 73.284C6.58125 73.609 7.31875 73.7652 8.38125 73.7652H16.7312C18.1187 73.7652 19.3313 73.9652 20.3688 74.359C21.4063 74.7527 22.2688 75.2965 22.95 75.9902C23.6313 76.684 24.1375 77.4902 24.4688 78.4215C24.8 79.3465 24.9687 80.3465 24.9687 81.409C24.9687 82.4715 24.8 83.4527 24.4688 84.3402C24.1375 85.234 23.6188 85.9902 22.9313 86.6215C22.2375 87.2527 21.3687 87.7402 20.3125 88.0902C19.2625 88.434 18.0187 88.609 16.5812 88.609H0.625V83.0465H0.6375Z" fill="#343434"/>
<path d="M53.3068 69.2653C52.8943 68.2591 52.3381 67.4091 51.6568 66.7028C50.9631 65.9903 50.1443 65.4466 49.2193 65.0653C48.3006 64.6841 47.2943 64.4966 46.2381 64.4966H27.9443V70.0653H44.3756C45.6131 70.0653 46.5256 70.2903 47.1068 70.7528C47.6881 71.2091 47.9756 71.8216 47.9756 72.5903C47.9756 73.3591 47.6881 74.0091 47.1068 74.4653C46.5256 74.9216 45.6131 75.1466 44.3756 75.1466H27.9443V88.6216H33.8756V80.7153H46.2318C47.2881 80.7153 48.2943 80.5216 49.2131 80.1341C50.1381 79.7528 50.9568 79.2091 51.6506 78.4841C52.3318 77.7716 52.8881 76.9091 53.3006 75.9091C53.7006 74.9028 53.9068 73.8028 53.9068 72.5903C53.9068 71.3778 53.7006 70.2653 53.3006 69.2716L53.3068 69.2653Z" fill="#343434"/>
<path d="M56.1445 74.8841C56.1445 73.3278 56.3883 71.9091 56.8883 70.6341C57.382 69.3591 58.0883 68.2653 59.0008 67.3528C59.9133 66.4403 61.0133 65.7341 62.282 65.2403C63.557 64.7466 64.9695 64.4966 66.532 64.4966H74.3258C75.882 64.4966 77.3008 64.7466 78.5758 65.2403C79.8508 65.7341 80.9445 66.4403 81.857 67.3528C82.7695 68.2653 83.4758 69.3653 83.9695 70.6341C84.4633 71.9091 84.7133 73.3216 84.7133 74.8841V78.2216C84.7133 79.7778 84.4633 81.1966 83.9695 82.4716C83.4758 83.7466 82.7695 84.8403 81.857 85.7528C80.9445 86.6653 79.8445 87.3716 78.5758 87.8653C77.3008 88.3591 75.8883 88.6091 74.3258 88.6091H66.532C64.9758 88.6091 63.557 88.3653 62.282 87.8653C61.007 87.3716 59.9133 86.6653 59.0008 85.7528C58.0883 84.8403 57.382 83.7403 56.8883 82.4716C56.3945 81.1966 56.1445 79.7841 56.1445 78.2216V74.8841ZM62.082 78.2216C62.082 79.6841 62.4883 80.8466 63.307 81.7278C64.1258 82.6091 65.2008 83.0466 66.532 83.0466H74.3258C75.6633 83.0466 76.7383 82.6091 77.557 81.7278C78.3758 80.8466 78.782 79.6841 78.782 78.2216V74.8841C78.782 73.4278 78.3758 72.2591 77.557 71.3778C76.7383 70.5028 75.6633 70.0591 74.3258 70.0591H66.532C65.1945 70.0591 64.1195 70.4966 63.307 71.3778C62.4883 72.2591 62.082 73.4278 62.082 74.8841V78.2216Z" fill="#343434"/>
<path d="M111.856 77.9653C112.406 77.2716 112.85 76.4778 113.175 75.5653C113.494 74.6653 113.656 73.6716 113.656 72.5841C113.656 71.3778 113.45 70.2591 113.05 69.2653C112.637 68.2591 112.081 67.4091 111.4 66.7028C110.706 65.9903 109.888 65.4466 108.963 65.0653C108.038 64.6841 107.044 64.4966 105.981 64.4966H87.6875V70.0653H104.125C105.362 70.0653 106.275 70.2903 106.85 70.7528C107.431 71.2091 107.725 71.8216 107.725 72.5903C107.725 73.3591 107.437 74.0091 106.85 74.4653C106.269 74.9216 105.362 75.1466 104.125 75.1466H87.6875V88.6216H93.625V80.7153H100.263L105.831 88.6216H113.069L107.425 80.6028C108.312 80.4216 109.137 80.1153 109.887 79.6778C110.65 79.2278 111.306 78.6653 111.856 77.9716V77.9653Z" fill="#343434"/>
<path d="M140 70.0591H130.725V88.6091H124.788V70.0591H115.513V64.4966H140V70.0591Z" fill="#343434"/>
<path d="M36.2434 64.4902H22.7559V70.0527H36.2434V64.4902Z" fill="#343434"/>
<path d="M0.00683594 25.1592C0.00683594 21.4717 0.588084 18.1217 1.76308 15.1029C2.93183 12.0904 4.60058 9.49668 6.76933 7.32793C8.93808 5.15918 11.5256 3.49668 14.5443 2.32168C17.5568 1.15293 20.9131 0.56543 24.6006 0.56543H43.0443C46.7318 0.56543 50.0881 1.15293 53.1006 2.32168C56.1131 3.49668 58.7068 5.15918 60.8756 7.32793C63.0443 9.49668 64.7068 12.0842 65.8818 15.1029C67.0506 18.1217 67.6381 21.4717 67.6381 25.1592V33.0654C67.6381 36.7529 67.0506 40.1092 65.8818 43.1217C64.7068 46.1342 63.0443 48.7279 60.8756 50.8967C58.7068 53.0654 56.1193 54.7342 53.1006 55.9029C50.0881 57.0779 46.7318 57.6592 43.0443 57.6592H24.6006C20.9131 57.6592 17.5568 57.0717 14.5443 55.9029C11.5318 54.7342 8.93808 53.0654 6.76933 50.8967C4.60058 48.7342 2.93183 46.1404 1.76308 43.1217C0.588084 40.1092 0.00683594 36.7529 0.00683594 33.0654V25.1592ZM14.0568 33.0654C14.0568 36.5217 15.0193 39.2904 16.9568 41.3654C18.8881 43.4467 21.4381 44.4842 24.5943 44.4842H43.0381C46.2006 44.4842 48.7443 43.4467 50.6818 41.3654C52.6131 39.2904 53.5818 36.5217 53.5818 33.0654V25.1592C53.5818 21.7029 52.6131 18.9404 50.6818 16.8592C48.7506 14.7779 46.2006 13.7404 43.0381 13.7404H24.5943C21.4318 13.7404 18.8881 14.7779 16.9568 16.8592C15.0256 18.9404 14.0568 21.7029 14.0568 25.1592V33.0654Z" fill="#343434"/>
<path d="M74.6553 0.56543H88.7053V20.6779L117.074 0.56543H139.999L99.249 29.4592L139.999 57.6529H116.637L88.7053 38.3279V57.6529H74.6553V0.56543Z" fill="#343434"/>
<path d="M0.00683594 25.1592C0.00683594 21.4717 0.588084 18.1217 1.76308 15.1029C2.93183 12.0904 4.60058 9.49668 6.76933 7.32793C8.93808 5.15918 11.5256 3.49668 14.5443 2.32168C17.5568 1.15293 20.9131 0.56543 24.6006 0.56543H43.0443C46.7318 0.56543 50.0881 1.15293 53.1006 2.32168C56.1131 3.49668 58.7068 5.15918 60.8756 7.32793C63.0443 9.49668 64.7068 12.0842 65.8818 15.1029C67.0506 18.1217 67.6381 21.4717 67.6381 25.1592V33.0654C67.6381 36.7529 67.0506 40.1092 65.8818 43.1217C64.7068 46.1342 63.0443 48.7279 60.8756 50.8967C58.7068 53.0654 56.1193 54.7342 53.1006 55.9029C50.0881 57.0779 46.7318 57.6592 43.0443 57.6592H24.6006C20.9131 57.6592 17.5568 57.0717 14.5443 55.9029C11.5318 54.7342 8.93808 53.0654 6.76933 50.8967C4.60058 48.7342 2.93183 46.1404 1.76308 43.1217C0.588084 40.1092 0.00683594 36.7529 0.00683594 33.0654V25.1592ZM14.0568 33.0654C14.0568 36.5217 15.0193 39.2904 16.9568 41.3654C18.8881 43.4467 21.4381 44.4842 24.5943 44.4842H43.0381C46.2006 44.4842 48.7443 43.4467 50.6818 41.3654C52.6131 39.2904 53.5818 36.5217 53.5818 33.0654V25.1592C53.5818 21.7029 52.6131 18.9404 50.6818 16.8592C48.7506 14.7779 46.2006 13.7404 43.0381 13.7404H24.5943C21.4318 13.7404 18.8881 14.7779 16.9568 16.8592C15.0256 18.9404 14.0568 21.7029 14.0568 25.1592V33.0654Z" fill="#343434"/>
<path d="M74.6553 0.56543H88.7053V20.6779L117.074 0.56543H139.999L99.249 29.4592L139.999 57.6529H116.637L88.7053 38.3279V57.6529H74.6553V0.56543Z" fill="#343434"/>
</svg>
