<svg viewBox="0 0 38 39" fill="none" xmlns="http://www.w3.org/2000/svg">
<path d="M20.684 3.97862C21.0621 4.2072 21.3889 4.51142 21.644 4.87221L21.748 5.02981L25.516 11.1098L32.5287 12.7738C34.1511 13.1585 35.1895 14.6953 34.9711 16.2953L34.9447 16.4553L34.9103 16.6153C34.8062 17.0433 34.6141 17.4449 34.3463 17.7945L34.2263 17.9417L29.5431 23.3625L30.1087 30.4712C30.2399 32.1176 29.0807 33.5696 27.4711 33.856L27.3087 33.8808L27.1487 33.8968C26.7151 33.9307 26.2791 33.8773 25.8664 33.74L25.6624 33.6648L19 30.936L12.3361 33.664C10.7953 34.296 9.04168 33.6568 8.26729 32.2344L8.19289 32.0904L8.12569 31.94C7.95578 31.5348 7.8724 31.0985 7.88089 30.6592L7.89049 30.4712L8.45529 23.3625L3.77213 17.9417C3.25684 17.3472 2.98185 16.5819 3.00093 15.7954C3.02002 15.0089 3.33181 14.2578 3.87533 13.6889L3.99853 13.5665L4.12972 13.4489C4.46865 13.1633 4.86266 12.9504 5.28731 12.8234L5.47131 12.7738L12.4825 11.1098L16.252 5.02981C17.1816 3.52983 19.1664 3.05863 20.684 3.97862ZM23.8 23.5081C23.5898 23.508 23.3818 23.5494 23.1876 23.6298C22.9935 23.7102 22.817 23.828 22.6684 23.9766C22.5198 24.1252 22.402 24.3016 22.3216 24.4957C22.2411 24.6898 22.1997 24.8979 22.1997 25.1081C22.1997 25.3182 22.2411 25.5263 22.3216 25.7204C22.402 25.9145 22.5198 26.0909 22.6684 26.2395C22.817 26.3881 22.9935 26.5059 23.1876 26.5863C23.3818 26.6667 23.5898 26.7081 23.8 26.708C24.2243 26.708 24.6312 26.5394 24.9312 26.2393C25.2312 25.9393 25.3997 25.5324 25.3997 25.1081C25.3997 24.6838 25.2312 24.2768 24.9312 23.9768C24.6312 23.6767 24.2243 23.5081 23.8 23.5081Z" fill="url(#paint0_linear_12155_5548)"/>
<defs>
<linearGradient id="paint0_linear_12155_5548" x1="19" y1="3.5083" x2="19" y2="33.9077" gradientUnits="userSpaceOnUse">
<stop stop-color="#FFB526"/>
<stop offset="1" stop-color="#D49A05"/>
</linearGradient>
</defs>
</svg>
