<svg width="22" height="22" viewBox="0 0 22 22" fill="none" xmlns="http://www.w3.org/2000/svg">
<path d="M11.0108 20.5906C8.44725 20.5906 6.03715 19.5923 4.22448 17.7796C2.41181 15.9669 1.41351 13.5569 1.41351 10.9933C1.41351 8.42981 2.41181 6.0197 4.22448 4.20703C6.03718 2.39433 8.44725 1.39606 11.0108 1.39606C13.5743 1.39606 15.9844 2.39433 17.7971 4.20703C19.6098 6.01972 20.608 8.42981 20.608 10.9933C20.608 13.5569 19.6098 15.9669 17.7971 17.7796C15.9844 19.5923 13.5743 20.5906 11.0108 20.5906ZM11.0108 2.27654C6.20433 2.27654 2.29399 6.18687 2.29399 10.9933C2.29399 15.7998 6.20433 19.7101 11.0108 19.7101C15.8172 19.7101 19.7276 15.7998 19.7276 10.9933C19.7276 6.18687 15.8172 2.27654 11.0108 2.27654Z" fill="#EAECF2"/>
<path d="M10.9603 16.6709C10.5713 16.6709 10.2568 16.3555 10.2568 15.9665V9.71506C10.2568 9.32601 10.5713 9.01068 10.9603 9.01068C11.3493 9.01068 11.6638 9.32604 11.6638 9.71506V15.9665C11.6638 16.3555 11.3493 16.6709 10.9603 16.6709Z" fill="#EAECF2"/>
<path d="M10.0176 6.36923C10.0176 6.6261 10.1197 6.87245 10.3013 7.05408C10.4829 7.23572 10.7293 7.33776 10.9862 7.33776C11.243 7.33776 11.4894 7.23572 11.671 7.05408C11.8527 6.87245 11.9547 6.6261 11.9547 6.36923C11.9547 6.11236 11.8527 5.86601 11.671 5.68437C11.4894 5.50274 11.243 5.4007 10.9862 5.4007C10.7293 5.4007 10.4829 5.50274 10.3013 5.68437C10.1197 5.86601 10.0176 6.11236 10.0176 6.36923Z" fill="#EAECF2"/>
</svg>
