<svg viewBox="0 0 32 32" fill="none" xmlns="http://www.w3.org/2000/svg">
<path fill-rule="evenodd" clip-rule="evenodd" d="M0.542766 26.8464C-0.0869687 27.3667 -0.182688 28.3077 0.328971 28.9481C0.84063 29.5884 1.76591 29.6858 2.39565 29.1655L31.4572 5.15357C32.087 4.63326 32.1827 3.69233 31.671 3.05195C31.1594 2.41156 30.2341 2.31422 29.6044 2.83454L25.4423 6.2734C22.7983 4.34895 19.5005 3.05194 15.9258 3.05194C7.35832 3.05194 0.394643 10.5062 0.328885 16.2211C0.433229 18.5487 1.88885 21.3828 4.24775 23.7852L0.542766 26.8464ZM6.51985 21.9079L10.5281 18.5961C9.94972 17.7112 9.61373 16.7602 9.57928 15.9256C9.48052 13.5309 12.2598 10.1779 15.9258 10.1779C17.2029 10.1779 18.3979 10.6034 19.4068 11.2602L23.1482 8.16884C21.1644 6.88079 18.776 6.03549 16.2467 6.03549C9.24618 6.03549 3.25955 11.8071 3.27844 16.137C3.28677 17.9157 4.51989 20.078 6.51985 21.9079ZM16.8129 13.4033C16.5879 13.351 16.3568 13.3224 16.1233 13.3224C13.9289 13.3224 12.343 14.8508 12.3483 16.0824C12.3496 16.3178 12.4469 16.5886 12.626 16.8627L16.8129 13.4033Z" fill="#7D8086"/>
<path d="M15.9258 28.9481C13.2022 28.9481 10.6572 28.1805 8.44513 26.9685L11.0857 24.7867C12.6778 25.4328 14.4267 25.8228 16.2467 25.8228C22.84 25.8228 28.4894 20.0689 28.4825 16.137C28.4804 14.7342 27.895 13.1877 26.8818 11.7354L29.1284 9.87906C30.6836 11.9412 31.61 14.1951 31.6709 16.2211C31.6052 21.3769 24.5117 28.9481 15.9258 28.9481Z" fill="#7D8086"/>
<path d="M14.9511 21.5929L22.4005 15.438C22.4256 15.6037 22.4387 15.7667 22.4387 15.9256C22.4423 18.3303 19.5026 21.6733 15.9258 21.6733C15.5915 21.6733 15.2663 21.6454 14.9511 21.5929Z" fill="#7D8086"/>
</svg>
