<svg viewBox="0 0 32 32" fill="none" xmlns="http://www.w3.org/2000/svg">
<path fill-rule="evenodd" clip-rule="evenodd" d="M15.9244 30C7.1769 30 0.235171 22.3749 0 17.222C0.0671916 11.4842 7.1769 4 15.9244 4C24.6904 4 31.8249 11.512 32 17.222C31.9328 22.3985 24.6904 30 15.9244 30ZM16.252 6.99552C9.10446 6.99552 2.99213 12.7903 3.01144 17.1376C3.03034 21.0675 9.10446 26.8623 16.252 26.8623C22.9837 26.8623 28.7517 21.0852 28.7446 17.1376C28.7378 12.7625 22.9837 6.99552 16.252 6.99552ZM15.9244 22.696C12.1814 22.696 9.54541 19.3296 9.44462 16.9253C9.34383 14.521 12.1814 11.1546 15.9244 11.1546C19.5763 11.1546 22.5701 14.505 22.5739 16.9253C22.5776 19.3397 19.5763 22.696 15.9244 22.696ZM16.126 14.3117C13.8856 14.3117 12.2662 15.8462 12.2717 17.0827C12.2767 18.0382 13.8856 19.5727 16.126 19.5727C17.8675 19.5727 19.4835 18.0428 19.4814 17.0827C19.4797 15.839 17.8675 14.3117 16.126 14.3117Z" fill="#7D8086"/>
</svg>
