<svg width="587" height="45" viewBox="0 0 587 45" fill="none" xmlns="http://www.w3.org/2000/svg">
<g filter="url(#filter0_d_16336_5389)">
<path d="M4.18652 36V1.6H27.8865V9.2H14.9365V16.15H26.9365V22.85H14.9365V36H4.18652ZM31.9697 36V1.6H43.2697V36H31.9697ZM74.8166 36.8C72.4166 36.8 70.4333 36.45 68.8666 35.75C67.2999 35.0167 66.0499 34.0167 65.1166 32.75C64.1833 31.4833 63.4833 30 63.0166 28.3C62.5499 26.6 62.2333 24.7667 62.0666 22.8H59.7166V36H48.7666V1.6H62.9166C68.3833 1.6 72.3166 2.56666 74.7166 4.5C77.1499 6.4 78.3666 8.98333 78.3666 12.25C78.3666 14.2167 77.8333 15.9833 76.7666 17.55C75.6999 19.0833 73.9833 20.3667 71.6166 21.4C71.7499 22.1333 71.8666 22.7333 71.9666 23.2C72.0666 23.6667 72.2166 24.1833 72.4166 24.75C72.8499 25.95 73.3833 26.7833 74.0166 27.25C74.6833 27.7167 75.5833 27.95 76.7166 27.95C77.4499 27.95 78.1833 27.85 78.9166 27.65L79.5166 35.85C78.8499 36.1167 78.1333 36.3333 77.3666 36.5C76.6333 36.7 75.7833 36.8 74.8166 36.8ZM59.7166 15.95H61.6166C64.0833 15.95 65.8166 15.6833 66.8166 15.15C67.8499 14.5833 68.3666 13.6333 68.3666 12.3C68.3666 11.1667 67.9499 10.35 67.1166 9.85C66.2833 9.31667 64.9666 9.05 63.1666 9.05H59.7166V15.95ZM93.0557 36.8C90.9557 36.8 88.8223 36.5333 86.6557 36C84.489 35.5 82.6557 34.8167 81.1557 33.95L82.9557 25.8C84.889 26.8333 86.689 27.5167 88.3557 27.85C90.0557 28.15 91.6223 28.3 93.0557 28.3C94.389 28.3 95.389 28.0833 96.0557 27.65C96.7557 27.2167 97.1057 26.6333 97.1057 25.9C97.1057 25.2333 96.7223 24.7167 95.9557 24.35C95.189 23.95 94.189 23.5833 92.9557 23.25C91.7557 22.9167 90.4723 22.5333 89.1057 22.1C87.739 21.6333 86.439 21.0333 85.2057 20.3C84.0057 19.5333 83.0223 18.5333 82.2557 17.3C81.489 16.0333 81.1057 14.45 81.1057 12.55C81.1057 10.15 81.689 8.08333 82.8557 6.35C84.0223 4.58333 85.689 3.23333 87.8557 2.3C90.0223 1.33333 92.5723 0.85 95.5057 0.85C97.4723 0.85 99.389 1.11667 101.256 1.65C103.156 2.15 104.672 2.83333 105.806 3.7L104.106 11.05C102.406 10.35 100.872 9.85 99.5057 9.55C98.1723 9.21666 96.9057 9.05 95.7057 9.05C94.3057 9.05 93.239 9.25 92.5057 9.65C91.7723 10.05 91.4057 10.5833 91.4057 11.25C91.4057 11.8833 91.789 12.4 92.5557 12.8C93.3223 13.2 94.3057 13.5833 95.5057 13.95C96.7057 14.3167 97.989 14.7333 99.3557 15.2C100.722 15.6667 102.006 16.2833 103.206 17.05C104.406 17.8167 105.389 18.8167 106.156 20.05C106.922 21.2833 107.306 22.8333 107.306 24.7C107.306 28.5667 106.039 31.55 103.506 33.65C101.006 35.75 97.5223 36.8 93.0557 36.8ZM116.129 36V9.5H108.379V1.6H135.529V9.5H127.779V36H116.129ZM147.985 36V1.6H159.935C164.935 1.6 169.002 2.31667 172.135 3.75C175.302 5.18333 177.619 7.16666 179.085 9.7C180.585 12.2333 181.335 15.1833 181.335 18.55C181.335 24.05 179.519 28.3333 175.885 31.4C172.285 34.4667 166.802 36 159.435 36H147.985ZM159.035 27.25H162.235C164.902 27.25 166.885 26.45 168.185 24.85C169.485 23.2167 170.135 21.0833 170.135 18.45C170.135 16.0167 169.502 14.0667 168.235 12.6C167.002 11.1 165.002 10.35 162.235 10.35H159.035V27.25ZM185.388 36V1.6H209.538V9.2H197.538V15.3H208.488V21.6H197.538V28.15H209.538V36H185.388ZM214.05 36V1.55H225.7C231.366 1.55 235.633 2.48333 238.5 4.35C241.4 6.18333 242.85 8.9 242.85 12.5C242.85 15 242.216 17.1333 240.95 18.9C239.716 20.6333 237.966 21.9667 235.7 22.9C233.433 23.8 230.766 24.25 227.7 24.25H225.1V36H214.05ZM227.25 17.3C229.016 17.3 230.383 16.9333 231.35 16.2C232.316 15.4667 232.8 14.3667 232.8 12.9C232.8 11.5333 232.333 10.5167 231.4 9.85C230.466 9.15 229.116 8.8 227.35 8.8H225.1V17.3H227.25ZM263.373 36.8C259.74 36.8 256.54 36.0333 253.773 34.5C251.006 32.9667 248.84 30.85 247.273 28.15C245.74 25.45 244.973 22.35 244.973 18.85C244.973 15.3167 245.74 12.2 247.273 9.5C248.84 6.8 251.006 4.68333 253.773 3.15C256.54 1.61667 259.74 0.85 263.373 0.85C267.006 0.85 270.206 1.61667 272.973 3.15C275.74 4.65 277.89 6.75 279.423 9.45C280.99 12.15 281.773 15.2833 281.773 18.85C281.773 22.35 280.99 25.45 279.423 28.15C277.89 30.85 275.74 32.9667 272.973 34.5C270.206 36.0333 267.006 36.8 263.373 36.8ZM263.373 27.7C265.473 27.7 267.19 26.8833 268.523 25.25C269.89 23.6167 270.573 21.4667 270.573 18.8C270.573 17 270.256 15.4167 269.623 14.05C269.023 12.6833 268.173 11.6167 267.073 10.85C266.006 10.05 264.756 9.65 263.323 9.65C261.223 9.65 259.506 10.5 258.173 12.2C256.84 13.8667 256.173 16.0667 256.173 18.8C256.173 21.4667 256.84 23.6167 258.173 25.25C259.506 26.8833 261.24 27.7 263.373 27.7ZM296.327 36.8C294.227 36.8 292.094 36.5333 289.927 36C287.76 35.5 285.927 34.8167 284.427 33.95L286.227 25.8C288.16 26.8333 289.96 27.5167 291.627 27.85C293.327 28.15 294.894 28.3 296.327 28.3C297.66 28.3 298.66 28.0833 299.327 27.65C300.027 27.2167 300.377 26.6333 300.377 25.9C300.377 25.2333 299.994 24.7167 299.227 24.35C298.46 23.95 297.46 23.5833 296.227 23.25C295.027 22.9167 293.744 22.5333 292.377 22.1C291.01 21.6333 289.71 21.0333 288.477 20.3C287.277 19.5333 286.294 18.5333 285.527 17.3C284.76 16.0333 284.377 14.45 284.377 12.55C284.377 10.15 284.96 8.08333 286.127 6.35C287.294 4.58333 288.96 3.23333 291.127 2.3C293.294 1.33333 295.844 0.85 298.777 0.85C300.744 0.85 302.66 1.11667 304.527 1.65C306.427 2.15 307.944 2.83333 309.077 3.7L307.377 11.05C305.677 10.35 304.144 9.85 302.777 9.55C301.444 9.21666 300.177 9.05 298.977 9.05C297.577 9.05 296.51 9.25 295.777 9.65C295.044 10.05 294.677 10.5833 294.677 11.25C294.677 11.8833 295.06 12.4 295.827 12.8C296.594 13.2 297.577 13.5833 298.777 13.95C299.977 14.3167 301.26 14.7333 302.627 15.2C303.994 15.6667 305.277 16.2833 306.477 17.05C307.677 17.8167 308.66 18.8167 309.427 20.05C310.194 21.2833 310.577 22.8333 310.577 24.7C310.577 28.5667 309.31 31.55 306.777 33.65C304.277 35.75 300.794 36.8 296.327 36.8ZM314.001 36V1.6H325.301V36H314.001ZM336.198 36V9.5H328.448V1.6H355.598V9.5H347.848V36H336.198ZM365.504 36L375.004 1.6H391.204L401.154 36H388.904L387.604 29.4H378.704L377.254 36H365.504ZM379.754 23.25H386.404L383.154 8.2L379.754 23.25ZM419.806 36.8C416.206 36.8 413.056 36.0833 410.356 34.65C407.69 33.1833 405.606 31.1333 404.106 28.5C402.64 25.8667 401.906 22.8 401.906 19.3C401.906 15.7 402.673 12.5167 404.206 9.75C405.773 6.98333 407.906 4.81666 410.606 3.25C413.34 1.65 416.473 0.85 420.006 0.85C423.94 0.85 427.023 1.61667 429.256 3.15L427.906 11.1C426.94 10.6333 425.923 10.3 424.856 10.1C423.823 9.86667 422.84 9.75 421.906 9.75C419.173 9.75 417.023 10.5667 415.456 12.2C413.89 13.8333 413.106 16.1 413.106 19C413.106 21.7333 413.856 23.8833 415.356 25.45C416.89 26.9833 419.006 27.75 421.706 27.75C422.773 27.75 423.74 27.65 424.606 27.45C425.506 27.25 426.606 26.8833 427.906 26.35L429.306 34.25C426.406 35.95 423.24 36.8 419.806 36.8ZM438.297 36V9.5H430.547V1.6H457.697V9.5H449.947V36H438.297ZM460.827 36V1.6H472.127V36H460.827ZM485.024 36L474.824 1.6H486.624L491.924 23.05L497.224 1.6H508.524L497.774 36H485.024ZM510.974 36V1.6H522.274V36H510.974ZM533.171 36V9.5H525.421V1.6H552.571V9.5H544.821V36H533.171ZM561.224 36V26.45L551.324 1.6H562.074L566.924 16.8L571.674 1.6H582.374L571.974 26.45V36H561.224Z" fill="url(#paint0_linear_16336_5389)"/>
</g>
<defs>
<filter id="filter0_d_16336_5389" x="0.186523" y="0.850098" width="586.187" height="43.95" filterUnits="userSpaceOnUse" color-interpolation-filters="sRGB">
<feFlood flood-opacity="0" result="BackgroundImageFix"/>
<feColorMatrix in="SourceAlpha" type="matrix" values="0 0 0 0 0 0 0 0 0 0 0 0 0 0 0 0 0 0 127 0" result="hardAlpha"/>
<feOffset dy="4"/>
<feGaussianBlur stdDeviation="2"/>
<feComposite in2="hardAlpha" operator="out"/>
<feColorMatrix type="matrix" values="0 0 0 0 1 0 0 0 0 0.156863 0 0 0 0 0.294118 0 0 0 0.3 0"/>
<feBlend mode="normal" in2="BackgroundImageFix" result="effect1_dropShadow_16336_5389"/>
<feBlend mode="normal" in="SourceGraphic" in2="effect1_dropShadow_16336_5389" result="shape"/>
</filter>
<linearGradient id="paint0_linear_16336_5389" x1="1" y1="15" x2="582" y2="15" gradientUnits="userSpaceOnUse">
<stop stop-color="#FF284B"/>
<stop offset="0.5" stop-color="#FF667F"/>
<stop offset="1" stop-color="#FF284B"/>
</linearGradient>
</defs>
</svg>
