<svg  viewBox="0 0 34 34" fill="none" xmlns="http://www.w3.org/2000/svg">
<path fill-rule="evenodd" clip-rule="evenodd" d="M31.8547 17.0466C31.6993 19.2692 31.1 21.427 30.1677 23.4985C29.3909 25.2248 28.4364 26.8432 27.1934 28.2889C25.0403 30.8136 22.4433 32.7772 19.1583 33.7267C17.2272 34.2877 15.3626 33.9425 13.5869 33.0793C12.0332 32.3241 10.657 31.3531 9.34738 30.2741C7.08333 28.3968 5.19662 26.1958 3.82044 23.628C2.97697 22.0528 2.26668 20.4344 2.22229 18.665C2.1113 14.9104 2.04471 11.1342 2.00032 7.35796C1.97812 6.23588 3.11015 5.15697 4.46414 5.04907C6.3006 4.9003 7.98633 4.3119 9.691 3.7169L9.76911 3.68964C11.5004 3.06387 13.1874 2.3302 14.6302 1.18655C14.7034 1.12674 14.7759 1.06617 14.8483 1.00569C15.3241 0.608019 15.7952 0.214318 16.4503 0.0644791C17.3381 -0.129726 18.0706 0.129214 18.7143 0.647094C21.2447 2.65388 24.1303 3.86227 27.3266 4.48804C27.6299 4.54558 27.9308 4.61031 28.2317 4.67505C28.8335 4.80452 29.4353 4.93399 30.0568 5.00592C31.1444 5.13539 31.9879 6.40851 31.9879 7.42269C31.9879 8.07918 31.9909 8.73769 31.9939 9.39732C32.0056 11.948 32.0174 14.5152 31.8547 17.0466ZM24.565 13.877C25.1926 13.2546 25.1926 12.2454 24.565 11.623C23.9374 11.0007 22.9198 11.0007 22.2922 11.623L14.8571 18.9961L11.7079 15.873C11.0802 15.2506 10.0626 15.2506 9.43501 15.873C8.80738 16.4954 8.80738 17.5046 9.43501 18.127L13.7207 22.377C14.3483 22.9993 15.3659 22.9993 15.9936 22.377L24.565 13.877Z" fill="url(#paint0_linear_12612_43688)"/>
<defs>
<linearGradient id="paint0_linear_12612_43688" x1="17" y1="0" x2="17" y2="34" gradientUnits="userSpaceOnUse">
<stop stop-color="#D2D5DE"/>
<stop offset="1" stop-color="#A1A4A9"/>
</linearGradient>
</defs>
</svg>
