<svg  viewBox="0 0 34 34" fill="none" xmlns="http://www.w3.org/2000/svg">
<path d="M33.9999 17.0135C34.0376 26.2999 26.4311 34.2651 16.4652 34.0008C7.72617 33.7554 -0.257867 26.5453 0.00638032 16.4284C0.251752 7.68936 7.48079 -0.275795 17.5977 0.00732683C26.4311 0.271574 33.981 7.50061 33.9999 17.0135ZM20.712 23.2233C20.6743 23.1856 20.6365 23.1478 20.5988 23.1101C20.4478 23.2044 20.2779 23.2799 20.1269 23.3743C19.6928 23.6197 19.2964 23.9028 18.8434 24.0915C18.296 24.318 17.8619 24.1293 17.7864 23.5631C17.6732 22.8081 17.5977 22.0342 17.7298 21.2981C17.8997 20.3166 18.3149 19.3729 18.5603 18.4102C18.8245 17.3721 19.1454 16.334 19.2209 15.2959C19.2964 14.371 18.7113 14.0313 17.8808 14.1068C17.692 14.1257 17.4844 14.2012 17.2957 14.2578C15.1062 14.9184 13.2754 16.2963 11.4067 17.5797C11.2935 17.6552 11.2369 17.8251 11.1614 17.9572C11.3124 18.0516 11.4634 18.1649 11.6332 18.2215C11.7654 18.2592 11.9541 18.2215 12.0862 18.1649C12.7846 17.844 13.483 17.4854 14.1813 17.1645C14.389 17.0701 14.6343 17.0135 14.8608 16.9569C14.8608 17.1645 14.8608 17.3721 14.8608 17.5797C14.8608 17.6741 14.842 17.7685 14.842 17.8629C14.389 20.411 13.6528 22.9024 13.4263 25.4883C13.2565 27.2814 14.3323 27.64 15.5214 27.338C17.5222 26.8095 18.9378 25.4505 20.2213 23.9405C20.3723 23.6952 20.5421 23.4498 20.712 23.2233ZM18.296 11.8229C19.7683 11.8984 20.9008 10.5583 20.9008 9.23709C20.9008 7.80261 19.6928 6.538 18.1073 6.63237C16.8993 6.689 15.6158 7.82149 15.6913 9.36922C15.7479 10.7093 16.8993 11.8418 18.296 11.8229Z" fill="url(#paint0_linear_12612_43726)"/>
<defs>
<linearGradient id="paint0_linear_12612_43726" x1="17" y1="0" x2="17" y2="34.0072" gradientUnits="userSpaceOnUse">
<stop stop-color="#D2D5DE"/>
<stop offset="1" stop-color="#A1A4A9"/>
</linearGradient>
</defs>
</svg>
