<svg viewBox="0 0 35 35" fill="none" xmlns="http://www.w3.org/2000/svg">
<path d="M24.1898 11.4749H11.8663C12.2431 9.27037 12.733 7.1034 13.6564 5.06818C14.1841 3.90005 14.8057 2.82595 15.7479 1.92151C17.0669 0.658976 18.895 0.658976 20.214 1.92151C21.7023 3.35352 22.4939 5.1624 23.078 7.08444C23.3846 8.08347 23.6245 9.10163 23.8722 10.1522L23.8755 10.1638L23.8855 10.2052C23.9841 10.6231 24.0842 11.0459 24.1898 11.4749Z" fill="url(#paint0_linear_12805_75452)"/>
<path d="M11.6024 22.3852C11.2818 19.4268 11.2818 16.5061 11.6024 13.5666H24.3404C24.6042 14.5088 24.6418 18.692 24.397 22.3852H11.6024Z" fill="url(#paint1_linear_12805_75452)"/>
<path d="M24.0956 24.4769H11.7908C11.913 24.9653 12.0253 25.4498 12.1364 25.9303C12.3686 26.9328 12.5968 27.9182 12.9027 28.8863C13.5243 30.8081 14.2971 32.6737 15.8234 34.0869C16.841 35.0291 18.386 35.293 19.5541 34.5203C20.4775 33.8985 21.137 33.0693 21.6648 32.1272C23.0026 29.753 23.6808 27.1714 24.0956 24.4769Z" fill="url(#paint2_linear_12805_75452)"/>
<path d="M9.51087 22.4229H1.95444C1.67179 22.4229 1.52127 22.3664 1.44582 22.046C0.993512 20.2749 0.899295 18.4658 1.01228 16.657C1.03031 16.3542 1.06675 16.0515 1.11349 15.7488C1.17274 15.3663 1.24893 14.9835 1.32511 14.6009C1.37995 14.3253 1.43478 14.0496 1.48336 13.774C1.5025 13.6798 1.69093 13.5291 1.80392 13.5291C3.4873 13.5164 5.17031 13.5206 6.85368 13.5248C7.69537 13.527 8.53706 13.5291 9.37875 13.5291C9.39752 13.5291 9.43543 13.5478 9.49174 13.5855C9.22823 16.5062 9.24699 19.4269 9.51087 22.4229Z" fill="url(#paint3_linear_12805_75452)"/>
<path d="M26.4319 13.5289C26.7333 16.525 26.7145 19.4268 26.4319 22.4229H34.1388C34.1591 22.4229 34.1815 22.4181 34.2051 22.4097C34.218 22.4051 34.2308 22.3994 34.2437 22.3929C34.2548 22.3874 34.2658 22.3811 34.2768 22.3743C34.3004 22.36 34.3232 22.3432 34.3446 22.325C34.3589 22.3125 34.3729 22.2994 34.3854 22.2858L34.4001 22.2693L34.4145 22.2514L34.4233 22.2393C34.4421 22.212 34.455 22.1846 34.459 22.159L34.515 21.8725L34.5646 21.623C34.7244 20.8218 34.8841 20.0208 34.9301 19.2196C35.0243 17.4672 34.968 15.7146 34.5157 13.9812C34.4027 13.5854 34.2518 13.5289 33.9125 13.5289H26.4319Z" fill="url(#paint4_linear_12805_75452)"/>
<path d="M13.1474 1.69535C11.2255 4.67255 10.3209 8.00784 9.77438 11.4751H2.21832C4.42283 6.57582 8.02218 3.29703 13.1474 1.69535Z" fill="url(#paint5_linear_12805_75452)"/>
<path d="M26.1868 11.4751H33.649C32.8386 7.78187 26.4506 2.03468 22.7574 1.71431C24.7172 4.6915 25.6215 8.02679 26.1868 11.4751Z" fill="url(#paint6_linear_12805_75452)"/>
<path d="M13.2228 34.2564C8.39905 33.0693 3.8579 28.7542 2.29377 24.4767C2.33168 24.4767 2.36958 24.4719 2.40712 24.4671C2.44466 24.4625 2.4822 24.4579 2.51974 24.4579H9.77438C10.3209 27.9252 11.2255 31.2415 13.2228 34.2564Z" fill="url(#paint7_linear_12805_75452)"/>
<path d="M26.1871 24.4957C25.5839 27.9439 24.736 31.2792 22.8141 34.2564C27.9206 32.617 31.5387 29.3761 33.7244 24.4957H26.1871Z" fill="url(#paint8_linear_12805_75452)"/>
<defs>
<linearGradient id="paint0_linear_12805_75452" x1="17.9687" y1="0.974609" x2="17.9687" y2="34.9729" gradientUnits="userSpaceOnUse">
<stop stop-color="#D2D5DE"/>
<stop offset="1" stop-color="#A1A4A9"/>
</linearGradient>
<linearGradient id="paint1_linear_12805_75452" x1="17.9687" y1="0.974609" x2="17.9687" y2="34.9729" gradientUnits="userSpaceOnUse">
<stop stop-color="#D2D5DE"/>
<stop offset="1" stop-color="#A1A4A9"/>
</linearGradient>
<linearGradient id="paint2_linear_12805_75452" x1="17.9687" y1="0.974609" x2="17.9687" y2="34.9729" gradientUnits="userSpaceOnUse">
<stop stop-color="#D2D5DE"/>
<stop offset="1" stop-color="#A1A4A9"/>
</linearGradient>
<linearGradient id="paint3_linear_12805_75452" x1="17.9687" y1="0.974609" x2="17.9687" y2="34.9729" gradientUnits="userSpaceOnUse">
<stop stop-color="#D2D5DE"/>
<stop offset="1" stop-color="#A1A4A9"/>
</linearGradient>
<linearGradient id="paint4_linear_12805_75452" x1="17.9687" y1="0.974609" x2="17.9687" y2="34.9729" gradientUnits="userSpaceOnUse">
<stop stop-color="#D2D5DE"/>
<stop offset="1" stop-color="#A1A4A9"/>
</linearGradient>
<linearGradient id="paint5_linear_12805_75452" x1="17.9687" y1="0.974609" x2="17.9687" y2="34.9729" gradientUnits="userSpaceOnUse">
<stop stop-color="#D2D5DE"/>
<stop offset="1" stop-color="#A1A4A9"/>
</linearGradient>
<linearGradient id="paint6_linear_12805_75452" x1="17.9687" y1="0.974609" x2="17.9687" y2="34.9729" gradientUnits="userSpaceOnUse">
<stop stop-color="#D2D5DE"/>
<stop offset="1" stop-color="#A1A4A9"/>
</linearGradient>
<linearGradient id="paint7_linear_12805_75452" x1="17.9687" y1="0.974609" x2="17.9687" y2="34.9729" gradientUnits="userSpaceOnUse">
<stop stop-color="#D2D5DE"/>
<stop offset="1" stop-color="#A1A4A9"/>
</linearGradient>
<linearGradient id="paint8_linear_12805_75452" x1="17.9687" y1="0.974609" x2="17.9687" y2="34.9729" gradientUnits="userSpaceOnUse">
<stop stop-color="#D2D5DE"/>
<stop offset="1" stop-color="#A1A4A9"/>
</linearGradient>
</defs>
</svg>
