<svg viewBox="0 0 99 46" fill="none" xmlns="http://www.w3.org/2000/svg">
<rect width="99" height="46" rx="12.2667" fill="#343434"/>
<rect x="1.5" y="1.5" width="47" height="43" rx="12.2667" fill="#7D8086"/>
<g clip-path="url(#clip0_13041_283)">
<path d="M24.7993 24.5506C24.8008 22.1079 25.568 19.7271 26.993 17.743C28.4179 15.759 30.4289 14.2716 32.7432 13.4899C30.9851 12.8923 29.1099 12.7224 27.273 12.9943C25.4361 13.2662 23.6905 13.9721 22.181 15.0534C20.6714 16.1347 19.4413 17.5602 18.5927 19.2119C17.7441 20.8635 17.3015 22.6937 17.3015 24.5506C17.3015 26.4074 17.7441 28.2376 18.5927 29.8892C19.4413 31.5409 20.6714 32.9664 22.181 34.0477C23.6905 35.129 25.4361 35.8349 27.273 36.1068C29.1099 36.3787 30.9851 36.2088 32.7432 35.6112C30.4289 34.8296 28.4179 33.3421 26.993 31.3581C25.568 29.3741 24.8008 26.9933 24.7993 24.5506ZM34.9301 17.6394C34.8512 16.7357 34.5838 15.8586 34.1451 15.0647C33.7021 15.8511 33.4299 16.722 33.346 17.6207C32.3997 17.6937 31.4801 17.9694 30.6498 18.4291C31.4805 18.8872 32.4 19.1613 33.346 19.2328C33.4285 20.1318 33.7008 21.003 34.1451 21.7889C34.5893 20.9963 34.8616 20.119 34.9441 19.2142C35.8126 19.1216 36.6533 18.8546 37.4161 18.4291C36.6494 18.0004 35.8037 17.7317 34.9301 17.6394ZM15.977 13.4338C15.9298 12.8249 15.7512 12.2335 15.4536 11.7002C15.1572 12.2266 14.9741 12.8091 14.9162 13.4105C14.2853 13.4571 13.6718 13.6388 13.1172 13.9432C13.6718 14.2476 14.2853 14.4292 14.9162 14.4759C14.9748 15.0756 15.1578 15.6565 15.4536 16.1815C15.7493 15.6541 15.9278 15.0692 15.977 14.4665C16.5593 14.4046 17.1234 14.2267 17.6358 13.9432C17.1243 13.6576 16.5598 13.4795 15.977 13.4198V13.4338ZM30.9956 23.4758C30.6677 24.068 30.4671 24.7221 30.4068 25.3963C29.6969 25.45 29.0069 25.6556 28.3834 25.9991C29.0081 26.3391 29.6977 26.543 30.4068 26.5973C30.4658 27.2732 30.6664 27.9292 30.9956 28.5225C31.3273 27.9279 31.531 27.2706 31.5937 26.5926C32.2499 26.5238 32.8856 26.3235 33.4628 26.0038C32.8865 25.6821 32.2504 25.4817 31.5937 25.415C31.5324 24.7338 31.3287 24.0731 30.9956 23.4758Z" fill="white"/>
<path d="M25.7339 24.5506C25.756 26.858 26.4284 29.1125 27.6741 31.0549C28.9197 32.9974 30.6881 34.5491 32.7759 35.5318C27.4255 34.5038 23.3975 29.9804 23.3975 24.5506C23.3975 19.1207 27.4255 14.5927 32.7759 13.5693C30.6877 14.5516 28.9191 16.1032 27.6734 18.0457C26.4276 19.9883 25.7554 22.243 25.7339 24.5506Z" fill="white"/>
</g>
<path d="M73.3905 14.3288V11.7002H75.1429V14.3288H73.3905ZM78.3269 15.1822L79.6412 12.9058L81.1588 13.782L79.8445 16.0584L78.3269 15.1822ZM74.2667 30.1002C75.8933 30.1002 77.4534 29.454 78.6036 28.3038C79.7538 27.1536 80.4 25.5935 80.4 23.9669C80.4 22.3402 79.7538 20.7802 78.6036 19.6299C77.4534 18.4797 75.8933 17.8335 74.2667 17.8335C72.64 17.8335 71.08 18.4797 69.9297 19.6299C68.7795 20.7802 68.1333 22.3402 68.1333 23.9669C68.1333 25.5935 68.7795 27.1536 69.9297 28.3038C71.08 29.454 72.64 30.1002 74.2667 30.1002ZM74.2667 31.8526C76.3581 31.8526 78.3639 31.0218 79.8427 29.5429C81.3216 28.064 82.1524 26.0583 82.1524 23.9669C82.1524 21.8754 81.3216 19.8697 79.8427 18.3908C78.3639 16.912 76.3581 16.0811 74.2667 16.0811C72.1752 16.0811 70.1695 16.912 68.6906 18.3908C67.2118 19.8697 66.381 21.8754 66.381 23.9669C66.381 26.0583 67.2118 28.064 68.6906 29.5429C70.1695 31.0218 72.1752 31.8526 74.2667 31.8526ZM83.9048 23.0907H86.5333V24.8431H83.9048V23.0907ZM84.4515 17.0747L82.1752 18.389L83.0514 19.9066L85.3277 18.5923L84.4515 17.0747ZM67.3746 13.782L68.6888 16.0584L70.2064 15.1822L68.8921 12.9058L67.3746 13.782ZM65.482 19.9066L63.2056 18.5923L64.0818 17.0747L66.3582 18.389L65.482 19.9066ZM73.3905 33.605V36.2335H75.1429V33.605H73.3905ZM64.6286 23.0907H62V24.8431H64.6286V23.0907ZM63.2056 29.3414L65.482 28.0271L66.3582 29.5447L64.0818 30.859L63.2056 29.3414ZM68.6888 31.8754L67.3746 34.1526L68.8921 35.0288L70.2064 32.7515L68.6888 31.8754ZM79.6412 35.0288L78.3269 32.7515L79.8445 31.8754L81.1588 34.1526L79.6412 35.0288ZM82.1752 29.5447L84.4515 30.859L85.3277 29.3414L83.0514 28.0271L82.1752 29.5447Z" fill="#7D8086"/>
<defs>
<clipPath id="clip0_13041_283">
<rect width="24.5333" height="24.5333" fill="white" transform="translate(13 11.7002)"/>
</clipPath>
</defs>
</svg>
