<svg width="96" height="46" viewBox="0 0 96 46" fill="none" xmlns="http://www.w3.org/2000/svg">
<rect width="96" height="46" rx="12" fill="#999BA0"/>
<g clip-path="url(#clip0_14513_110744)">
<path d="M22.2993 24.0506C22.3008 21.6079 23.068 19.2271 24.493 17.243C25.9179 15.259 27.9289 13.7716 30.2432 12.9899C28.4851 12.3923 26.6099 12.2224 24.773 12.4943C22.9361 12.7662 21.1905 13.4721 19.681 14.5534C18.1714 15.6347 16.9413 17.0602 16.0927 18.7119C15.2441 20.3635 14.8015 22.1937 14.8015 24.0506C14.8015 25.9074 15.2441 27.7376 16.0927 29.3892C16.9413 31.0409 18.1714 32.4664 19.681 33.5477C21.1905 34.629 22.9361 35.3349 24.773 35.6068C26.6099 35.8787 28.4851 35.7088 30.2432 35.1112C27.9289 34.3296 25.9179 32.8421 24.493 30.8581C23.068 28.8741 22.3008 26.4933 22.2993 24.0506ZM32.4301 17.1394C32.3512 16.2357 32.0838 15.3586 31.6451 14.5647C31.2021 15.3511 30.9299 16.222 30.846 17.1207C29.8997 17.1937 28.9801 17.4694 28.1498 17.9291C28.9805 18.3872 29.9 18.6613 30.846 18.7328C30.9285 19.6318 31.2008 20.503 31.6451 21.2889C32.0893 20.4963 32.3616 19.619 32.4441 18.7142C33.3126 18.6216 34.1533 18.3546 34.9161 17.9291C34.1494 17.5004 33.3037 17.2317 32.4301 17.1394ZM13.477 12.9338C13.4298 12.3249 13.2512 11.7335 12.9536 11.2002C12.6572 11.7266 12.4741 12.3091 12.4162 12.9105C11.7853 12.9571 11.1718 13.1388 10.6172 13.4432C11.1718 13.7476 11.7853 13.9292 12.4162 13.9759C12.4748 14.5756 12.6578 15.1565 12.9536 15.6815C13.2493 15.1541 13.4278 14.5692 13.477 13.9665C14.0593 13.9046 14.6234 13.7267 15.1358 13.4432C14.6243 13.1576 14.0598 12.9795 13.477 12.9198V12.9338ZM28.4956 22.9758C28.1677 23.568 27.9671 24.2221 27.9068 24.8963C27.1969 24.95 26.5069 25.1556 25.8834 25.4991C26.5081 25.8391 27.1977 26.043 27.9068 26.0973C27.9658 26.7732 28.1664 27.4292 28.4956 28.0225C28.8273 27.4279 29.031 26.7706 29.0937 26.0926C29.7499 26.0238 30.3856 25.8235 30.9628 25.5038C30.3865 25.1821 29.7504 24.9817 29.0937 24.915C29.0324 24.2338 28.8287 23.5731 28.4956 22.9758Z" fill="#62666A"/>
<path d="M23.2339 24.0506C23.256 26.358 23.9284 28.6125 25.1741 30.5549C26.4197 32.4974 28.1881 34.0491 30.2759 35.0318C24.9255 34.0038 20.8975 29.4804 20.8975 24.0506C20.8975 18.6207 24.9255 14.0927 30.2759 13.0693C28.1877 14.0516 26.4191 15.6032 25.1734 17.5457C23.9276 19.4883 23.2554 21.743 23.2339 24.0506Z" fill="#62666A"/>
</g>
<rect x="52" y="2" width="42" height="42" rx="10" fill="white"/>
<path d="M72.1429 13.5714V11H73.8571V13.5714H72.1429ZM76.972 14.4063L78.2577 12.1794L79.7423 13.0366L78.4566 15.2634L76.972 14.4063ZM73 29C74.5913 29 76.1174 28.3679 77.2426 27.2426C78.3679 26.1174 79 24.5913 79 23C79 21.4087 78.3679 19.8826 77.2426 18.7574C76.1174 17.6321 74.5913 17 73 17C71.4087 17 69.8826 17.6321 68.7574 18.7574C67.6321 19.8826 67 21.4087 67 23C67 24.5913 67.6321 26.1174 68.7574 27.2426C69.8826 28.3679 71.4087 29 73 29ZM73 30.7143C75.046 30.7143 77.0081 29.9015 78.4548 28.4548C79.9015 27.0081 80.7143 25.046 80.7143 23C80.7143 20.954 79.9015 18.9919 78.4548 17.5452C77.0081 16.0985 75.046 15.2857 73 15.2857C70.954 15.2857 68.9919 16.0985 67.5452 17.5452C66.0985 18.9919 65.2857 20.954 65.2857 23C65.2857 25.046 66.0985 27.0081 67.5452 28.4548C68.9919 29.9015 70.954 30.7143 73 30.7143ZM82.4286 22.1429H85V23.8571H82.4286V22.1429ZM82.9634 16.2577L80.7366 17.5434L81.5937 19.028L83.8206 17.7423L82.9634 16.2577ZM66.2577 13.0366L67.5434 15.2634L69.028 14.4063L67.7423 12.1794L66.2577 13.0366ZM64.4063 19.028L62.1794 17.7423L63.0366 16.2577L65.2634 17.5434L64.4063 19.028ZM72.1429 32.4286V35H73.8571V32.4286H72.1429ZM63.5714 22.1429H61V23.8571H63.5714V22.1429ZM62.1794 28.2577L64.4063 26.972L65.2634 28.4566L63.0366 29.7423L62.1794 28.2577ZM67.5434 30.7366L66.2577 32.9643L67.7423 33.8214L69.028 31.5937L67.5434 30.7366ZM78.2577 33.8214L76.972 31.5937L78.4566 30.7366L79.7423 32.9643L78.2577 33.8214ZM80.7366 28.4566L82.9634 29.7423L83.8206 28.2577L81.5937 26.972L80.7366 28.4566Z" fill="#62666A"/>
<defs>
<clipPath id="clip0_14513_110744">
<rect width="24.5333" height="24.5333" fill="white" transform="translate(10.5 11.2002)"/>
</clipPath>
</defs>
</svg>
