<svg viewBox="0 0 34 34" fill="none" xmlns="http://www.w3.org/2000/svg">
<path d="M10.2782 33C10.2105 33 10.1203 33 10.0527 33C8.92517 32.632 8.69967 32.3073 8.69967 31.1167C8.69967 30.424 8.69967 29.7096 8.69967 29.0169C8.69967 28.4108 8.69967 27.8046 8.69967 27.2418C7.77511 27.1336 6.89565 27.1119 6.06129 26.9387C4.39257 26.5924 3.03955 25.8131 2.11499 24.4276C1.37083 23.302 1.03257 22.0464 1.01002 20.7259C0.987472 16.613 1.01002 12.5 1.01002 8.38696C1.01002 7.93236 1.03257 7.45612 1.14532 7.00152C1.97968 3.75442 4.21216 2.10922 7.5496 2.06593C14.4725 1.95769 19.4906 2.00099 26.4135 2.06593C27.3606 2.06593 28.3754 2.3257 29.2549 2.67205C31.7354 3.68948 32.8854 5.68104 32.9531 8.19213C33.0433 11.7856 32.9756 15.3791 32.9756 18.9509C32.9756 19.9466 32.9982 20.9424 32.8403 21.9166C32.5246 23.9947 31.4197 25.575 29.3902 26.4625C28.2175 26.982 26.9547 27.1336 25.6919 27.1336C22.5349 27.1552 21.2602 27.1336 18.1031 27.1336C17.9002 27.1336 17.6521 27.1552 17.5394 27.2634C15.803 28.7355 14.0441 30.2075 12.3303 31.7228C11.7214 32.2856 11.1351 32.8268 10.2782 33ZM16.5923 15.9635C16.6148 16.6346 17.2237 17.0892 17.9678 17.0675C18.712 17.0675 19.2307 16.613 19.2532 15.9419C19.3434 13.4091 19.4111 10.8764 19.4787 8.34366C19.5013 7.49941 18.8247 6.93658 17.9453 6.93658C16.9756 6.93658 16.3442 7.49941 16.3442 8.36531C16.3868 10.9844 16.5403 13.3705 16.5923 15.9635ZM19.7268 20.4662C19.8621 19.5353 18.8247 18.8426 17.9904 18.821C16.9756 18.821 16.1413 19.5353 16.1413 20.4445C16.1413 21.4403 16.8629 22.0464 18.0129 22.0464C19.0277 22.0464 19.7268 21.397 19.7268 20.4662Z" fill="url(#paint0_linear_12612_43712)"/>
<defs>
<linearGradient id="paint0_linear_12612_43712" x1="17" y1="2" x2="17" y2="33" gradientUnits="userSpaceOnUse">
<stop stop-color="#D2D5DE"/>
<stop offset="1" stop-color="#A1A4A9"/>
</linearGradient>
</defs>
</svg>
