<svg viewBox="0 0 34 34" fill="none" xmlns="http://www.w3.org/2000/svg">
<path d="M8.48495 8.29482C8.48495 6.65426 8.97048 5.05054 9.88014 3.68647C10.7898 2.32239 12.0827 1.25922 13.5954 0.631409C15.1082 0.00359398 16.7727 -0.160671 18.3786 0.159386C19.9845 0.479443 21.4596 1.26945 22.6174 2.4295C23.7751 3.58955 24.5636 5.06754 24.883 6.67658C25.2024 8.28561 25.0385 9.95342 24.4119 11.4691C23.7853 12.9848 22.7243 14.2803 21.3628 15.1917C20.0014 16.1031 18.4009 16.5896 16.7635 16.5896C14.5679 16.5896 12.4622 15.7157 10.9097 14.1601C9.35715 12.6046 8.48495 10.4947 8.48495 8.29482Z" fill="url(#paint0_linear_12612_43692)"/>
<path d="M31.5255 26.3164L31.2989 25.7576C30.5375 23.8409 29.2283 22.192 27.5355 21.0177C25.8426 19.8435 23.8415 19.1961 21.7829 19.1567H11.7615C9.70297 19.1961 7.70183 19.8435 6.00899 21.0177C5.15969 21.6069 4.40696 22.3155 3.77152 23.1174C4.68509 22.6713 5.71842 22.4199 6.81269 22.4199C10.533 22.4199 13.5489 25.3255 13.5489 28.9098C13.5489 30.973 12.5496 32.8113 10.9918 34H27.0812C27.8852 33.9959 28.675 33.787 29.3762 33.3929C30.0774 32.9989 30.6671 32.4326 31.0898 31.7473C31.5996 30.9465 31.9058 30.0329 31.9817 29.0861C32.0577 28.1394 31.9011 27.1885 31.5255 26.3164Z" fill="url(#paint1_linear_12612_43692)"/>
<path fill-rule="evenodd" clip-rule="evenodd" d="M11.6232 28.9099C11.6232 31.4701 9.46894 33.5455 6.81158 33.5455C4.15422 33.5455 2 31.4701 2 28.9099C2 26.3497 4.15422 24.2743 6.81158 24.2743C9.46894 24.2743 11.6232 26.3497 11.6232 28.9099ZM6.03179 26.1288H7.58982V28.1596H9.69775V29.6607H7.58982V31.6915H6.03179V29.6607H3.92386V28.1596H6.03179V26.1288Z" fill="url(#paint2_linear_12612_43692)"/>
<defs>
<linearGradient id="paint0_linear_12612_43692" x1="17.0002" y1="0" x2="17.0002" y2="34" gradientUnits="userSpaceOnUse">
<stop stop-color="#D2D5DE"/>
<stop offset="1" stop-color="#A1A4A9"/>
</linearGradient>
<linearGradient id="paint1_linear_12612_43692" x1="17.0002" y1="0" x2="17.0002" y2="34" gradientUnits="userSpaceOnUse">
<stop stop-color="#D2D5DE"/>
<stop offset="1" stop-color="#A1A4A9"/>
</linearGradient>
<linearGradient id="paint2_linear_12612_43692" x1="17.0002" y1="0" x2="17.0002" y2="34" gradientUnits="userSpaceOnUse">
<stop stop-color="#D2D5DE"/>
<stop offset="1" stop-color="#A1A4A9"/>
</linearGradient>
</defs>
</svg>
