<svg viewBox="0 0 34 34" fill="none" xmlns="http://www.w3.org/2000/svg">
<path fill-rule="evenodd" clip-rule="evenodd" d="M0 17C0 7.62316 7.62316 0 17 0C26.3768 0 34 7.62316 34 17C34 26.3768 26.3768 34 17 34C7.62316 34 0 26.3768 0 17ZM2.32632 17C2.32632 25.0884 8.91158 31.6737 17 31.6737C25.0884 31.6737 31.6737 25.0884 31.6737 17C31.6737 8.91158 25.0884 2.32632 17 2.32632C8.91158 2.32632 2.32632 8.91158 2.32632 17ZM4.22266 16.9647C4.22266 9.94995 9.94897 4.22363 16.9995 4.22363C24.05 4.22363 29.7763 9.94995 29.7763 16.9647C29.7763 24.0152 24.05 29.7415 16.9995 29.7415C9.94897 29.7415 4.22266 24.0152 4.22266 16.9647ZM18.0732 24.9457V23.3352C19.7553 23.0489 21.1511 21.7605 21.2942 20.0784C21.509 17.8594 19.7553 15.9626 17.5721 15.9626H16.3911C15.4963 15.9626 14.7448 15.1752 14.8521 14.2447C14.9237 13.4215 15.6753 12.8489 16.4984 12.8489H17.8942C18.4311 12.8489 18.8605 13.2068 18.9679 13.7078C19.0037 13.8152 19.1111 13.9226 19.2542 13.9226H20.829C21.0079 13.9226 21.1511 13.7794 21.1511 13.6005C21.0079 11.9899 19.7195 10.7731 18.109 10.6657V9.091C18.109 8.91205 17.9658 8.7689 17.7869 8.7689H16.2121C16.0332 8.7689 15.89 8.91205 15.89 9.091V10.6657C13.9574 10.9163 12.4542 12.7057 12.669 14.7457C12.8837 16.6784 14.6016 18.1099 16.57 18.1099H17.5721C18.4669 18.1099 19.2184 18.8973 19.1111 19.8278C19.0395 20.651 18.2879 21.2236 17.4648 21.2236H16.069C15.5321 21.2236 15.1027 20.8657 14.9953 20.3647C14.9595 20.2573 14.8521 20.1499 14.709 20.1499H13.1342C12.9553 20.1499 12.8121 20.2931 12.8121 20.4721C12.9553 22.0468 14.2437 23.2636 15.8542 23.371V24.9457C15.8542 25.1247 15.9974 25.2678 16.1763 25.2678H17.7511C17.93 25.2678 18.0732 25.1247 18.0732 24.9457Z" fill="url(#paint0_linear_12612_43716)"/>
<defs>
<linearGradient id="paint0_linear_12612_43716" x1="17" y1="0" x2="17" y2="34" gradientUnits="userSpaceOnUse">
<stop stop-color="#D2D5DE"/>
<stop offset="1" stop-color="#A1A4A9"/>
</linearGradient>
</defs>
</svg>
