<svg width="36" height="36" viewBox="0 0 36 36" fill="none" xmlns="http://www.w3.org/2000/svg">
<ellipse cx="18" cy="18" rx="18" ry="18" fill="#FF284B"/>
<path d="M19.4551 18.0014L25.6985 11.759C26.1005 11.3555 26.1005 10.7061 25.6985 10.3026C25.2965 9.89913 24.6445 9.89913 24.2425 10.3026L17.999 16.5451L11.7575 10.3026C11.3555 9.89913 10.7035 9.89913 10.3015 10.3026C9.8995 10.7061 9.8995 11.3555 10.3015 11.759L16.543 17.9995L10.3015 24.242C9.8995 24.6455 9.8995 25.2949 10.3015 25.6983C10.5015 25.9001 10.765 26 11.0305 26C11.294 26 11.5575 25.9001 11.7595 25.6983L17.999 19.4578L24.2405 25.6983C24.4406 25.9001 24.706 26 24.9695 26C25.233 26 25.4965 25.9001 25.6966 25.6983C26.0986 25.2949 26.0986 24.6455 25.6966 24.242L19.4551 18.0014Z" fill="#FDFDFD"/>
</svg>
