<svg width="23" height="29" viewBox="0 0 23 29" fill="none" xmlns="http://www.w3.org/2000/svg">
<path d="M1.8 13C1.8 11.2327 3.23269 9.8 5 9.8H18C19.7673 9.8 21.2 11.2327 21.2 13V18.5C21.2 23.8572 16.8572 28.2 11.5 28.2C6.14284 28.2 1.8 23.8572 1.8 18.5V13Z" stroke="#999BA0" stroke-width="1.6"/>
<path d="M17.2 9.7H5.8V7C5.8 3.85198 8.35198 1.3 11.5 1.3C14.648 1.3 17.2 3.85198 17.2 7V9.7Z" stroke="#999BA0" stroke-width="1.6"/>
<path d="M11.5001 15L12.7236 21.5257C12.8672 22.2918 12.2795 23 11.5 23C10.7205 23 10.1328 22.2918 10.2765 21.5257L11.5001 15Z" fill="#999BA0"/>
<circle cx="11.5" cy="16.5" r="2" fill="#999BA0"/>
</svg>
