<svg width="33" height="32" viewBox="0 0 33 32" fill="none" xmlns="http://www.w3.org/2000/svg">
<rect x="1.94043" y="9.83356" width="6.2098" height="1" rx="0.5" transform="rotate(72.9963 1.94043 9.83356)" fill="white"/>
<rect width="6.17777" height="1" rx="0.5" transform="matrix(-0.759554 0.650444 0.650444 0.759554 7.1748 11.3558)" fill="white"/>
<rect x="16" y="18" width="10" height="2" rx="1" fill="white"/>
<rect x="18" y="8" width="12" height="2" rx="1" transform="rotate(90 18 8)" fill="white"/>
<path d="M32.0004 16C32.0004 23.732 25.7324 30 18.0004 30C12.9238 30 8.47834 27.298 6.02366 23.2536C5.92901 23.0977 5.76102 23 5.57861 23C5.19367 23 4.94906 23.4087 5.14793 23.7383C7.7737 28.0901 12.5472 31 18.0004 31C26.2847 31 33.0004 24.2843 33.0004 16C33.0004 7.71573 26.2847 1 18.0004 1C10.234 1 3.84624 6.90227 3.07789 14.4659C3.0486 14.7542 3.27872 15 3.56848 15C3.8316 15 4.049 14.7957 4.07623 14.534C4.8091 7.49101 10.7635 2 18.0004 2C25.7324 2 32.0004 8.26801 32.0004 16Z" fill="white"/>
</svg>
