<svg width="48" height="48" viewBox="0 0 48 48" fill="none" xmlns="http://www.w3.org/2000/svg">
<path d="M26.7276 23.9944L38.4214 12.2898C39.1744 11.5333 39.1744 10.3156 38.4214 9.5591C37.6685 8.80257 36.4473 8.80257 35.6943 9.5591L24.0005 21.2637L12.3104 9.5591C11.5574 8.80257 10.3362 8.80257 9.58325 9.5591C8.83032 10.3156 8.83032 11.5333 9.58325 12.2898L21.2734 23.9908L9.58325 35.6954C8.83032 36.4519 8.83032 37.6696 9.58325 38.4261C9.95791 38.8044 10.4515 38.9917 10.9486 38.9917C11.4422 38.9917 11.9357 38.8044 12.314 38.4261L24.0005 26.7251L35.6907 38.4261C36.0654 38.8044 36.5625 38.9917 37.0561 38.9917C37.5496 38.9917 38.0432 38.8044 38.4178 38.4261C39.1708 37.6696 39.1708 36.4519 38.4178 35.6954L26.7276 23.9944Z" fill="#999BA0"/>
</svg>
