<svg width="30" height="30" viewBox="0 0 30 30" fill="none" xmlns="http://www.w3.org/2000/svg">
<path d="M28.4115 21.8303L28.4115 21.8305C28.5558 22.3706 28.2355 22.9249 27.696 23.0699L27.6948 23.0702C27.6084 23.0928 27.521 23.1044 27.4336 23.1044C26.9873 23.1044 26.5777 22.8067 26.4568 22.3544L28.4115 21.8303ZM28.4115 21.8303L27.242 17.4676C27.242 17.4676 27.242 17.4676 27.242 17.4676C27.0974 16.9277 26.5431 16.6111 26.0039 16.7523L26.0029 16.7526L21.8804 17.857L21.8802 17.857C21.3407 18.002 21.0204 18.5564 21.1647 19.0965L21.1648 19.0968C21.31 19.637 21.8634 19.9537 22.4033 19.8125L22.4044 19.8122L24.3802 19.2822C22.7565 22.9622 19.0462 25.4397 14.9552 25.4397C9.98015 25.4397 5.72186 21.8936 4.82858 17.0081C4.7281 16.458 4.19914 16.0936 3.65154 16.1947C3.1017 16.2952 2.7383 16.8221 2.83808 17.3715L2.83812 17.3717C3.90746 23.2193 9.00319 27.4632 14.9552 27.4632C19.6601 27.4632 23.9364 24.7229 25.9871 20.6027L26.4567 22.3542L28.4115 21.8303ZM3.99674 13.0277L3.99808 13.0273L8.12066 11.9229L8.12085 11.9229C8.65979 11.7778 8.98004 11.2235 8.83576 10.6834L8.83569 10.6832C8.69045 10.1427 8.1375 9.82694 7.59738 9.96734L7.59738 9.96733L7.59606 9.96769L5.79497 10.4507C7.53372 7.04669 11.0417 4.8455 14.9552 4.8455C19.9127 4.8455 24.1689 8.37745 25.0753 13.2432L25.0753 13.2433C25.1664 13.7304 25.5914 14.0695 26.069 14.0695C26.1285 14.0695 26.191 14.0649 26.2556 14.0525C26.8043 13.9503 27.1669 13.4223 27.0644 12.8728C25.9792 7.04887 20.8864 2.82199 14.9552 2.82199C10.3275 2.82199 6.17436 5.39452 4.06926 9.38597L3.54424 7.42505L3.5442 7.42489C3.39895 6.88443 2.84481 6.56863 2.30578 6.7091L2.30578 6.70909L2.30447 6.70944C1.76499 6.85443 1.44466 7.40879 1.58896 7.94891L1.589 7.94905L2.75842 12.3122C2.75844 12.3122 2.75845 12.3123 2.75846 12.3123C2.87943 12.7648 3.28913 13.0618 3.73524 13.0618C3.82276 13.0618 3.91004 13.0502 3.99674 13.0277Z" fill="#FF284B" stroke="#FF284B" stroke-width="0.35602"/>
</svg>
