<svg viewBox="0 0 44 44" fill="none" xmlns="http://www.w3.org/2000/svg">
<path d="M41.1725 34.4543L31.9921 27.6357C31.5909 27.3239 31.4573 26.7446 31.7248 26.2989C35.0226 20.5945 34.1312 13.1076 29.0954 8.38373C23.391 2.99137 14.2998 3.0805 8.72917 8.60656C2.89115 14.4 2.98027 23.8477 8.86285 29.5521C13.8096 34.3206 21.2519 34.9 26.7781 31.3792C27.2236 31.1119 27.8029 31.201 28.1149 31.6022L35.2899 40.5151C35.4235 40.6487 35.5128 40.7826 35.6465 40.9162C37.2954 42.5206 40.0138 42.5206 41.6627 40.7826C43.4898 38.9553 43.2671 35.9695 41.1725 34.4543ZM26.2433 25.9423C22.4107 29.9533 16.0824 30.0424 12.0715 26.2098C8.10526 22.3772 7.97156 16.0489 11.8042 12.0381C15.6367 8.07179 21.965 7.93809 25.9758 11.7707C29.9866 15.6033 30.0759 21.9761 26.2433 25.9423Z" fill="#7D8086"/>
</svg>
