<svg width="36" height="36" viewBox="0 0 36 36" fill="none" xmlns="http://www.w3.org/2000/svg">
<path d="M28.625 13.5H27.7812C27.6265 13.5 27.5 13.3735 27.5 13.2188V9.07035C27.5 4.10278 23.4359 -0.0175221 18.4648 5.60365e-05C13.5113 0.0176341 9.49999 4.0395 9.49999 9.00004V13.2188C9.49999 13.3735 9.37343 13.5 9.21874 13.5H8.37499C6.51172 13.5 5 15.0118 5 16.875V32.625C5 34.4883 6.51172 36 8.37499 36H28.625C30.4882 36 32 34.4883 32 32.625V16.875C32 15.0118 30.4882 13.5 28.625 13.5ZM20.5285 26.3215C19.966 26.7469 19.625 27.4008 19.625 28.1074V30.375C19.625 30.9902 19.1258 31.493 18.514 31.5C17.8883 31.507 17.375 30.9797 17.375 30.3504V28.125C17.375 27.4149 17.0375 26.7504 16.468 26.3215C15.6523 25.7063 15.125 24.7254 15.125 23.625C15.125 21.7899 16.6156 20.2746 18.4508 20.25C20.3386 20.2219 21.875 21.7442 21.875 23.625C21.875 24.7254 21.3476 25.7063 20.5285 26.3215ZM25.25 13.2188C25.25 13.3735 25.1234 13.5 24.9687 13.5H12.0312C11.8766 13.5 11.75 13.3735 11.75 13.2188V9.00004C11.75 7.19653 12.4531 5.502 13.7258 4.22583C15.0019 2.95318 16.6965 2.25005 18.5 2.25005C20.3035 2.25005 21.998 2.95318 23.2742 4.22583C24.5468 5.502 25.25 7.19653 25.25 9.00004V13.2188Z" fill="#67707B"/>
<path d="M17 23.5C17 23.8978 17.158 24.2794 17.4393 24.5607C17.7206 24.842 18.1022 25 18.5 25C18.8978 25 19.2794 24.842 19.5607 24.5607C19.842 24.2794 20 23.8978 20 23.5C20 23.1022 19.842 22.7206 19.5607 22.4393C19.2794 22.158 18.8978 22 18.5 22C18.1022 22 17.7206 22.158 17.4393 22.4393C17.158 22.7206 17 23.1022 17 23.5Z" fill="#FF284B"/>
</svg>
