<svg width="24" height="24" viewBox="0 0 24 24" fill="none" xmlns="http://www.w3.org/2000/svg">
<path d="M11.9994 2C6.47705 2 2 6.47721 2 12.0003C2 17.5228 6.47705 22 11.9994 22C17.5215 22 22 17.5228 22 12.0003C22 6.47721 17.5215 2 11.9994 2ZM12.002 21.0709C6.99404 21.0709 2.93422 17.011 2.93422 12.0029C2.93422 6.99481 6.99404 2.93479 12.002 2.93479C17.0102 2.93479 21.07 6.99479 21.07 12.0029C21.07 17.011 17.0102 21.0709 12.002 21.0709Z" fill="#FDFDFD"/>
<path d="M12.8853 7.42142C12.7847 6.65377 12.0176 6.70466 12.0176 6.70466C12.0176 6.70466 11.1745 6.63672 11.1147 7.42581C11.1147 7.42581 10.9331 11.4687 11.4684 13.973C11.4684 13.973 11.556 14.3235 12.0176 14.3355V14.3294C12.4482 14.3009 12.5316 13.9686 12.5316 13.9686C13.0669 11.4644 12.8853 7.42142 12.8853 7.42142Z" fill="#FDFDFD"/>
<path d="M12 15.2257C12.572 15.2257 13.0356 15.6893 13.0356 16.2612C13.0356 16.8333 12.572 17.2968 12 17.2968C11.428 17.2968 10.9644 16.8333 10.9644 16.2612C10.9644 15.6893 11.428 15.2257 12 15.2257Z" fill="#FDFDFD"/>
</svg>
