<svg xmlns="http://www.w3.org/2000/svg" width="32" height="32" viewBox="0 0 32 32" fill="none">
<g clip-path="url(#clip0_25118_21908)">
<path fill-rule="evenodd" clip-rule="evenodd" d="M16 0V10.4C16 11.0365 16.2568 11.647 16.7139 12.0971C17.171 12.5471 17.791 12.8 18.4375 12.8H29V28.8C29 29.6487 28.6576 30.4626 28.0481 31.0627C27.4386 31.6629 26.612 32 25.75 32H6.25C5.38805 32 4.5614 31.6629 3.9519 31.0627C3.34241 30.4626 3 29.6487 3 28.8V3.2C3 2.35131 3.34241 1.53737 3.9519 0.937258C4.5614 0.337142 5.38805 0 6.25 0H16ZM20.875 20.8H11.125C10.694 20.8 10.2807 20.9686 9.97595 21.2686C9.67121 21.5687 9.5 21.9757 9.5 22.4C9.5 22.8243 9.67121 23.2313 9.97595 23.5314C10.2807 23.8314 10.694 24 11.125 24H20.875C21.306 24 21.7193 23.8314 22.024 23.5314C22.3288 23.2313 22.5 22.8243 22.5 22.4C22.5 21.9757 22.3288 21.5687 22.024 21.2686C21.7193 20.9686 21.306 20.8 20.875 20.8ZM12.75 14.4H11.125C10.694 14.4 10.2807 14.5686 9.97595 14.8686C9.67121 15.1687 9.5 15.5757 9.5 16C9.5 16.4243 9.67121 16.8313 9.97595 17.1314C10.2807 17.4314 10.694 17.6 11.125 17.6H12.75C13.181 17.6 13.5943 17.4314 13.899 17.1314C14.2038 16.8313 14.375 16.4243 14.375 16C14.375 15.5757 14.2038 15.1687 13.899 14.8686C13.5943 14.5686 13.181 14.4 12.75 14.4ZM19.25 0.0688C19.8657 0.197369 20.4302 0.499187 20.875 0.9376L28.0478 8C28.493 8.43796 28.7995 8.99379 28.9301 9.6H19.25V0.0688Z" fill="url(#paint0_linear_25118_21908)"/>
</g>
<defs>
<linearGradient id="paint0_linear_25118_21908" x1="16" y1="0" x2="16" y2="32" gradientUnits="userSpaceOnUse">
<stop stop-color="#D2D5DE"/>
<stop offset="1" stop-color="#A1A4A9"/>
</linearGradient>
<clipPath id="clip0_25118_21908">
<rect width="37" height="37" fill="white" transform="translate(-3 -3)"/>
</clipPath>
</defs>
</svg>