<svg viewBox="0 0 29 16" fill="currentColor" xmlns="http://www.w3.org/2000/svg">
<path d="M14.774 1.10099L14.7737 1.10066C14.6385 0.967021 14.4162 0.965648 14.2784 1.10134C14.2783 1.10142 14.2782 1.10149 14.2781 1.10157L1.79911 13.4276L1.79867 13.4281C1.43605 13.7858 1.43504 14.3654 1.799 14.7254C2.16961 15.0906 2.77698 15.0906 3.14751 14.7252C3.14755 14.7251 3.14759 14.7251 3.14763 14.725L13.8244 4.18067L14.5271 3.48661L15.2298 4.18076L25.9031 14.7244C25.9033 14.7246 25.9035 14.7248 25.9037 14.7251C26.2761 15.0911 26.8835 15.0901 27.2536 14.7255C27.6177 14.3655 27.6167 13.7859 27.2541 13.4281L27.2536 13.4276L14.774 1.10099Z" stroke="" fill="currentColor" stroke-width="2"/>
</svg>
