<svg viewBox="0 0 32 32" fill="none" xmlns="http://www.w3.org/2000/svg">
<path d="M15.7273 13.4295L25.9521 3.2037C26.1027 3.05247 26.2818 2.93247 26.479 2.85059C26.6761 2.76871 26.8875 2.72656 27.101 2.72656C27.3145 2.72656 27.5258 2.76871 27.723 2.85059C27.9202 2.93247 28.0992 3.05247 28.2499 3.2037C28.401 3.35445 28.5209 3.53352 28.6027 3.73067C28.6845 3.92781 28.7266 4.13916 28.7266 4.3526C28.7266 4.56604 28.6845 4.77739 28.6027 4.97453C28.5209 5.17168 28.401 5.35075 28.2499 5.5015L18.0241 15.7273L28.2488 25.952C28.8836 26.5869 28.888 27.6106 28.2488 28.2498C28.098 28.4009 27.919 28.5208 27.7218 28.6026C27.5247 28.6844 27.3133 28.7265 27.0999 28.7265C26.8864 28.7265 26.6751 28.6844 26.478 28.6026C26.2808 28.5208 26.1017 28.4009 25.951 28.2498L15.7273 18.024L5.50259 28.2509C5.35191 28.4021 5.17286 28.5221 4.97571 28.604C4.77855 28.6859 4.56717 28.728 4.35369 28.728C4.1402 28.728 3.92882 28.6859 3.73167 28.604C3.53451 28.5221 3.35546 28.4021 3.20479 28.2509C3.05368 28.1002 2.9338 27.9211 2.852 27.7239C2.7702 27.5268 2.7281 27.3154 2.7281 27.102C2.7281 26.8886 2.7702 26.6772 2.852 26.4801C2.9338 26.2829 3.05368 26.1038 3.20479 25.9531L13.4306 15.7273L3.2037 5.50258C3.05247 5.35191 2.93247 5.17286 2.85059 4.9757C2.76871 4.77855 2.72656 4.56717 2.72656 4.35368C2.72656 4.1402 2.76871 3.92882 2.85059 3.73166C2.93247 3.53451 3.05247 3.35546 3.2037 3.20478C3.35445 3.05368 3.53352 2.9338 3.73067 2.852C3.92782 2.7702 4.13916 2.7281 4.3526 2.7281C4.56605 2.7281 4.77739 2.7702 4.97454 2.852C5.17168 2.9338 5.35076 3.05368 5.50151 3.20478L15.7273 13.4306V13.4295Z" fill="#7D8086"/>
</svg>
