<svg width="24" height="24" viewBox="0 0 24 24" fill="none" xmlns="http://www.w3.org/2000/svg">
<path fill-rule="evenodd" clip-rule="evenodd" d="M6.66667 2.66667H17.06C18.5467 2.66667 19.0853 2.82133 19.628 3.112C20.1707 3.40267 20.5973 3.82933 20.888 4.372C21.1787 4.91467 21.3333 5.45333 21.3333 6.94V17.3333C21.3333 17.687 21.4738 18.0261 21.7239 18.2761C21.9739 18.5262 22.313 18.6667 22.6667 18.6667C23.0203 18.6667 23.3594 18.5262 23.6095 18.2761C23.8595 18.0261 24 17.687 24 17.3333V6.83733C24 4.46 23.752 3.59733 23.288 2.728C22.8333 1.86908 22.1309 1.16668 21.272 0.712C20.4027 0.248 19.54 0 17.1627 0H6.66667C6.31305 0 5.97391 0.140476 5.72386 0.390524C5.47381 0.640573 5.33333 0.979711 5.33333 1.33333C5.33333 1.68696 5.47381 2.02609 5.72386 2.27614C5.97391 2.52619 6.31305 2.66667 6.66667 2.66667ZM16.9613 5.77867C16.4187 5.488 15.88 5.33333 14.3933 5.33333H4.27333C2.78667 5.33333 2.248 5.488 1.70533 5.77867C1.16851 6.06285 0.729516 6.50185 0.445333 7.03867C0.154667 7.58133 0 8.12 0 9.60667V19.7267C0 21.212 0.154667 21.752 0.445333 22.2947C0.736 22.8373 1.16267 23.264 1.70533 23.5547C2.248 23.8453 2.78667 24 4.27333 24H14.3933C15.8787 24 16.4187 23.8453 16.9613 23.5547C17.504 23.264 17.9307 22.8373 18.2213 22.2947C18.512 21.752 18.6667 21.2133 18.6667 19.7267V9.60667C18.6667 8.12 18.512 7.58133 18.2213 7.03867C17.9372 6.50185 17.4982 6.06285 16.9613 5.77867Z" fill="#62666A"/>
</svg>
