<svg width="32" height="32" viewBox="0 0 32 32" fill="none" xmlns="http://www.w3.org/2000/svg">
<path d="M20.5145 24.9914C20.5143 25.1882 20.4753 25.3831 20.3998 25.5649C20.3242 25.7467 20.2136 25.9119 20.0743 26.0509C19.9349 26.19 19.7695 26.3002 19.5876 26.3754C19.4056 26.4505 19.2106 26.4891 19.0138 26.4889H7.01459C6.81772 26.4891 6.62274 26.4505 6.44078 26.3754C6.25882 26.3002 6.09345 26.19 5.95409 26.0509C5.81474 25.9119 5.70414 25.7467 5.62861 25.5649C5.55308 25.3831 5.51409 25.1882 5.51388 24.9914V13.0034C5.51388 12.1753 6.18656 11.5059 7.01459 11.5059H8.51368V10.0068H7.01459C6.62059 10.0064 6.23037 10.0836 5.86624 10.2341C5.50211 10.3846 5.17122 10.6053 4.89247 10.8838C4.61372 11.1622 4.39259 11.4929 4.24171 11.8569C4.09084 12.2208 4.01318 12.611 4.01318 13.005V24.993C4.01297 25.3868 4.09044 25.7768 4.24116 26.1407C4.39188 26.5046 4.61289 26.8351 4.89153 27.1135C5.17017 27.3918 5.50097 27.6125 5.865 27.7628C6.22903 27.9131 6.61914 27.9902 7.01298 27.9896H19.0106C19.4043 27.9902 19.7943 27.9132 20.1582 27.763C20.5221 27.6127 20.8528 27.3922 21.1315 27.114C21.4101 26.8359 21.6311 26.5055 21.7819 26.1418C21.9328 25.7781 22.0104 25.3883 22.0104 24.9946V23.4955H20.5113V24.993L20.5145 24.9914ZM25.0134 4.01038H13.0142C12.6203 4.01017 12.2303 4.08756 11.8663 4.23814C11.5024 4.38872 11.1717 4.60953 10.8931 4.88796C10.6145 5.16639 10.3935 5.49698 10.2428 5.86084C10.092 6.22471 10.0144 6.61471 10.0144 7.00857V18.995C10.0144 20.6494 11.3565 21.99 13.0142 21.99H25.015C26.6726 21.99 28.0132 20.6478 28.0132 18.995V7.00857C28.013 6.61485 27.9352 6.22501 27.7843 5.86134C27.6335 5.49766 27.4125 5.16726 27.1339 4.889C26.8553 4.61074 26.5247 4.39007 26.1609 4.23959C25.797 4.08911 25.4071 4.01177 25.0134 4.01198V4.01038ZM26.5141 18.9966C26.5141 19.1934 26.4753 19.3882 26.3999 19.57C26.3246 19.7518 26.2141 19.9169 26.0749 20.056C25.9357 20.1951 25.7704 20.3054 25.5885 20.3805C25.4067 20.4557 25.2118 20.4943 25.015 20.4941H13.0142C12.6169 20.4941 12.2358 20.3363 11.9547 20.0555C11.6736 19.7748 11.5155 19.3939 11.5151 18.9966V7.00857C11.5151 6.18215 12.1878 5.51108 13.0142 5.51108H25.015C25.843 5.51108 26.5141 6.18215 26.5141 7.00857V18.9966Z" fill="#7D8086"/>
</svg>
