<svg width="34" height="34" viewBox="0 0 34 34" xmlns="http://www.w3.org/2000/svg">
<g clip-path="url(#clip0_20612_26197)">
<path d="M19.8599 6.22833e-09C21.2205 -6.38488e-05 22.5299 0.490872 23.5209 1.37267C24.512 2.25446 25.1101 3.46069 25.1932 4.7453L25.2029 5.05405V5.51351H33.4603C33.8295 5.51362 34.1848 5.64629 34.4546 5.88471C34.7244 6.12313 34.8884 6.44952 34.9136 6.79794C34.9388 7.14636 34.8232 7.49083 34.5902 7.76174C34.3572 8.03265 34.0242 8.2098 33.6584 8.25741L33.4603 8.27027H31.0316V28.9459C31.0317 30.233 30.5127 31.4715 29.5805 32.409C28.6483 33.3464 27.3731 33.9122 26.015 33.9908L25.6886 34H10.1454C8.78477 34.0001 7.4754 33.5091 6.48434 32.6273C5.49329 31.7455 4.8952 30.5393 4.81208 29.2547L4.80236 28.9459V8.27027H2.37373C2.00453 8.27016 1.64914 8.1375 1.37936 7.89908C1.10959 7.66066 0.945548 7.33426 0.920383 6.98584C0.895219 6.63742 1.01081 6.29295 1.2438 6.02204C1.47679 5.75113 1.8098 5.57398 2.17555 5.52638L2.37373 5.51351H10.6311V5.05405C10.631 3.76704 11.15 2.52848 12.0822 1.59102C13.0144 0.653557 14.2896 0.087814 15.6477 0.00918919L15.9741 6.22833e-09H19.8599ZM28.1173 8.27027H7.71673V28.9459C7.71673 30.135 8.67264 31.1146 9.89667 31.2322L10.1454 31.2432H25.6886C26.2899 31.2435 26.8699 31.0328 27.3163 30.6519C27.7628 30.271 28.044 29.7469 28.1056 29.1812L28.1173 28.9459V8.27027ZM19.8599 2.75676H15.9741C15.3728 2.7565 14.7929 2.96721 14.3464 3.34812C13.8999 3.72904 13.6187 4.25307 13.5571 4.81881L13.5454 5.05405V5.51351H22.2885V5.05405C22.2888 4.48532 22.066 3.93671 21.6634 3.51438C21.2607 3.09205 20.7067 2.82602 20.1086 2.76778L19.8599 2.75676Z"/>
<path fill-rule="evenodd" clip-rule="evenodd" d="M28.1777 8.14209H6.72803V31.9605H28.1777V8.14209ZM14.032 12.8652C14.3841 12.8652 14.7243 12.9859 14.9897 13.2048C15.255 13.4237 15.4276 13.7262 15.4755 14.0562L15.4891 14.2436V25.2706C15.489 25.6199 15.3488 25.956 15.0967 26.2112C14.8447 26.4664 14.4996 26.6216 14.1313 26.6454C13.7629 26.6692 13.3988 26.5599 13.1124 26.3395C12.826 26.1191 12.6387 25.8041 12.5884 25.4581L12.5748 25.2706V14.2436C12.5748 13.878 12.7283 13.5274 13.0016 13.269C13.2748 13.0105 13.6455 12.8652 14.032 12.8652ZM21.8036 12.8652C22.1557 12.8652 22.4959 12.9859 22.7613 13.2048C23.0267 13.4237 23.1993 13.7262 23.2472 14.0562L23.2608 14.2436V25.2706C23.2607 25.6199 23.1204 25.956 22.8683 26.2112C22.6163 26.4664 22.2712 26.6216 21.9029 26.6454C21.5346 26.6692 21.1704 26.5599 20.884 26.3395C20.5976 26.1191 20.4103 25.8041 20.36 25.4581L20.3464 25.2706V14.2436C20.3464 13.878 20.4999 13.5274 20.7732 13.269C21.0465 13.0105 21.4171 12.8652 21.8036 12.8652Z"/>
</g>
<defs>
<clipPath id="clip0_20612_26197">
<rect width="34" height="34"/>
</clipPath>
</defs>
</svg>
