<svg width="34" height="34" viewBox="0 0 34 34" fill="none" xmlns="http://www.w3.org/2000/svg">
<path d="M27.8294 12.4409V4.7069C27.8294 3.2107 26.6187 2 25.1225 2H8.87387C7.37767 2 6.16697 3.21431 6.16697 4.7069V12.4409L16.9982 20.1424L27.8294 12.4409ZM10.3339 5.33213H23.6661C24.125 5.33213 24.5009 5.70437 24.5009 6.16697C24.5009 6.62595 24.1287 7.00181 23.6661 7.00181H10.3339C9.87496 7.00181 9.4991 6.62956 9.4991 6.16697C9.4991 5.70437 9.87134 5.33213 10.3339 5.33213ZM9.4991 9.4991C9.4991 9.04012 9.87134 8.66426 10.3339 8.66426H18.6679C19.1269 8.66426 19.5027 9.0365 19.5027 9.4991C19.5027 9.95808 19.1305 10.3339 18.6679 10.3339H10.3339C9.87134 10.3339 9.4991 9.95808 9.4991 9.4991ZM31.7253 11.7181L18.4366 21.1652L31.7253 30.6122C31.8952 30.2761 32 29.9003 32 29.4991V12.8312C31.9964 12.4301 31.8916 12.0542 31.7253 11.7181ZM2 12.8312V29.4955C2 30.876 3.12035 31.9964 4.5009 31.9964H29.4991C29.8569 31.9964 30.193 31.9205 30.5002 31.7832L2.27467 11.7145C2.10481 12.0542 2 12.4301 2 12.8312Z" fill="#7D8086"/>
</svg>
