<svg width="32" height="32" viewBox="0 0 32 32" fill="none" xmlns="http://www.w3.org/2000/svg">
<path d="M16 0C7.16194 0 0 7.16194 0 16C0 24.8381 7.16194 32 16 32C24.8381 32 32 24.8381 32 16C32 7.16194 24.8345 0 16 0ZM25.4921 25.4921C24.2591 26.725 22.8224 27.6935 21.2249 28.369C19.5702 29.0695 17.8119 29.4233 16 29.4233C14.1881 29.4233 12.4298 29.0695 10.7751 28.369C9.17757 27.6935 7.7409 26.725 6.50793 25.4921C5.27496 24.2591 4.30645 22.8224 3.631 21.2249C2.93053 19.5702 2.57673 17.8119 2.57673 16C2.57673 14.1881 2.93053 12.4298 3.631 10.7751C4.30645 9.17757 5.27496 7.7409 6.50793 6.50793C7.7409 5.27496 9.17757 4.30646 10.7751 3.631C12.4298 2.93053 14.1881 2.57673 16 2.57673C17.8119 2.57673 19.5702 2.93053 21.2249 3.631C22.8224 4.30646 24.2591 5.27496 25.4921 6.50793C26.725 7.7409 27.6935 9.17757 28.369 10.7751C29.0695 12.4298 29.4233 14.1881 29.4233 16C29.4233 17.8119 29.0695 19.5702 28.369 21.2249C27.6971 22.8224 26.7286 24.2591 25.4921 25.4921ZM16 7.43355C13.073 7.43355 10.6929 9.74938 10.6929 12.5906C10.6929 13.3018 11.2683 13.8771 11.9795 13.8771C12.6906 13.8771 13.266 13.3018 13.266 12.5906C13.266 11.1646 14.4918 10.0067 16 10.0067C17.4831 10.0067 18.6947 11.1289 18.734 12.5227C18.5481 14.0237 18.0013 14.3703 17.1829 14.8957C16.143 15.5604 14.717 16.4717 14.717 19.413C14.717 20.1242 15.2924 20.6996 16.0036 20.6996C16.7148 20.6996 17.2901 20.1242 17.2901 19.413C17.2901 18.6768 17.4045 18.1586 17.6368 17.8226C17.8369 17.5332 18.1622 17.3259 18.5696 17.065C19.5917 16.411 20.9926 15.5175 21.3036 12.7335L21.3107 12.662V12.5906C21.3071 9.74938 18.927 7.43355 16 7.43355ZM14.7134 23.3478C14.7134 23.689 14.849 24.0162 15.0903 24.2575C15.3315 24.4988 15.6588 24.6344 16 24.6344C16.3412 24.6344 16.6685 24.4988 16.9097 24.2575C17.151 24.0162 17.2866 23.689 17.2866 23.3478C17.2866 23.0066 17.151 22.6793 16.9097 22.438C16.6685 22.1968 16.3412 22.0612 16 22.0612C15.6588 22.0612 15.3315 22.1968 15.0903 22.438C14.849 22.6793 14.7134 23.0066 14.7134 23.3478Z" fill="#FF7A00"/>
</svg>
