<svg width="33" height="32" viewBox="0 0 33 32" fill="none" xmlns="http://www.w3.org/2000/svg">
<path d="M16.5 29.3333C23.864 29.3333 29.8333 23.364 29.8333 16C29.8333 8.636 23.864 2.66667 16.5 2.66667C9.136 2.66667 3.16667 8.636 3.16667 16C3.16667 23.364 9.136 29.3333 16.5 29.3333ZM16.5 32C7.664 32 0.5 24.836 0.5 16C0.5 7.164 7.664 0 16.5 0C25.336 0 32.5 7.164 32.5 16C32.5 24.836 25.336 32 16.5 32ZM17.8333 16.7853V9.32933C17.8333 8.604 17.236 8 16.5 8C15.7587 8 15.1667 8.59467 15.1667 9.32933V17.3373C15.1655 17.5104 15.1987 17.6819 15.2641 17.8421C15.3295 18.0023 15.426 18.1479 15.548 18.2707L19.3373 22.06C19.461 22.1829 19.6076 22.2801 19.7689 22.3462C19.9302 22.4122 20.103 22.4458 20.2773 22.4449C20.4516 22.4441 20.624 22.4088 20.7846 22.3411C20.9452 22.2735 21.0909 22.1748 21.2133 22.0507C21.4617 21.8023 21.602 21.4659 21.6037 21.1146C21.6055 20.7633 21.4685 20.4255 21.2227 20.1747L17.8333 16.7853Z" fill="#FFE500"/>
</svg>
