<svg viewBox="0 0 36 36" fill="none" xmlns="http://www.w3.org/2000/svg">
<path d="M0.812571 0.812396C1.333 0.292217 2.03871 0 2.77454 0C3.51041 0 4.21624 0.292337 4.73668 0.812571L17.4432 13.519C17.5966 13.6725 17.8047 13.7587 18.0217 13.7587C18.2387 13.7587 18.4468 13.6725 18.6002 13.519L31.3014 0.817858C31.8243 0.315212 32.5233 0.0371906 33.2488 0.0434947C33.9765 0.049818 34.6726 0.341694 35.1871 0.856258C35.7017 1.37082 35.9936 2.0669 35.9999 2.79458C36.0062 3.52006 35.7282 4.21907 35.2255 4.74199L22.5243 17.4432C22.3709 17.5966 22.2847 17.8047 22.2847 18.0217C22.2847 18.2387 22.3709 18.4468 22.5243 18.6002L35.2255 31.3014C35.7282 31.8243 36.0062 32.5233 35.9999 33.2488C35.9936 33.9765 35.7017 34.6726 35.1871 35.1871C34.6726 35.7017 33.9765 35.9936 33.2488 35.9999C32.5233 36.0062 31.8243 35.7282 31.3014 35.2255L18.6002 22.5243C18.4468 22.3709 18.2387 22.2847 18.0217 22.2847C17.8047 22.2847 17.5966 22.3709 17.4432 22.5243L4.74199 35.2255C4.21907 35.7282 3.52006 36.0062 2.79458 35.9999C2.0669 35.9936 1.37082 35.7017 0.856258 35.1871C0.341694 34.6726 0.049818 33.9765 0.0434947 33.2488C0.0371906 32.5233 0.315212 31.8243 0.817858 31.3014L13.519 18.6002C13.6725 18.4468 13.7587 18.2387 13.7587 18.0217C13.7587 17.8047 13.6725 17.5966 13.519 17.4432L0.812484 4.73659C0.292249 4.21615 0 3.51041 0 2.77454C0 2.03871 0.292391 1.33283 0.812571 0.812396Z" fill="#FF284B"/>
</svg>
