<svg viewBox="0 0 64 64" fill="none" xmlns="http://www.w3.org/2000/svg">
<path d="M47.1992 40.3959C47.6127 40.7394 48.0401 41.0944 48.4596 41.514L48.4977 41.5522V45.6372H13.3477V41.5522L13.3859 41.514C13.8055 41.0942 14.2331 40.7391 14.6467 40.3955L14.6493 40.3934C16.3926 38.9458 17.8984 37.6954 17.8984 32.5046V28.3871C17.8984 22.3325 22.1522 17.0199 28.0383 15.6878C27.8022 15.2254 27.6828 14.7392 27.6828 14.2396C27.6828 12.4534 29.136 11 30.9224 11C32.7092 11 34.1627 12.4534 34.1627 14.2396C34.1627 14.7389 34.0431 15.2252 33.8071 15.6878C39.6931 17.0199 43.947 22.3325 43.947 28.3871V32.5046C43.947 37.6953 45.4526 38.9455 47.1959 40.3931L47.1992 40.3959Z" fill="#FDFDFD"/>
<path d="M30.9214 53.0002C28.3808 53.0002 26.2249 51.1822 25.7953 48.677L25.769 48.5244H36.0751L36.0489 48.677C35.6193 51.1822 33.4628 53.0002 30.9214 53.0002Z" fill="#FDFDFD"/>
</svg>
