<svg width="38" height="38" viewBox="0 0 38 38" fill="none" xmlns="http://www.w3.org/2000/svg">
<path d="M35.558 29.7563L27.6295 23.8676C27.283 23.5983 27.1676 23.098 27.3986 22.713C30.2467 17.7865 29.4769 11.3206 25.1278 7.24087C20.2013 2.58383 12.3498 2.66081 7.53878 7.43331C2.49686 12.4368 2.57383 20.5961 7.65424 25.5227C11.9264 29.6409 18.3538 30.1413 23.1265 27.1006C23.5112 26.8698 24.0116 26.9467 24.281 27.2932L30.4776 34.9907C30.593 35.1061 30.6701 35.2217 30.7855 35.3371C32.2096 36.7227 34.5574 36.7227 35.9814 35.2217C37.5594 33.6436 37.367 31.065 35.558 29.7563ZM22.6646 22.4051C19.3547 25.8691 13.8893 25.9461 10.4254 22.6361C6.99996 19.3261 6.88448 13.8608 10.1945 10.3969C13.5044 6.97147 18.9698 6.856 22.4336 10.166C25.8975 13.4759 25.9746 18.9797 22.6646 22.4051Z" fill="#7D8086"/>
</svg>
