<svg width="44" height="44" viewBox="0 0 44 44" fill="none" xmlns="http://www.w3.org/2000/svg">
<path d="M40.8556 16.6303L40.8571 16.6216V14.3652C40.8166 14.1887 40.7781 14.0119 40.7406 13.835C40.709 13.6859 40.678 13.5368 40.6471 13.3878C40.4987 12.6723 40.3506 11.9583 40.1293 11.2611C39.0197 7.71534 36.5738 5.42311 33.1615 4.14567C32.3794 3.84715 31.5537 3.67404 30.7287 3.50107C30.3328 3.41807 29.9371 3.33511 29.5464 3.23834C29.5081 3.23284 29.4672 3.21981 29.4261 3.20386C29.3937 3.19126 29.3612 3.17685 29.3297 3.16288C29.3141 3.156 29.2988 3.14922 29.2839 3.14282H26.3011C26.2081 3.15974 26.1138 3.17601 26.0187 3.19239L26.0183 3.19243C25.7112 3.24536 25.3967 3.29956 25.0961 3.3816C24.2579 3.6059 23.4198 3.84616 22.5035 4.10877L22.4955 4.11109L22.4934 4.1117L21.8747 4.28893C24.3498 6.65323 26.8009 8.99556 29.2444 11.3306L29.4172 11.4958C32.8875 14.812 36.3431 18.1143 39.831 21.4448C39.8852 21.2989 39.9364 21.1748 39.9822 21.0639C40.0676 20.8573 40.134 20.6965 40.1651 20.5255C40.4032 19.2271 40.6294 17.9287 40.8556 16.6303Z" fill="#FF284B"/>
<path d="M3.26473 26.6731L3.26158 26.6931C3.22613 26.9175 3.19065 27.1419 3.15477 27.3664C3.15477 27.9633 3.15477 28.5603 3.14282 29.1572C3.19453 29.4557 3.24093 29.7556 3.28733 30.0554L3.2875 30.0566C3.38025 30.6558 3.473 31.2549 3.60812 31.8434C4.78932 36.9651 9.17998 40.1766 13.9643 40.7497C14.0783 40.7578 14.1978 40.7882 14.3153 40.818C14.3484 40.8264 14.3814 40.8348 14.414 40.8426C14.4353 40.8477 14.4564 40.8526 14.4774 40.8571H16.7443C16.8515 40.8392 16.9557 40.8184 17.0599 40.7975L17.0611 40.7973C17.1653 40.7764 17.2695 40.7556 17.3767 40.7377C18.7129 40.487 20.0492 40.2363 21.5406 39.9617C15.7063 33.9924 10.0032 28.1663 4.21662 22.2566C4.15239 22.4709 4.08662 22.6682 4.02429 22.8552L4.0242 22.8555C3.91287 23.1895 3.81249 23.4907 3.75132 23.7967C3.56851 24.7499 3.41672 25.7107 3.26473 26.6731Z" fill="#FF284B"/>
<path d="M21.128 23.7764L21.1325 23.7721L21.5764 23.355C21.7927 23.5413 22.0301 23.7488 22.2795 23.9669L22.2805 23.9677C22.5262 24.1825 22.7836 24.4075 23.0439 24.6325C23.4496 24.9906 23.9268 25.0861 24.428 24.8951C25.2273 24.5847 25.5137 23.6415 24.9529 22.9849C24.6134 22.5929 24.223 22.2453 23.8512 21.9144C23.7136 21.7919 23.5785 21.6716 23.4496 21.5523C23.7073 21.2666 23.9584 20.9876 24.2056 20.713C24.7022 20.1611 25.1828 19.627 25.6688 19.0929C25.886 19.2852 26.0886 19.476 26.2853 19.6613L26.2859 19.6618C26.6507 20.0055 26.9952 20.33 27.3749 20.6091C28.2101 21.2299 29.4509 20.6927 29.4271 19.6898C29.4151 19.272 29.1169 18.8183 28.8305 18.4721C28.5881 18.171 28.293 17.9167 27.9903 17.656L27.99 17.6558C27.8608 17.5444 27.7301 17.4319 27.6016 17.314C27.9749 16.9756 28.3367 16.6485 28.6983 16.3217L28.72 16.3021C28.9354 16.1074 29.1508 15.9127 29.3686 15.7157C29.5258 15.5735 29.6842 15.43 29.8447 15.2845C32.8633 18.2214 35.8699 21.1464 38.8765 24.0713C37.755 26.6143 36.3352 28.9423 34.5217 31.0316C32.7678 33.0492 30.8588 34.9117 28.5919 36.3443C27.489 37.0448 26.3322 37.6605 25.1834 38.2719L25.1799 38.2738C24.9006 38.4224 24.6218 38.5708 24.3444 38.7201C24.2013 38.8037 23.8672 38.744 23.7479 38.6246C20.8128 35.6757 17.9016 32.7149 14.9904 29.7541C14.9708 29.7345 14.9547 29.7076 14.9344 29.6735C14.9176 29.6456 14.898 29.6127 14.8711 29.5751C15.3513 29.1096 15.8362 28.6488 16.3318 28.1779C16.6243 27.9 16.9204 27.6186 17.2215 27.3306C17.4058 27.4848 17.5853 27.6391 17.763 27.7919L17.7647 27.7934L17.7649 27.7935C18.1505 28.1249 18.528 28.4493 18.9277 28.7513C19.7748 29.4079 20.8844 29.0736 21.0634 28.0589C21.123 27.6768 20.9083 27.1754 20.6577 26.8411C20.3998 26.5104 20.082 26.2234 19.7595 25.932L19.7585 25.9311C19.6039 25.7915 19.4482 25.6509 19.2976 25.504C19.905 24.9251 20.5046 24.3618 21.128 23.7764Z" fill="#FF284B"/>
<path d="M14.9961 25.5024L15.1455 25.3368C15.0337 25.2249 14.9115 25.1098 14.7848 24.9905C14.4793 24.7027 14.1472 24.39 13.8689 24.0355C13.6422 23.7609 13.4513 23.3311 13.4632 22.9849C13.511 22.0537 14.6683 21.5284 15.4319 22.0895C15.8583 22.4013 16.2508 22.7639 16.6522 23.1345C16.8349 23.3032 17.0193 23.4735 17.2096 23.6415C17.642 23.2355 18.0707 22.8258 18.5184 22.3978C18.8737 22.0582 19.241 21.7071 19.6316 21.3374C19.4834 21.2128 19.347 21.103 19.218 20.9991C19.0874 20.8939 18.9643 20.7948 18.8442 20.6927C18.6056 20.4778 18.3669 20.2629 18.1522 20.0361C17.496 19.3317 17.5676 18.4482 18.2953 18.0184C18.9277 17.6483 19.5481 17.7438 20.1805 18.3408C20.4603 18.5968 20.7294 18.8635 21.0093 19.1409C21.1471 19.2775 21.2876 19.4167 21.4332 19.5585C21.8066 19.2063 22.1656 18.866 22.52 18.5301C22.9583 18.1147 23.3894 17.7061 23.8314 17.2902C23.7156 17.1854 23.6024 17.0838 23.4916 16.9843C23.1227 16.6532 22.7804 16.346 22.4593 16.0247C21.6957 15.2486 21.827 14.2458 22.7457 13.816C23.4019 13.5056 23.9507 13.7921 24.4041 14.2458C24.6611 14.503 24.8942 14.7793 25.1306 15.0597C25.2673 15.2218 25.4052 15.3853 25.5495 15.5471C26.0762 15.0421 26.549 14.5953 27.0038 14.1657C27.2908 13.8946 27.5706 13.6302 27.8522 13.3623C27.2578 12.8021 26.666 12.2445 26.0759 11.6885C23.8117 9.555 21.5741 7.44661 19.3214 5.31567C19.0745 5.44905 18.8288 5.57856 18.5848 5.70718C18.0862 5.96995 17.5948 6.22898 17.1142 6.50954C14.203 8.18095 11.7571 10.3896 9.56177 12.9206C7.85562 14.8786 6.43582 17.0156 5.30237 19.3436C5.20691 19.5227 5.20691 19.8809 5.32622 20.0002C7.76016 22.4835 10.206 24.9548 12.6758 27.4022C12.7832 27.4977 13.1173 27.5216 13.2008 27.4381C13.8078 26.8196 14.3842 26.1807 14.9961 25.5024Z" fill="#FF284B"/>
</svg>
