<svg width="40" height="40" viewBox="0 0 40 40" fill="none" xmlns="http://www.w3.org/2000/svg">
<path d="M37.9986 14.8744L38 14.8661V12.7123C37.9613 12.5438 37.9246 12.375 37.8888 12.2061C37.8586 12.0639 37.8291 11.9215 37.7996 11.7793C37.6579 11.0963 37.5165 10.4147 37.3053 9.74929C36.2461 6.36468 33.9114 4.17664 30.6542 2.95727C29.9077 2.67231 29.1195 2.50708 28.332 2.34196C27.9541 2.26274 27.5764 2.18354 27.2034 2.09117C27.1668 2.08593 27.1278 2.07349 27.0886 2.05826C27.0577 2.04624 27.0266 2.03248 26.9965 2.01914C26.9817 2.01258 26.9671 2.00611 26.9529 2H24.1057C24.0169 2.01615 23.9268 2.03168 23.836 2.04731L23.8357 2.04735C23.5425 2.09788 23.2423 2.14961 22.9554 2.22792C22.1553 2.44203 21.3553 2.67137 20.4807 2.92204L20.473 2.92426L20.471 2.92484L19.8804 3.09401C22.243 5.35085 24.5827 7.5867 26.9151 9.81563L27.0801 9.97326C30.3926 13.1388 33.6912 16.2909 37.0206 19.4701C37.0723 19.3308 37.1212 19.2124 37.1649 19.1065C37.2464 18.9093 37.3098 18.7558 37.3394 18.5926C37.5667 17.3532 37.7826 16.1138 37.9986 14.8744Z" fill="#3BC116"/>
<path d="M2.11636 24.4607L2.11336 24.4798C2.07952 24.694 2.04566 24.9083 2.0114 25.1225C2.0114 25.6923 2.0114 26.2621 2 26.8319C2.04935 27.1169 2.09365 27.4031 2.13794 27.6893L2.13811 27.6904C2.22664 28.2623 2.31517 28.8342 2.44415 29.396C3.57166 34.2849 7.76274 37.3504 12.3296 37.8974C12.4384 37.9052 12.5525 37.9342 12.6646 37.9627C12.6962 37.9707 12.7277 37.9787 12.7588 37.9862C12.7792 37.9911 12.7993 37.9957 12.8194 38H14.9832C15.0855 37.9829 15.185 37.963 15.2844 37.9431L15.2856 37.9429C15.3851 37.923 15.4845 37.9031 15.5868 37.886C16.8624 37.6467 18.1379 37.4074 19.5615 37.1453C13.9924 31.4473 8.54856 25.886 3.02499 20.245C2.96368 20.4495 2.9009 20.6379 2.8414 20.8164L2.84131 20.8166C2.73504 21.1354 2.63923 21.4229 2.58084 21.7151C2.40634 22.6249 2.26145 23.5421 2.11636 24.4607Z" fill="#3BC116"/>
<path d="M19.1676 21.6957L19.172 21.6916L19.5957 21.2935C19.8021 21.4713 20.0287 21.6694 20.2669 21.8775L20.2678 21.8783C20.5023 22.0833 20.748 22.2981 20.9965 22.5128C21.3837 22.8547 21.8393 22.9459 22.3176 22.7635C23.0807 22.4672 23.354 21.567 22.8187 20.9402C22.4946 20.5659 22.1219 20.2342 21.7671 19.9183C21.6357 19.8014 21.5068 19.6866 21.3837 19.5727C21.6297 19.3 21.8694 19.0337 22.1053 18.7715C22.5794 18.2447 23.0382 17.7349 23.5021 17.2251C23.7094 17.4086 23.9028 17.5908 24.0905 17.7676L24.0911 17.7682C24.4394 18.0962 24.7682 18.4059 25.1307 18.6724C25.9279 19.265 27.1123 18.7522 27.0895 17.7949C27.0781 17.396 26.7934 16.963 26.5201 16.6325C26.2887 16.3451 26.007 16.1024 25.718 15.8535L25.7178 15.8532C25.5944 15.747 25.4697 15.6396 25.347 15.5271C25.7033 15.204 26.0487 14.8918 26.3939 14.5798L26.4146 14.5611C26.6202 14.3753 26.8258 14.1894 27.0337 14.0014C27.1837 13.8656 27.3349 13.7287 27.4881 13.5898C30.3695 16.3932 33.2395 19.1852 36.1094 21.9772C35.0389 24.4046 33.6836 26.6268 31.9525 28.6211C30.2784 30.547 28.4562 32.3248 26.2923 33.6923C25.2396 34.361 24.1353 34.9487 23.0387 35.5323L23.0354 35.5341C22.7688 35.676 22.5027 35.8176 22.2379 35.9601C22.1012 36.0399 21.7823 35.9829 21.6684 35.869C18.8668 33.0541 16.0879 30.2279 13.3091 27.4017C13.2903 27.3829 13.275 27.3573 13.2556 27.3248C13.2396 27.2981 13.2209 27.2667 13.1952 27.2308C13.6536 26.7865 14.1164 26.3466 14.5895 25.8972C14.8686 25.6319 15.1514 25.3632 15.4388 25.0883C15.6146 25.2356 15.786 25.3828 15.9556 25.5286L15.9573 25.5301L15.9574 25.5302C16.3256 25.8465 16.6858 26.1562 17.0674 26.4445C17.876 27.0712 18.9351 26.7521 19.106 25.7835C19.1629 25.4188 18.9579 24.9402 18.7188 24.6211C18.4726 24.3055 18.1692 24.0314 17.8613 23.7533L17.8604 23.7525C17.7128 23.6192 17.5643 23.4849 17.4204 23.3447C18.0002 22.7922 18.5726 22.2545 19.1676 21.6957Z" fill="#3BC116"/>
<path d="M13.3145 23.3432L13.4571 23.1852C13.3503 23.0783 13.2338 22.9685 13.1128 22.8546C12.8211 22.5799 12.5042 22.2814 12.2385 21.943C12.0221 21.6809 11.8399 21.2707 11.8513 20.9402C11.8969 20.0513 13.0016 19.5499 13.7305 20.0855C14.1375 20.3831 14.5122 20.7292 14.8953 21.083C15.0697 21.244 15.2458 21.4066 15.4274 21.567C15.8401 21.1794 16.2493 20.7883 16.6767 20.3798C17.0158 20.0556 17.3664 19.7205 17.7393 19.3675C17.5979 19.2486 17.4677 19.1438 17.3445 19.0446C17.2198 18.9442 17.1023 18.8496 16.9877 18.7522C16.7599 18.547 16.5321 18.3419 16.3271 18.1254C15.7007 17.453 15.7691 16.6097 16.4638 16.1994C17.0674 15.8462 17.6596 15.9373 18.2632 16.5071C18.5303 16.7515 18.7872 17.0061 19.0544 17.2709C19.1859 17.4013 19.32 17.5342 19.459 17.6695C19.8154 17.3333 20.1582 17.0084 20.4964 16.6879C20.9148 16.2913 21.3263 15.9013 21.7482 15.5043C21.6377 15.4043 21.5296 15.3073 21.4238 15.2123C21.0717 14.8963 20.745 14.603 20.4385 14.2963C19.7096 13.5556 19.8349 12.5983 20.7118 12.188C21.3382 11.8917 21.8621 12.1653 22.2948 12.5983C22.5402 12.8438 22.7626 13.1076 22.9883 13.3752C23.1189 13.5299 23.2505 13.686 23.3882 13.8405C23.8909 13.3584 24.3423 12.9319 24.7764 12.5218C25.0504 12.263 25.3174 12.0107 25.5862 11.755C25.0189 11.2203 24.4539 10.6879 23.8907 10.1573C21.7293 8.12071 19.5935 6.10816 17.4432 4.07408C17.2075 4.2014 16.9729 4.32503 16.74 4.44779C16.2642 4.69862 15.7951 4.94588 15.3363 5.21368C12.5574 6.80913 10.2227 8.91739 8.12718 11.3333C6.49857 13.2023 5.14332 15.2422 4.06138 17.4644C3.97027 17.6353 3.97027 17.9772 4.08416 18.0912C6.40746 20.4616 8.74216 22.8205 11.0997 25.1567C11.2022 25.2479 11.521 25.2707 11.6008 25.1909C12.1802 24.6005 12.7304 23.9907 13.3145 23.3432Z" fill="#3BC116"/>
</svg>
