<svg width="44" height="44" viewBox="0 0 44 44" fill="none" xmlns="http://www.w3.org/2000/svg">
<path d="M34.8102 18.9425C36.4867 19.3404 38.1632 19.7174 39.8397 20.0943C40.8456 20.3247 40.9504 21.0995 40.8037 21.7487C40.6256 22.6597 40.437 23.5654 40.2484 24.4711C40.0597 25.3768 39.8711 26.2826 39.693 27.1936C39.5882 27.738 39.3158 28.0941 38.75 28.2825C32.4004 30.3976 26.0503 32.5128 19.7216 34.6488C19.4073 34.7535 19.072 34.9629 18.8205 35.1933C18.4797 35.4946 18.1553 35.8204 17.837 36.1401C17.6465 36.3315 17.4581 36.5207 17.2697 36.7011L7.29453 26.7328C7.29453 26.7328 7.29453 26.7119 7.31549 26.7119C9.04561 25.4915 9.64886 23.6191 10.2581 21.7281C10.2762 21.6721 10.2942 21.6162 10.3122 21.5602C11.2611 18.6358 12.2348 15.7113 13.2097 12.7835C14.022 10.344 14.8351 7.90221 15.6351 5.45608C15.9285 4.57653 16.5572 4.34617 17.3326 4.19958C19.2606 3.86451 21.1886 3.52944 23.1166 3.17343C24.1225 3.0059 24.7302 3.52944 24.8559 4.66029C24.9035 5.1439 24.9601 5.6245 25.0167 6.10437C25.1094 6.89209 25.202 7.67784 25.2541 8.47168C25.2751 8.80675 25.1493 9.20464 24.9607 9.47689C21.1467 14.5867 17.3117 19.6964 13.4138 24.8272C13.1628 25.1448 12.9252 25.4625 12.6796 25.7908C12.6176 25.8737 12.5551 25.9573 12.4917 26.0418C12.7641 26.3035 13.0313 26.5705 13.3011 26.8402C13.5709 27.1098 13.8434 27.382 14.1263 27.6543C15.0275 26.4605 15.9286 25.2616 16.8298 24.0626C17.7309 22.8637 18.632 21.6649 19.533 20.4713C20.6961 18.9216 21.8592 17.3666 23.0223 15.8117C24.1854 14.2568 25.3484 12.7019 26.5115 11.1522C26.7657 10.8134 27.0886 10.872 27.4023 10.9289C27.4765 10.9424 27.5501 10.9557 27.6222 10.9637C28.1344 11.0103 28.6467 11.0734 29.159 11.1364C29.7993 11.2153 30.4396 11.2942 31.08 11.3407C32.0439 11.4245 32.5679 11.948 32.6517 12.9113C32.7145 13.5898 32.8 14.2684 32.8855 14.9469C32.9426 15.3992 32.9995 15.8515 33.0498 16.3039C33.1127 16.6808 33.0918 16.974 32.6936 17.2672C29.3681 19.7903 26.054 22.336 22.7429 24.8794C21.5469 25.7981 20.3514 26.7165 19.1558 27.6333C18.2337 28.3454 17.3117 29.0574 16.3477 29.8113C16.6228 30.0757 16.8926 30.3401 17.1652 30.6071C17.4324 30.8689 17.7022 31.1333 17.9823 31.4028C18.6948 30.8793 19.4073 30.3348 20.1408 29.7694C21.7438 28.5339 23.3522 27.2984 24.9605 26.0629C26.569 24.8273 28.1774 23.5916 29.7807 22.356C30.1799 22.0509 30.5809 21.7474 30.9821 21.4438C32.0127 20.6636 33.0451 19.8822 34.0557 19.0682C34.3491 18.8378 34.5377 18.8797 34.8102 18.9425Z" fill="#7D8086"/>
<path d="M9.34832 40.785C6.33061 40.3871 4.33976 38.5861 3.43864 35.6961C2.62134 33.0365 3.54342 30.1466 5.63905 28.4503L15.5933 38.3976C13.9378 40.2824 11.8002 41.12 9.34832 40.785Z" fill="#7D8086"/>
</svg>
