<svg width="40" height="40" viewBox="0 0 40 40" fill="none" xmlns="http://www.w3.org/2000/svg">
<path d="M32.2279 17.0817C33.8282 17.4615 35.4285 17.8213 37.0288 18.1812C37.989 18.4011 38.089 19.1407 37.949 19.7604C37.779 20.6299 37.5989 21.4944 37.4189 22.3589C37.2389 23.2235 37.0588 24.0881 36.8888 24.9577C36.7888 25.4774 36.5287 25.8173 35.9886 25.9972C29.9277 28.0161 23.8662 30.0352 17.8252 32.0741C17.5252 32.174 17.2051 32.3739 16.9651 32.5938C16.6398 32.8814 16.3301 33.1924 16.0263 33.4976C15.8444 33.6803 15.6646 33.8609 15.4848 34.0331L5.963 24.5179C5.963 24.5179 5.963 24.4979 5.983 24.4979C7.63448 23.333 8.2103 21.5458 8.79189 19.7406C8.80909 19.6873 8.8263 19.6339 8.84354 19.5805C9.74923 16.7889 10.6787 13.9974 11.6093 11.2026C12.3847 8.87406 13.1608 6.54324 13.9245 4.20829C14.2045 3.36872 14.8047 3.14883 15.5448 3.0089C17.3851 2.68907 19.2255 2.36923 21.0658 2.0294C22.026 1.86948 22.6061 2.36923 22.7261 3.44868C22.7716 3.9103 22.8256 4.36905 22.8796 4.82711C22.9681 5.57903 23.0565 6.32906 23.1062 7.08682C23.1262 7.40666 23.0062 7.78647 22.8262 8.04633C19.1855 12.9238 15.5248 17.8014 11.8041 22.6989C11.5645 23.0021 11.3377 23.3053 11.1033 23.6187C11.0441 23.6979 10.9844 23.7777 10.9239 23.8583C11.184 24.1081 11.439 24.363 11.6966 24.6204C11.9541 24.8777 12.2142 25.1376 12.4842 25.3975C13.3444 24.258 14.2046 23.1135 15.0649 21.969C15.925 20.8247 16.7851 19.6803 17.6452 18.541C18.7554 17.0617 19.8656 15.5774 20.9759 14.0932C22.0861 12.609 23.1962 11.1247 24.3064 9.64552C24.5492 9.32212 24.8573 9.37804 25.1568 9.43238C25.2276 9.44522 25.2978 9.45797 25.3666 9.46561C25.8556 9.51003 26.3446 9.57025 26.8336 9.63046C27.4448 9.70573 28.056 9.781 28.6673 9.82543C29.5874 9.90538 30.0875 10.4051 30.1675 11.3247C30.2276 11.9723 30.3092 12.62 30.3908 13.2677C30.4452 13.6995 30.4996 14.1312 30.5476 14.563C30.6076 14.9228 30.5876 15.2027 30.2075 15.4825C27.0333 17.891 23.8698 20.321 20.7091 22.7488C19.5676 23.6257 18.4263 24.5023 17.2851 25.3775C16.405 26.0571 15.5248 26.7368 14.6046 27.4564C14.8673 27.7088 15.1248 27.9612 15.385 28.2161C15.64 28.466 15.8976 28.7184 16.1649 28.9757C16.845 28.4759 17.5252 27.9562 18.2253 27.4165C19.7555 26.2371 21.2907 25.0578 22.826 23.8784C24.3613 22.699 25.8967 21.5195 27.427 20.3401C27.8082 20.0488 28.1909 19.7591 28.5738 19.4693C29.5576 18.7246 30.5431 17.9787 31.5078 17.2017C31.7878 16.9818 31.9679 17.0218 32.2279 17.0817Z" fill="#798D9F"/>
<path d="M7.92343 37.9313C5.04289 37.5515 3.14253 35.8324 2.28237 33.0738C1.50222 30.5351 2.38239 27.7765 4.38276 26.1573L13.8846 35.6525C12.3043 37.4516 10.2639 38.2512 7.92343 37.9313Z" fill="#798D9F"/>
</svg>
