<svg width="40" height="40" viewBox="0 0 40 40" fill="none" xmlns="http://www.w3.org/2000/svg">
<path d="M34.8553 9.94282C33.5232 10.7261 32.2122 11.5096 30.88 12.3142C31.1549 13.2035 30.9435 13.7963 30.2668 14.0504C29.7171 14.2621 29.1673 13.9235 28.7867 13.14C27.4545 13.4577 26.1012 13.7752 24.7691 14.0929C24.6211 15.0245 24.325 15.4055 23.6907 15.4691C23.0986 15.5114 22.8026 15.2361 22.4643 14.4104C21.7256 14.3441 20.9985 14.2722 20.2738 14.2005C19.6086 14.1347 18.9455 14.0689 18.2775 14.0082C17.9604 13.9657 17.7912 14.0715 17.6855 14.4104C17.4951 15.0667 16.9665 15.3844 16.4379 15.2572C15.8247 15.1092 15.5498 14.7067 15.5921 13.9657L15.5924 13.9624C15.6134 13.7094 15.6327 13.4781 15.2749 13.3516C14.5391 13.1111 13.8139 12.8385 13.0843 12.5642L12.6153 12.3881C12.4731 12.3351 12.3306 12.2821 12.1877 12.2295C11.4054 12.8858 11.0036 13.013 10.5384 12.7378C10.0309 12.42 9.90405 11.9754 10.1366 11.1496C9.51269 10.6625 8.88345 10.1807 8.25421 9.69881L8.20782 9.66317C7.5944 9.19342 6.98109 8.72389 6.3728 8.24886C1.95347 13.0977 0.579048 21.186 3.66624 27.5169C5.52699 26.4793 7.38777 25.4419 9.24856 24.3831C9.05825 23.5151 9.22741 22.9857 9.86176 22.7739C10.0732 22.6894 10.4115 22.6469 10.5596 22.7527C10.8181 22.9508 11.0438 23.2033 11.276 23.4634L11.2776 23.4654C11.3678 23.5664 11.459 23.6685 11.5534 23.769L14.8731 23.1552C14.8836 23.092 14.8941 23.0238 14.9046 22.9503L14.9209 22.8324L14.9366 22.7105C15 22.16 15.3384 21.8212 15.867 21.7576C16.3533 21.7153 16.9454 22.0328 16.9877 22.5411C17.0474 23.0194 17.2947 23.0473 17.6235 23.0845L17.6855 23.0916C19.0176 23.1974 20.3709 23.3032 21.7665 23.4304C21.9356 22.8799 22.3163 22.3717 23.0775 22.52C23.9867 22.6894 23.9867 23.4304 23.9656 24.0656C24.5327 24.3129 25.0918 24.5523 25.6448 24.7888L25.6912 24.8086L25.7057 24.8146C26.4103 25.1162 27.1048 25.4135 27.7929 25.7171C28.258 24.8066 28.7232 24.5525 29.3787 24.8278C30.0765 25.1241 30.1399 25.5688 29.7171 26.8606L30.1462 27.2485C31.5218 28.4916 32.8801 29.7193 34.221 30.947C39.8033 23.8962 38.4923 14.5373 34.8553 9.94282Z" fill="#798D9F"/>
<path d="M28.5752 29.2531C27.8563 29.973 27.4968 30.0999 26.947 29.74C26.2704 29.2953 26.3761 28.6601 26.6933 27.9827C25.7981 27.586 24.9169 27.2036 24.0155 26.8124L24.0138 26.8117L23.3947 26.5428C23.2255 27.3261 22.9929 27.9827 22.1259 27.9402C21.8722 27.9191 21.4704 27.7285 21.3859 27.5169C21.2437 27.1688 21.1842 26.7855 21.1191 26.3668C21.097 26.2249 21.0743 26.0788 21.0475 25.9288C19.9764 25.8256 18.7847 25.7024 17.59 25.5787L17.4952 25.5688C17.326 26.797 17.0088 27.2839 16.4379 27.305C15.7401 27.3261 15.3806 26.8817 15.1481 25.6958C14.1542 25.8865 13.1604 26.0771 12.1454 26.2676C12.3146 27.0509 12.3569 27.7285 11.5322 28.0249C11.2996 28.1096 10.9402 28.1096 10.7499 28.0038C10.529 27.8564 10.3491 27.6474 10.1531 27.4196C10.0677 27.3204 9.9792 27.2174 9.88291 27.1145C9.0371 27.2628 6.20364 28.8931 5.12525 29.9305C5.14821 29.9765 5.16562 30.017 5.1815 30.0537C5.20951 30.1189 5.23278 30.173 5.27326 30.2269C6.4151 31.8573 7.76839 33.276 9.37542 34.4828C12.1031 36.4945 15.1481 37.659 18.5101 37.9343C21.7876 38.2095 24.9382 37.6166 27.9197 36.1767C29.5267 35.3935 30.9435 34.377 32.2968 33.2124C32.5334 32.9952 32.4206 32.87 32.2672 32.6995L32.2333 32.6619C31.1338 31.3704 29.9285 30.2269 28.5752 29.2531Z" fill="#798D9F"/>
<path d="M12.9701 7.8042C12.3992 7.69837 12.0186 7.99474 11.8283 8.4394C11.5956 8.9899 11.3419 8.8416 11.0459 8.58748C10.5163 8.1899 9.98667 7.78528 9.45315 7.37758C9.04943 7.0691 8.64346 6.75909 8.23358 6.44908C15.0635 0.308696 26.4396 0.287574 33.354 7.86756C32.6568 8.29199 31.9683 8.71641 31.2773 9.14083C30.8996 9.37296 30.5211 9.60486 30.1399 9.83677C29.6959 8.90519 29.2096 8.54523 28.5964 8.7569C27.6237 9.09573 27.7929 9.90035 27.9832 10.705C27.0951 10.9114 26.2427 11.1177 25.3902 11.3241L24.5365 11.5307C24.3673 10.4086 23.9233 9.90035 23.2678 9.90035C22.6546 9.90035 22.3585 10.4084 22.2317 11.6577C22.0281 11.6577 21.8221 11.6623 21.6153 11.6671C21.1995 11.6766 20.7805 11.6861 20.3709 11.6577C19.8054 11.62 19.2567 11.5488 18.6799 11.4737L18.4678 11.446C18.5313 10.705 18.489 9.96394 17.6009 9.79452C16.7339 9.6251 16.4591 10.2814 16.2264 10.9802C15.3172 10.6414 14.4291 10.3026 13.6044 10.0062C13.6372 9.87483 13.6729 9.7492 13.7073 9.62774C13.806 9.27901 13.895 8.96504 13.8793 8.65107C13.8371 8.18528 13.4564 7.88891 12.9701 7.8042Z" fill="#798D9F"/>
</svg>
