<svg width="44" height="44" viewBox="0 0 44 44" fill="none" xmlns="http://www.w3.org/2000/svg">
<path d="M37.5627 11.4641C36.1671 12.2847 34.7937 13.1055 33.3981 13.9485C33.6861 14.8801 33.4645 15.5011 32.7557 15.7673C32.1797 15.9891 31.6038 15.6343 31.2051 14.8135C29.8095 15.1464 28.3917 15.479 26.9961 15.8118C26.8411 16.7877 26.531 17.187 25.8664 17.2536C25.2461 17.2978 24.936 17.0095 24.5816 16.1444C23.8078 16.075 23.046 15.9997 22.2868 15.9245C21.5899 15.8556 20.8952 15.7867 20.1955 15.7231C19.8632 15.6786 19.686 15.7895 19.5752 16.1444C19.3758 16.832 18.8221 17.1648 18.2682 17.0316C17.6258 16.8765 17.3378 16.4549 17.3822 15.6786L17.3825 15.6751C17.4045 15.4101 17.4247 15.1678 17.0499 15.0353C16.279 14.7833 15.5193 14.4977 14.7549 14.2103L14.2637 14.0259C14.1147 13.9704 13.9654 13.9148 13.8157 13.8597C12.9961 14.5473 12.5752 14.6805 12.0878 14.3922C11.5562 14.0593 11.4233 13.5935 11.6669 12.7284C11.0133 12.2181 10.3541 11.7133 9.69485 11.2085L9.64625 11.1712C9.00362 10.679 8.3611 10.1872 7.72385 9.68951C3.09407 14.7693 1.65421 23.2427 4.8884 29.8751C6.83776 28.788 8.78716 27.7012 10.7365 26.5921C10.5372 25.6827 10.7144 25.1281 11.3789 24.9062C11.6005 24.8177 11.9549 24.7732 12.11 24.884C12.3808 25.0915 12.6173 25.3561 12.8605 25.6286L12.8623 25.6306C12.9567 25.7364 13.0522 25.8434 13.1511 25.9487L16.629 25.3056C16.64 25.2395 16.651 25.168 16.662 25.091L16.679 24.9675L16.6954 24.8398C16.7619 24.2631 17.1163 23.9081 17.6701 23.8415C18.1796 23.7972 18.7999 24.1299 18.8442 24.6623C18.9068 25.1634 19.1658 25.1927 19.5103 25.2316L19.5752 25.239C20.9708 25.3499 22.3885 25.4608 23.8505 25.594C24.0278 25.0173 24.4265 24.4848 25.224 24.6402C26.1765 24.8177 26.1765 25.594 26.1544 26.2594C26.7485 26.5185 27.3342 26.7693 27.9136 27.0171L27.9622 27.0378L27.9774 27.0441C28.7155 27.3601 29.443 27.6715 30.1639 27.9896C30.6513 27.0358 31.1386 26.7695 31.8253 27.0579C32.5563 27.3684 32.6228 27.8342 32.1797 29.1875L32.6293 29.5938C34.0704 30.8962 35.4934 32.1824 36.8981 33.4685C42.7463 26.082 41.3728 16.2774 37.5627 11.4641Z" fill="#FF284B"/>
<path d="M30.9835 31.6939C30.2303 32.4481 29.8538 32.5811 29.2778 32.204C28.569 31.7382 28.6797 31.0727 29.012 30.363C28.0742 29.9474 27.151 29.5468 26.2066 29.137L26.2049 29.1363L25.5563 28.8546C25.3791 29.6752 25.1354 30.363 24.2271 30.3185C23.9613 30.2964 23.5404 30.0968 23.4518 29.8751C23.3029 29.5104 23.2405 29.1089 23.1723 28.6702C23.1492 28.5216 23.1254 28.3685 23.0974 28.2113C21.9752 28.1032 20.7268 27.9741 19.4752 27.8446L19.3759 27.8342C19.1986 29.1209 18.8664 29.631 18.2682 29.6531C17.5372 29.6752 17.1606 29.2096 16.917 27.9672C15.8758 28.1671 14.8347 28.3667 13.7714 28.5663C13.9486 29.3869 13.9929 30.0968 13.129 30.4073C12.8853 30.496 12.5087 30.496 12.3093 30.3852C12.078 30.2307 11.8895 30.0117 11.6842 29.7732C11.5947 29.6692 11.502 29.5613 11.4011 29.4535C10.515 29.6088 7.54663 31.3168 6.41689 32.4036C6.44095 32.4518 6.45919 32.4942 6.47582 32.5327C6.50517 32.6009 6.52954 32.6577 6.57195 32.7141C7.76816 34.4221 9.1859 35.9084 10.8695 37.1727C13.7271 39.2801 16.917 40.5002 20.4391 40.7885C23.8727 41.0769 27.1734 40.4557 30.2968 38.9473C31.9804 38.1267 33.4646 37.0618 34.8823 35.8418C35.1302 35.6143 35.0121 35.4831 34.8513 35.3045L34.8158 35.2651C33.6639 33.912 32.4013 32.7141 30.9835 31.6939Z" fill="#FF284B"/>
<path d="M14.6353 9.22367C14.0372 9.1128 13.6385 9.42329 13.4391 9.88913C13.1954 10.4658 12.9296 10.3105 12.6195 10.0443C12.0647 9.62774 11.5098 9.20385 10.9509 8.77673C10.5279 8.45357 10.1026 8.1288 9.67324 7.80402C16.8283 1.37124 28.7462 1.34911 35.9899 9.29005C35.2594 9.73469 34.5382 10.1793 33.8143 10.624C33.4186 10.8671 33.0221 11.1101 32.6228 11.353C32.1576 10.3771 31.6481 9.99999 31.0057 10.2217C29.9867 10.5767 30.1639 11.4196 30.3633 12.2626C29.4329 12.4788 28.5399 12.695 27.6469 12.9112L26.7525 13.1276C26.5753 11.9521 26.1101 11.4196 25.4234 11.4196C24.7809 11.4196 24.4708 11.9519 24.3379 13.2606C24.1246 13.2606 23.9088 13.2655 23.6922 13.2706C23.2566 13.2805 22.8176 13.2904 22.3885 13.2606C21.7961 13.2212 21.2213 13.1465 20.617 13.0679L20.3949 13.0389C20.4613 12.2626 20.417 11.4863 19.4866 11.3088C18.5784 11.1313 18.2904 11.8189 18.0467 12.5509C17.0942 12.196 16.1638 11.841 15.2999 11.5305C15.3342 11.3929 15.3715 11.2613 15.4076 11.1341C15.5111 10.7687 15.6043 10.4398 15.5879 10.1109C15.5435 9.6229 15.1448 9.31242 14.6353 9.22367Z" fill="#FF284B"/>
</svg>
