<svg width="40" height="40" viewBox="0 0 40 40" fill="none" xmlns="http://www.w3.org/2000/svg">
<path d="M30.2557 14.5276C30.776 12.1043 31.8766 10.1015 34.2979 9.04006C30.5159 3.9931 24.4125 1.83013 20.1101 2.01037C22.8716 5.49517 23.6721 9.64088 24.1923 13.8266C25.0105 13.922 25.8191 14.0143 26.622 14.1059C27.8421 14.245 29.0489 14.3827 30.2557 14.5276Z" fill="#798D9F"/>
<path d="M18.2124 14.1255C17.1847 14.2112 16.1521 14.2973 15.1073 14.3874C13.8666 10.0615 10.6448 8.45925 6.34241 8.23894L6.43855 8.1277L6.50597 8.04949C6.69856 7.82607 6.87454 7.62194 7.06283 7.41781C9.70428 4.75415 12.9061 3.0518 16.5881 2.29075C16.7882 2.2507 17.0884 2.3308 17.2685 2.45098C18.7893 3.4924 19.6298 5.03453 20.3102 6.69681C21.2307 8.97996 21.7309 11.3833 21.9711 13.8066C20.7215 13.9163 19.4779 14.02 18.2271 14.1242L18.2124 14.1255Z" fill="#798D9F"/>
<path d="M17.8288 37.8998C21.1106 31.0103 22.3914 23.7403 22.1712 16.1498L22.102 16.1298C22.0099 16.1031 21.9638 16.0898 21.9311 16.0898C20.8936 16.1696 19.8611 16.2545 18.8286 16.3393L18.8194 16.3401C17.7838 16.4252 16.7482 16.5103 15.7076 16.5904C15.4075 16.6105 15.3274 16.7707 15.3274 17.0511C15.2474 19.2741 14.507 21.2769 13.4063 23.1795C11.6854 26.1436 9.26405 28.4067 6.38247 30.2292C6.23082 30.3343 6.07917 30.4325 5.91966 30.5359L5.91688 30.5377L5.91013 30.5421C5.84877 30.5818 5.78624 30.6223 5.72204 30.6643C5.66981 30.6984 5.61656 30.7335 5.56199 30.77C8.72376 34.7955 12.766 37.1588 17.8288 37.8998Z" fill="#798D9F"/>
<path d="M24.3924 16.1699C24.5726 23.7803 23.3719 31.0704 20.2101 37.9999C27.174 38.02 33.7977 33.5738 36.3591 27.4454C33.2374 24.5614 30.6959 21.337 30.1757 16.9109C28.2746 16.4703 26.3736 16.1899 24.3924 16.1699Z" fill="#798D9F"/>
<path d="M13.1662 17.0311C12.3858 22.6788 8.86383 26.1236 4.36132 28.9274C2.78041 26.1236 2.02003 23.1395 2 19.9551C5.62203 18.8135 9.28403 17.732 13.1662 17.0311Z" fill="#798D9F"/>
<path d="M7.53306 16.0697C9.31403 15.6141 11.095 15.1585 12.886 14.7079C12.4258 13.1457 11.4853 11.9841 10.0244 11.2631C8.3635 10.442 6.60256 10.4019 4.80156 10.5822C4.7015 10.6022 4.56139 10.7424 4.50139 10.8626C3.54085 12.4848 2.84046 14.2272 2.4202 16.0697C2.34208 16.3695 2.29782 16.6693 2.25439 16.9635L2.25424 16.9644C2.23099 17.122 2.20798 17.278 2.18008 17.4316C3.97107 16.981 5.75209 16.5254 7.53306 16.0697Z" fill="#798D9F"/>
<path d="M32.4969 17.5518C34.458 18.1726 36.199 19.0538 37.8199 20.1153C37.92 20.1754 38 20.3556 38 20.4758C37.98 22.058 37.6998 23.6001 37.2196 25.2223C34.9783 23.0593 33.1973 20.6961 32.4969 17.5518Z" fill="#798D9F"/>
<path d="M34.0378 11.8038C33.0773 12.7051 32.617 13.8467 32.4569 15.0884C34.2549 15.8481 36.033 16.6079 37.811 17.3876C37.8108 17.3958 37.813 17.3985 37.8199 17.3915C37.8169 17.3903 37.814 17.3889 37.811 17.3876C37.8114 17.3723 37.8199 17.3376 37.8199 17.3114C37.5397 15.4689 36.9594 13.7065 36.139 12.0242C35.5987 10.9226 35.2985 10.8425 34.2979 11.5835C34.2179 11.6436 34.1179 11.7237 34.0378 11.8038Z" fill="#798D9F"/>
</svg>
