<svg width="44" height="44" viewBox="0 0 44 44" fill="none" xmlns="http://www.w3.org/2000/svg">
<path d="M32.744 16.267C33.2891 13.7283 34.4421 11.6301 36.9788 10.5181C33.0166 5.23083 26.6225 2.96486 22.1153 3.15368C25.0083 6.80443 25.8469 11.1476 26.3919 15.5326C27.249 15.6326 28.0962 15.7292 28.9373 15.8251C30.2155 15.9709 31.4797 16.1151 32.744 16.267Z" fill="#7D8086"/>
<path d="M20.1273 15.8457C19.0506 15.9355 17.9688 16.0257 16.8743 16.1201C15.5745 11.5882 12.1993 9.90966 7.69201 9.67885L7.79273 9.56232L7.86337 9.48039C8.06512 9.24632 8.24948 9.03247 8.44673 8.81863C11.214 6.02812 14.5682 4.24471 18.4256 3.44741C18.6352 3.40546 18.9497 3.48938 19.1384 3.61527C20.7316 4.70629 21.6121 6.32185 22.3249 8.06329C23.2892 10.4552 23.8133 12.9729 24.0649 15.5116C22.7558 15.6266 21.453 15.7352 20.1426 15.8444L20.1273 15.8457Z" fill="#7D8086"/>
<path d="M19.7254 40.7521C23.1635 33.5346 24.5052 25.9184 24.2746 17.9665L24.2021 17.9455C24.1055 17.9175 24.0573 17.9035 24.023 17.9035C22.9361 17.9872 21.8545 18.0761 20.7728 18.165L20.7631 18.1658C19.6782 18.255 18.5934 18.3441 17.5032 18.428C17.1887 18.449 17.1049 18.6169 17.1049 18.9106C17.021 21.2395 16.2453 23.3377 15.0923 25.3309C13.2894 28.4361 10.7528 30.807 7.73398 32.7163C7.57511 32.8263 7.41624 32.9293 7.24913 33.0375L7.24622 33.0395L7.23915 33.0441C7.17487 33.0857 7.10936 33.1281 7.0421 33.1721C6.98739 33.2079 6.9316 33.2446 6.87443 33.2828C10.1868 37.5 14.4215 39.9758 19.7254 40.7521Z" fill="#7D8086"/>
<path d="M26.6016 17.9874C26.7903 25.9603 25.5324 33.5975 22.2201 40.857C29.5156 40.878 36.4547 36.2202 39.1381 29.7999C35.8677 26.7786 33.2052 23.4006 32.6602 18.7638C30.6686 18.3022 28.677 18.0084 26.6016 17.9874Z" fill="#7D8086"/>
<path d="M14.8408 18.8896C14.0231 24.8064 10.3335 28.4151 5.61659 31.3525C3.9604 28.4151 3.16381 25.2889 3.14282 21.9529C6.93733 20.757 10.7737 19.624 14.8408 18.8896Z" fill="#7D8086"/>
<path d="M8.93936 17.8825C10.8051 17.4052 12.671 16.9279 14.5472 16.4558C14.0651 14.8193 13.0798 13.6024 11.5494 12.847C9.80935 11.9868 7.96455 11.9448 6.07779 12.1337C5.97297 12.1547 5.82618 12.3015 5.76333 12.4274C4.75704 14.1269 4.0233 15.9523 3.58304 17.8825C3.5012 18.1966 3.45483 18.5106 3.40933 18.8189L3.40917 18.8198C3.38481 18.9849 3.3607 19.1484 3.33148 19.3093C5.20775 18.8372 7.07358 18.3599 8.93936 17.8825Z" fill="#7D8086"/>
<path d="M35.092 19.4351C37.1465 20.0856 38.9703 21.0087 40.6685 22.1207C40.7733 22.1837 40.8571 22.3725 40.8571 22.4984C40.8361 24.1559 40.5426 25.7715 40.0395 27.471C37.6915 25.205 35.8257 22.7292 35.092 19.4351Z" fill="#7D8086"/>
<path d="M36.7062 13.4135C35.7 14.3577 35.2178 15.5536 35.0501 16.8545C36.9337 17.6504 38.7964 18.4464 40.6591 19.2632C40.6589 19.2718 40.6612 19.2746 40.6685 19.2673C40.6653 19.2659 40.6623 19.2646 40.6591 19.2632C40.6595 19.2471 40.6685 19.2108 40.6685 19.1834C40.3749 17.2531 39.767 15.4067 38.9074 13.6443C38.3414 12.4904 38.027 12.4064 36.9788 13.1827C36.8949 13.2457 36.7901 13.3296 36.7062 13.4135Z" fill="#7D8086"/>
</svg>
