<svg width="44" height="44" viewBox="0 0 44 44" fill="none" xmlns="http://www.w3.org/2000/svg">
<path fill-rule="evenodd" clip-rule="evenodd" d="M41.3807 22C41.3807 32.4145 32.938 40.8571 22.5235 40.8571C12.109 40.8571 3.66638 32.4145 3.66638 22C3.66638 11.5855 12.109 3.14282 22.5235 3.14282C32.938 3.14282 41.3807 11.5855 41.3807 22ZM34.1969 22.0002C34.1969 28.4473 28.9705 33.6737 22.5234 33.6737C16.0764 33.6737 10.85 28.4473 10.85 22.0002C10.85 15.5531 16.0764 10.3267 22.5234 10.3267C28.9705 10.3267 34.1969 15.5531 34.1969 22.0002ZM26.2024 15.2472C25.2776 14.3541 24.0513 13.9185 22.5234 13.9185C20.9755 13.9185 19.7492 14.3541 18.8445 15.2472C18.0202 16.0314 17.6182 17.0117 17.6182 18.188C17.6182 18.9722 17.779 19.6475 18.1007 20.1921C18.4424 20.7584 18.9651 21.2159 19.6888 21.5209V21.5644C19.0053 21.7605 18.4424 22.1961 17.9599 22.8714C17.397 23.6121 17.1357 24.4616 17.1357 25.4201C17.1357 26.8142 17.5981 27.9252 18.5429 28.7965C19.4677 29.6461 20.7945 30.0817 22.5234 30.0817C24.2322 30.0817 25.5591 29.6461 26.504 28.7965C27.4287 27.9252 27.9112 26.8142 27.9112 25.4201C27.9112 24.4616 27.6297 23.6121 27.087 22.8714C26.6045 22.1961 26.0215 21.7605 25.358 21.5644V21.5209C26.0617 21.2159 26.5844 20.7584 26.9462 20.1921C27.2679 19.6475 27.4287 18.9722 27.4287 18.188C27.4287 17.0117 27.0065 16.0314 26.2024 15.2472ZM20.493 16.6849C20.9956 16.1839 21.6791 15.9443 22.5234 15.9443C23.3678 15.9443 24.0312 16.1839 24.5539 16.6849C24.9962 17.1206 25.2173 17.6434 25.2173 18.2751C25.2173 18.994 25.0364 19.5604 24.6745 19.9742C24.2322 20.4753 23.5085 20.7367 22.5234 20.7367C21.5183 20.7367 20.8146 20.4753 20.3724 19.9742C20.0105 19.5604 19.8296 18.994 19.8296 18.2751C19.8296 17.6434 20.0507 17.1206 20.493 16.6849ZM20.2316 23.416C20.7543 22.8932 21.5183 22.6318 22.5234 22.6318C23.5286 22.6318 24.2926 22.8932 24.8354 23.4378C25.3178 23.917 25.5792 24.5923 25.5792 25.4201C25.5792 26.2043 25.3178 26.8142 24.8153 27.2934C24.2524 27.7727 23.4884 28.0341 22.5234 28.0341C21.5384 28.0341 20.7945 27.7945 20.2718 27.3152C19.729 26.836 19.4677 26.2043 19.4677 25.4201C19.4677 24.5923 19.7089 23.917 20.2316 23.416Z" fill="#FF284B"/>
</svg>
