<svg width="40" height="40" viewBox="0 0 40 40" fill="none" xmlns="http://www.w3.org/2000/svg">
<path fill-rule="evenodd" clip-rule="evenodd" d="M38.333 20.333C38.333 30.2741 30.2741 38.333 20.333 38.333C10.3919 38.333 2.33301 30.2741 2.33301 20.333C2.33301 10.3919 10.3919 2.33301 20.333 2.33301C30.2741 2.33301 38.333 10.3919 38.333 20.333ZM31.4761 20.3332C31.4761 26.4872 26.4872 31.4761 20.3332 31.4761C14.1792 31.4761 9.19036 26.4872 9.19036 20.3332C9.19036 14.1792 14.1792 9.19036 20.3332 9.19036C26.4872 9.19036 31.4761 14.1792 31.4761 20.3332ZM23.8451 13.8873C22.9623 13.0347 21.7917 12.6189 20.3333 12.6189C18.8557 12.6189 17.6851 13.0347 16.8216 13.8873C16.0348 14.6358 15.651 15.5715 15.651 16.6944C15.651 17.4429 15.8045 18.0875 16.1116 18.6073C16.4378 19.148 16.9367 19.5846 17.6276 19.8757V19.9173C16.9751 20.1044 16.4378 20.5203 15.9772 21.1649C15.4399 21.8719 15.1905 22.6828 15.1905 23.5977C15.1905 24.9285 15.6318 25.9889 16.5337 26.8207C17.4165 27.6316 18.683 28.0475 20.3333 28.0475C21.9645 28.0475 23.231 27.6316 24.1329 26.8207C25.0156 25.9889 25.4762 24.9285 25.4762 23.5977C25.4762 22.6828 25.2075 21.8719 24.6894 21.1649C24.2288 20.5203 23.6723 20.1044 23.0391 19.9173V19.8757C23.7107 19.5846 24.2097 19.148 24.5551 18.6073C24.8621 18.0875 25.0156 17.4429 25.0156 16.6944C25.0156 15.5715 24.6126 14.6358 23.8451 13.8873ZM18.3952 15.2596C18.8749 14.7814 19.5274 14.5526 20.3333 14.5526C21.1393 14.5526 21.7726 14.7814 22.2715 15.2596C22.6937 15.6755 22.9048 16.1745 22.9048 16.7775C22.9048 17.4637 22.732 18.0043 22.3866 18.3994C21.9645 18.8776 21.2736 19.1272 20.3333 19.1272C19.3738 19.1272 18.7022 18.8776 18.28 18.3994C17.9346 18.0043 17.7619 17.4637 17.7619 16.7775C17.7619 16.1745 17.973 15.6755 18.3952 15.2596ZM18.1457 21.6847C18.6446 21.1857 19.3738 20.9362 20.3333 20.9362C21.2928 20.9362 22.022 21.1857 22.5401 21.7055C23.0007 22.163 23.2502 22.8076 23.2502 23.5977C23.2502 24.3463 23.0007 24.9285 22.521 25.3859C21.9836 25.8434 21.2544 26.0929 20.3333 26.0929C19.393 26.0929 18.683 25.8642 18.1841 25.4067C17.6659 24.9493 17.4165 24.3463 17.4165 23.5977C17.4165 22.8076 17.6468 22.163 18.1457 21.6847Z" fill="#798D9F"/>
</svg>
