<svg width="26" height="26" viewBox="0 0 26 26" fill="none" xmlns="http://www.w3.org/2000/svg">
<path d="M15.3645 13.0023L25.5101 2.85836C26.1633 2.2027 26.1633 1.1474 25.5101 0.491744C24.8568 -0.163915 23.7973 -0.163915 23.144 0.491744L12.9984 10.6357L2.85598 0.491744C2.20274 -0.163915 1.14317 -0.163915 0.489932 0.491744C-0.163311 1.1474 -0.163311 2.2027 0.489932 2.85836L10.6324 12.9992L0.489932 23.1432C-0.163311 23.7989 -0.163311 24.8542 0.489932 25.5098C0.814991 25.8376 1.24319 26 1.67452 26C2.10272 26 2.53093 25.8376 2.85911 25.5098L12.9984 15.369L23.1409 25.5098C23.466 25.8376 23.8973 26 24.3255 26C24.7537 26 25.1819 25.8376 25.5069 25.5098C26.1602 24.8542 26.1602 23.7989 25.5069 23.1432L15.3645 13.0023Z" fill="#6D727A"/>
</svg>
