<svg viewBox="0 0 34 34" fill="none" xmlns="http://www.w3.org/2000/svg">
<circle cx="17" cy="17" r="15" fill="url(#paint0_linear_13125_462)"/>
<path d="M25.9602 13.7058L20.5297 13.0335C20.4535 13.0238 20.3866 12.9733 20.3531 12.8994L18.0645 7.71118C17.8693 7.27398 17.4603 7 16.9992 7C16.5381 7 16.1292 7.27398 15.9339 7.71118L13.6453 12.8994C13.6119 12.9733 13.5449 13.0238 13.4687 13.0335L8.03825 13.7058C7.57719 13.7602 7.20536 14.0847 7.05848 14.5472C6.91533 15.0097 7.03989 15.4974 7.37826 15.8258L11.3958 19.7061C11.4535 19.7606 11.4777 19.8402 11.4628 19.9199L10.3975 25.526C10.3064 26.004 10.483 26.4703 10.8585 26.7599C11.0631 26.9192 11.3066 26.9989 11.5483 26.9989C11.7435 26.9989 11.9424 26.9445 12.1246 26.8395L16.8935 24.0434C16.9604 24.0045 17.0459 24.0045 17.1129 24.0434L21.8818 26.8395C22.2871 27.0785 22.7723 27.0494 23.1423 26.7599C23.5178 26.4762 23.6944 26.004 23.6033 25.526L22.538 19.9199C22.5232 19.8402 22.5473 19.7606 22.605 19.7061L26.6225 15.8258C26.9609 15.4974 27.0836 15.0058 26.9423 14.5472C26.7992 14.0847 26.4236 13.7661 25.9626 13.7058H25.9602Z" fill="#FF284B"/>
<defs>
<linearGradient id="paint0_linear_13125_462" x1="17" y1="2" x2="17" y2="32" gradientUnits="userSpaceOnUse">
<stop stop-color="#F4F5F5"/>
<stop offset="1" stop-color="#C8CACD"/>
</linearGradient>
</defs>
</svg>
