<svg width="40" height="40" viewBox="0 0 40 40" fill="none" xmlns="http://www.w3.org/2000/svg">
<path d="M32.4281 16.8173C32.2493 16.1716 31.6237 15.7103 30.9982 15.6181L24.4743 14.6033L21.6145 8.51476C21.3464 7.869 20.7208 7.5 20.0059 7.5C19.2909 7.5 18.6653 7.869 18.3972 8.51476L15.5374 14.6033L9.01355 15.6181C8.38797 15.7103 7.76239 16.1716 7.58366 16.8173C7.40492 17.4631 7.49429 18.2011 8.0305 18.6624L12.767 23.5517L11.6946 30.3782C11.6052 31.024 11.8733 31.762 12.4095 32.131C12.6777 32.3155 13.1245 32.5 13.482 32.5C13.7501 32.5 14.1075 32.4077 14.3757 32.3155L20.0952 29.179L25.8148 32.3155C26.0829 32.5 26.351 32.5 26.7085 32.5C27.066 32.5 27.4234 32.4077 27.7809 32.131C28.3171 31.762 28.6746 31.024 28.4958 30.3782L27.4234 23.5517L32.1599 18.6624C32.4281 18.2011 32.6068 17.4631 32.4281 16.8173Z" fill="#7D8086"/>
</svg>
