<svg width="40" height="40" viewBox="0 0 40 40" fill="none" xmlns="http://www.w3.org/2000/svg">
<path d="M38.9078 25.0379C39 26.7332 38.8156 28.3819 38.4009 30.015C37.8324 32.2236 36.4191 33.4679 34.2375 33.8101C33.0085 33.9968 31.7641 33.9034 30.5966 33.4057C30.0742 33.188 29.6133 32.8147 29.1678 32.457C27.7391 31.2438 26.464 29.8595 25.281 28.3975C25.0045 28.0553 24.7433 27.6664 24.4054 27.3865C23.714 26.8265 22.8691 26.8732 22.0395 26.8577C20.5186 26.8421 18.9977 26.8265 17.4921 26.7643C16.6164 26.7177 15.9866 27.091 15.4796 27.7287C14.6807 28.7396 13.974 29.8128 13.1444 30.7927C12.0844 32.0526 10.84 33.0791 9.25765 33.6546C7.56775 34.2612 5.98538 34.059 4.47983 33.1258C2.77456 32.0681 1.89888 30.4039 1.39191 28.5063C1.00784 27.0443 0.931024 25.5667 1.05393 24.058C1.34582 20.294 2.11396 16.6389 3.57342 13.1549C4.4491 11.0708 5.53986 9.09544 7.22976 7.54008C8.12081 6.71574 9.16548 6.20247 10.3638 6.06249C12.8679 5.76697 15.0648 6.5291 16.9698 8.14667C18.8594 9.74869 21.4864 9.5776 23.2378 8.44219C23.7908 8.08446 24.2517 7.61785 24.7741 7.21346C25.6344 6.54465 26.633 6.23358 27.693 6.10915C28.8913 5.96917 30.0742 5.98472 31.2418 6.38912C32.6859 6.88683 33.792 7.8356 34.6677 9.06434C36.1272 11.1019 36.9721 13.4349 37.602 15.8457C38.0321 17.5099 38.4009 19.2208 38.662 20.9162C38.8771 22.2693 38.8925 23.6381 39 25.0068C38.9693 25.0379 38.9385 25.0379 38.9078 25.0379ZM10.6403 15.3947C9.64172 15.3947 8.70459 15.3947 7.7521 15.3947C7.12223 15.3947 6.6767 15.8457 6.64598 16.4678C6.63062 16.81 6.64598 17.1367 6.64598 17.4788C6.66134 17.9765 6.89178 18.3498 7.35267 18.4587C7.78282 18.5676 8.22835 18.552 8.67387 18.5676C9.3191 18.5831 9.96434 18.5676 10.6403 18.5676C10.6403 19.5786 10.6403 20.5429 10.6403 21.4917C10.6403 22.1294 11.0705 22.596 11.7157 22.6115C12.069 22.6271 12.4377 22.6426 12.7911 22.596C12.9908 22.5804 13.2059 22.4715 13.3749 22.3627C13.6821 22.1449 13.805 21.8027 13.7897 21.4139C13.7897 20.4651 13.7897 19.5319 13.7897 18.5676C14.7729 18.5676 15.71 18.5676 16.6318 18.5676C17.2309 18.5676 17.6918 18.2099 17.784 17.6033C17.8454 17.2144 17.8608 16.7945 17.7994 16.4056C17.7072 15.7368 17.2463 15.3791 16.5703 15.3791C16.0019 15.3791 15.4489 15.3791 14.8804 15.3791C14.5271 15.3791 14.1737 15.3791 13.7897 15.3791C13.7897 14.3992 13.805 13.466 13.7897 12.5328C13.7743 11.8018 13.4363 11.3974 12.745 11.2885C12.407 11.2418 12.0537 11.2418 11.7157 11.2885C11.0244 11.3818 10.6403 11.864 10.6403 12.5639C10.6403 13.5127 10.6403 14.4303 10.6403 15.3947ZM28.0924 19.3297C28.1232 18.1632 27.2628 17.1678 25.9877 17.1522C24.8048 17.1367 23.8369 17.9765 23.8216 19.2831C23.8062 20.4962 24.5897 21.4917 25.9724 21.4917C27.2782 21.5072 28.1078 20.4807 28.0924 19.3297ZM29.9206 16.6389C31.1343 16.5767 32.0099 15.7524 32.0407 14.4925C32.0714 13.1549 30.9345 12.3461 29.936 12.3461C28.7684 12.3461 27.7852 13.2638 27.8005 14.4925C27.8313 15.7524 28.6762 16.5767 29.9206 16.6389Z" fill="#3BC116"/>
</svg>
