<svg width="44" height="44" viewBox="0 0 44 44" fill="none" xmlns="http://www.w3.org/2000/svg">
<path d="M42.3294 27.1685C42.4286 28.9913 42.2303 30.764 41.7844 32.5199C41.1732 34.8946 39.6536 36.2324 37.308 36.6003C35.9866 36.801 34.6486 36.7007 33.3933 36.1655C32.8317 35.9314 32.3361 35.53 31.8571 35.1454C30.3209 33.841 28.95 32.3527 27.6781 30.7807C27.3808 30.4128 27.1 29.9947 26.7366 29.6937C25.9933 29.0917 25.0848 29.1418 24.1928 29.1251C22.5575 29.1084 20.9223 29.0917 19.3035 29.0248C18.362 28.9746 17.6848 29.376 17.1397 30.0616C16.2808 31.1486 15.5209 32.3025 14.629 33.356C13.4892 34.7106 12.1513 35.8143 10.4499 36.4331C8.63297 37.0853 6.93163 36.8679 5.31288 35.8645C3.47939 34.7273 2.53788 32.938 1.99279 30.8978C1.57984 29.3258 1.49725 27.7371 1.62939 26.115C1.94323 22.068 2.76913 18.1381 4.33832 14.3921C5.27984 12.1512 6.45261 10.0274 8.26958 8.3551C9.22762 7.46878 10.3508 6.91692 11.6392 6.76641C14.3316 6.44867 16.6937 7.2681 18.7419 9.0073C20.7736 10.7298 23.5982 10.5458 25.4812 9.32503C26.0759 8.9404 26.5714 8.43871 27.133 8.00391C28.058 7.28482 29.1317 6.95036 30.2714 6.81658C31.5598 6.66607 32.8317 6.68279 34.087 7.11759C35.6397 7.65273 36.829 8.67284 37.7705 9.99396C39.3397 12.1847 40.2482 14.6931 40.9254 17.2852C41.3879 19.0746 41.7844 20.9141 42.0652 22.7369C42.2964 24.1918 42.3129 25.6634 42.4286 27.1351C42.3955 27.1685 42.3625 27.1685 42.3294 27.1685ZM11.9365 16.8002C10.8629 16.8002 9.8553 16.8002 8.83119 16.8002C8.15395 16.8002 7.67494 17.2852 7.6419 17.9541C7.62538 18.322 7.6419 18.6732 7.6419 19.0411C7.65842 19.5763 7.90619 19.9776 8.40172 20.0947C8.86422 20.2117 9.34324 20.195 9.82226 20.2117C10.516 20.2285 11.2098 20.2117 11.9365 20.2117C11.9365 21.2987 11.9365 22.3356 11.9365 23.3557C11.9365 24.0413 12.399 24.543 13.0928 24.5597C13.4727 24.5764 13.8691 24.5932 14.2491 24.543C14.4638 24.5263 14.695 24.4092 14.8767 24.2922C15.2071 24.058 15.3392 23.6901 15.3227 23.2721C15.3227 22.2519 15.3227 21.2486 15.3227 20.2117C16.3799 20.2117 17.3874 20.2117 18.3785 20.2117C19.0227 20.2117 19.5183 19.8271 19.6174 19.1749C19.6834 18.7568 19.7 18.3053 19.6339 17.8872C19.5348 17.1681 19.0392 16.7835 18.3125 16.7835C17.7013 16.7835 17.1066 16.7835 16.4955 16.7835C16.1156 16.7835 15.7357 16.7835 15.3227 16.7835C15.3227 15.73 15.3392 14.7266 15.3227 13.7232C15.3062 12.9372 14.9428 12.5024 14.1995 12.3854C13.8361 12.3352 13.4562 12.3352 13.0928 12.3854C12.3495 12.4857 11.9365 13.0041 11.9365 13.7566C11.9365 14.7767 11.9365 15.7634 11.9365 16.8002ZM30.7009 21.0312C30.7339 19.7769 29.8089 18.7067 28.4379 18.6899C27.166 18.6732 26.1254 19.5763 26.1089 20.981C26.0924 22.2854 26.9348 23.3557 28.4214 23.3557C29.8254 23.3724 30.7174 22.2687 30.7009 21.0312ZM32.6665 18.1381C33.9714 18.0712 34.9129 17.1849 34.946 15.8303C34.979 14.3921 33.7567 13.5225 32.683 13.5225C31.4276 13.5225 30.3705 14.5092 30.387 15.8303C30.4201 17.1849 31.3285 18.0712 32.6665 18.1381Z" fill="#FF284B"/>
</svg>
