<svg width="44" height="44" viewBox="0 0 44 44" fill="none" xmlns="http://www.w3.org/2000/svg">
<path d="M22.8989 4.44255L22.8975 4.44345C22.7639 4.52714 22.6294 4.61145 22.4942 4.69659C21.9292 4.29638 21.3406 3.87262 20.7991 3.40178C20.75 3.36904 20.7237 3.30215 20.6964 3.23278C20.6844 3.2024 20.6722 3.1715 20.6579 3.14282H22.9885C23.4123 3.26053 23.8596 3.37824 24.3775 3.49595C23.8778 3.82908 23.3924 4.13331 22.8989 4.44255Z" fill="#7D8086"/>
<path d="M39.2562 17.6526C39.1855 17.1347 39.1149 16.6639 39.0208 16.0989C38.7019 16.7632 38.563 17.0526 38.6463 17.2464C38.7107 17.3959 38.9075 17.4886 39.2562 17.6526Z" fill="#7D8086"/>
<path d="M13.6778 24.6264C13.2129 23.1248 12.7479 21.6229 12.2771 20.1271C12.2065 19.9151 11.9946 19.7031 11.8062 19.6324C11.0945 19.3627 10.3828 19.1028 9.67328 18.8437C8.83413 18.5373 7.99757 18.2319 7.16849 17.9128C6.81536 17.7714 6.5564 17.8186 6.2739 18.0541C5.75603 18.4192 5.23228 18.7784 4.70852 19.1376C4.18471 19.4969 3.66074 19.8562 3.14282 20.2213V23.6842C3.21345 24.2731 3.28407 24.8385 3.40178 25.4274C3.99033 28.4426 5.21451 31.1752 6.93307 33.6958C7.14495 34.002 7.38037 34.0962 7.70995 34.0727C8.95768 34.002 10.1819 33.9313 11.4296 33.8371C11.5944 33.8135 11.8062 33.6958 11.924 33.5544C12.4301 32.9537 12.9304 32.3471 13.4306 31.7406C13.9309 31.134 14.4312 30.5274 14.9373 29.9267C15.1021 29.6911 15.1963 29.4791 15.0786 29.1258C14.6078 27.63 14.1428 26.1281 13.6778 24.6264Z" fill="#7D8086"/>
<path d="M36.9256 18.6195C37.1375 18.5488 37.4671 18.6666 37.6554 18.808C38.2338 19.2324 38.8052 19.6709 39.3849 20.1157C39.867 20.4856 40.3548 20.86 40.8571 21.2343V23.0246C40.8084 23.3563 40.7677 23.6921 40.7267 24.0302C40.6688 24.5082 40.6102 24.9917 40.5275 25.4745C40.1038 28.0422 39.1621 30.3978 37.6554 32.5179C37.2317 33.1304 36.7608 33.7193 36.2664 34.3082C36.1487 34.426 35.9133 34.5438 35.7485 34.5438C34.5243 34.5674 33.3237 34.5674 32.1231 34.5438C31.9583 34.5438 31.6993 34.4025 31.6051 34.2611C30.6399 32.9184 29.6982 31.5521 28.7801 30.1623C28.6388 29.9738 28.6153 29.6205 28.6859 29.4085C29.5236 27.0243 30.376 24.6549 31.2314 22.2769C31.4579 21.6474 31.6845 21.0173 31.9112 20.3862C31.9818 20.1978 32.1937 19.9622 32.382 19.9151C33.8885 19.4676 35.3955 19.0199 36.9256 18.6195Z" fill="#7D8086"/>
<path d="M27.2029 31.3638C27.0851 31.1989 26.8026 31.0575 26.5672 31.0575C26.2136 31.0292 25.8599 31.0264 25.5011 31.0236C25.2629 31.0217 25.0222 31.0198 24.778 31.0104C22.1178 30.9397 19.434 30.8691 16.7738 30.822C16.5854 30.822 16.3265 30.9633 16.1852 31.1282C15.1729 32.4003 14.1606 33.6723 13.1954 34.9679C13.0777 35.1328 13.0071 35.4626 13.0542 35.6511C13.4308 36.7582 13.8546 37.8654 14.3019 38.949C14.3725 39.1139 14.5138 39.3495 14.655 39.3966C14.865 39.4596 15.0754 39.5232 15.2864 39.5868C16.4944 39.9516 17.7171 40.3207 18.9396 40.6215C19.3676 40.7368 19.8187 40.7715 20.2686 40.8061C20.462 40.821 20.6554 40.8359 20.8465 40.8571H22.3061L22.3666 40.847C22.6259 40.8035 22.8679 40.7629 23.1301 40.7629C24.8722 40.7393 26.5672 40.3624 28.1681 39.7028C28.3093 39.6322 28.4977 39.5144 28.5447 39.373C29.0156 38.1245 29.4629 36.8525 29.8866 35.5804C29.9337 35.4391 29.9102 35.2035 29.8396 35.0857C29.654 34.8198 29.4695 34.5538 29.2852 34.288C28.6043 33.3065 27.9253 32.3276 27.2029 31.3638Z" fill="#7D8086"/>
<path d="M14.2076 19.232C14.475 20.1612 14.7402 21.0862 15.0046 22.0083C15.6249 24.1716 16.2407 26.3192 16.8679 28.4662C16.9149 28.6075 17.1739 28.7724 17.3387 28.7724C18.0119 28.8038 18.6955 28.8143 19.3756 28.8247C19.7182 28.83 20.06 28.8352 20.3991 28.8431L20.534 28.8463C22.4676 28.8924 24.4227 28.9389 26.3553 29.008C26.6378 29.008 26.779 28.9138 26.8732 28.6547C27.909 25.6865 28.9449 22.7184 30.0042 19.7267C28.0833 18.2721 26.1751 16.792 24.2703 15.3146L24.2674 15.3124C23.5819 14.7807 22.8969 14.2494 22.2119 13.7197L21.0914 14.497C18.7917 16.0928 16.5171 17.6711 14.2076 19.232Z" fill="#7D8086"/>
<path d="M8.18085 16.1932C7.80418 16.0519 7.5923 15.8163 7.47459 15.4394C7.12146 14.3558 6.74479 13.2487 6.34458 12.1651C6.20333 11.8353 6.27395 11.6233 6.48583 11.3406C8.11022 9.05557 10.1584 7.24171 12.5596 5.82831C14.184 4.86248 15.9026 4.22645 17.7153 3.73176C17.8566 3.7082 18.0449 3.75532 18.1626 3.84954C19.2691 4.65047 20.3991 5.47496 21.5056 6.29944C21.5884 6.36571 21.6479 6.46693 21.7086 6.57033C21.7343 6.61396 21.7601 6.65797 21.7881 6.6999C21.7645 6.71168 21.7469 6.71757 21.7292 6.72346C21.7116 6.72935 21.6939 6.73524 21.6704 6.74702C21.6545 7.28698 21.636 7.82426 21.6174 8.36067C21.581 9.41559 21.5447 10.4671 21.5291 11.529C21.5291 12.0002 21.3643 12.3064 20.9641 12.5655C19.3433 13.6419 17.7316 14.7274 16.1234 15.8107C15.1623 16.4581 14.2023 17.1047 13.2424 17.748C13.054 17.8658 12.748 17.9129 12.5596 17.8422C11.6839 17.5313 10.8081 17.1949 9.93237 16.8585C9.34853 16.6342 8.76469 16.41 8.18085 16.1932Z" fill="#7D8086"/>
<path d="M23.224 6.84082C23.2005 7.6653 23.2005 8.46623 23.2005 9.29071C23.2005 9.4958 23.199 9.70235 23.1975 9.90964C23.1931 10.5354 23.1887 11.1686 23.224 11.7877C23.224 11.9997 23.3653 12.306 23.53 12.4237C26.0255 14.3083 28.5209 16.1928 31.0164 18.0538C31.1341 18.148 31.3695 18.1951 31.5108 18.148C33.1586 17.6298 34.8067 17.1115 36.431 16.5697C36.6194 16.5226 36.8077 16.3342 36.8783 16.1693C37.3256 15.0621 37.7258 13.9314 38.126 12.8007C38.1967 12.6358 38.1731 12.3531 38.079 12.2117C37.966 12.0468 37.8539 11.881 37.7418 11.7152C37.2936 11.0518 36.8454 10.3884 36.3369 9.7854C33.912 6.88793 30.828 4.95628 27.2497 3.802C27.0849 3.75489 26.8259 3.82556 26.6847 3.91979C25.6253 4.6736 24.5659 5.45097 23.53 6.2519C23.3417 6.39324 23.224 6.65236 23.224 6.84082Z" fill="#7D8086"/>
<path d="M31.4167 36.5459C31.4638 36.4282 31.6286 36.2869 31.7463 36.2869C32.0995 36.2752 32.4526 36.2752 32.8204 36.2752C33.1883 36.2752 33.5708 36.2752 33.9828 36.2634C32.9941 37.2757 32.0053 38.0055 30.734 38.5234C30.8421 38.2188 30.9379 37.9307 31.0299 37.6538C31.1583 37.2673 31.2796 36.9024 31.4167 36.5459Z" fill="#7D8086"/>
<path d="M5.45007 16.3818C5.54424 16.3111 5.61487 16.1226 5.59132 16.0284C5.40299 15.3924 5.19111 14.7563 4.97923 14.1203H4.81444C4.41423 15.1804 4.01402 16.264 3.63734 17.324C3.66089 17.3358 3.68443 17.3535 3.70797 17.3711C3.73151 17.3888 3.75505 17.4065 3.7786 17.4182L4.02541 17.2681C4.49575 16.9823 4.98995 16.682 5.45007 16.3818Z" fill="#7D8086"/>
<path d="M9.71455 35.5752C10.1304 35.5699 10.5499 35.5646 10.9588 35.5804C11.0765 35.5804 11.2413 35.6745 11.2649 35.7687C11.3708 36.0865 11.4708 36.4102 11.5709 36.7339C11.6709 37.0576 11.771 37.3813 11.8769 37.6991C11.8534 37.7227 11.8299 37.7403 11.8063 37.758C11.7828 37.7757 11.7592 37.7933 11.7357 37.8169C11.2884 37.4755 10.8352 37.1341 10.382 36.7928C9.92885 36.4514 9.47566 36.1101 9.02837 35.7687C9.04014 35.7334 9.05191 35.704 9.06368 35.6745C9.07545 35.6451 9.08722 35.6157 9.09899 35.5804C9.30216 35.5804 9.50792 35.5778 9.71455 35.5752Z" fill="#7D8086"/>
</svg>
