<svg width="40" height="40" viewBox="0 0 40 40" fill="none" xmlns="http://www.w3.org/2000/svg">
<path d="M20.8581 3.24083L20.8567 3.24169C20.7292 3.32157 20.6008 3.40206 20.4717 3.48333C19.9324 3.10131 19.3706 2.69681 18.8538 2.24737C18.8069 2.21612 18.7817 2.15227 18.7557 2.08605C18.7442 2.05705 18.7326 2.02755 18.7189 2.00018H20.9436C21.3481 2.11254 21.7751 2.2249 22.2695 2.33726C21.7925 2.65524 21.3291 2.94565 20.8581 3.24083Z" fill="#798D9F"/>
<path d="M36.4718 15.8505C36.4044 15.3561 36.337 14.9066 36.2471 14.3673C35.9427 15.0014 35.8102 15.2777 35.8897 15.4627C35.9511 15.6054 36.139 15.6938 36.4718 15.8505Z" fill="#798D9F"/>
<path d="M12.0561 22.5073C11.6124 21.0739 11.1685 19.6402 10.7191 18.2125C10.6517 18.0101 10.4494 17.8077 10.2696 17.7403C9.59024 17.4828 8.91085 17.2347 8.23362 16.9874C7.43261 16.6949 6.63408 16.4034 5.84268 16.0988C5.50561 15.9639 5.25842 16.0088 4.98875 16.2337C4.49443 16.5822 3.99448 16.9251 3.49453 17.2679C2.99453 17.6109 2.49438 17.9539 2 18.3024V21.6078C2.06742 22.17 2.13483 22.7096 2.24719 23.2718C2.80899 26.15 3.97752 28.7584 5.61797 31.1644C5.82021 31.4567 6.04493 31.5466 6.35954 31.5241C7.55054 31.4567 8.71908 31.3892 9.91009 31.2993C10.0674 31.2768 10.2696 31.1644 10.382 31.0294C10.8651 30.456 11.3427 29.877 11.8202 29.298C12.2977 28.719 12.7752 28.14 13.2584 27.5666C13.4157 27.3417 13.5056 27.1394 13.3932 26.8021C12.9438 25.3743 12.4999 23.9407 12.0561 22.5073Z" fill="#798D9F"/>
<path d="M34.2472 16.7734C34.4494 16.7059 34.7641 16.8183 34.9438 16.9533C35.4959 17.3584 36.0414 17.7769 36.5947 18.2016C37.0549 18.5547 37.5205 18.912 38 19.2693V20.9782C37.9535 21.2949 37.9146 21.6154 37.8755 21.9381C37.8203 22.3945 37.7644 22.8559 37.6854 23.3168C37.2809 25.7677 36.382 28.0163 34.9438 30.0401C34.5393 30.6247 34.0899 31.1868 33.618 31.749C33.5056 31.8614 33.2809 31.9739 33.1236 31.9739C31.9551 31.9963 30.809 31.9963 29.6629 31.9739C29.5056 31.9739 29.2585 31.8389 29.1686 31.704C28.2472 30.4223 27.3484 29.1181 26.4719 27.7915C26.3371 27.6116 26.3146 27.2743 26.3821 27.0719C27.1816 24.7961 27.9953 22.5344 28.8118 20.2645C29.028 19.6637 29.2443 19.0622 29.4607 18.4598C29.5281 18.2799 29.7304 18.0551 29.9101 18.0101C31.3482 17.5829 32.7867 17.1556 34.2472 16.7734Z" fill="#798D9F"/>
<path d="M24.9664 28.9384C24.854 28.781 24.5844 28.646 24.3597 28.646C24.0221 28.619 23.6845 28.6164 23.342 28.6136C23.1147 28.6119 22.8849 28.61 22.6518 28.6011C20.1125 28.5336 17.5507 28.4662 15.0114 28.4212C14.8316 28.4212 14.5844 28.5561 14.4496 28.7135C13.4833 29.9277 12.517 31.142 11.5957 32.3787C11.4833 32.5361 11.4159 32.8509 11.4608 33.0308C11.8204 34.0876 12.2249 35.1445 12.6518 36.1788C12.7192 36.3362 12.8541 36.5611 12.9889 36.6061C13.1893 36.6662 13.3902 36.7269 13.5916 36.7877C14.7446 37.1358 15.9118 37.4882 17.0788 37.7753C17.4873 37.8854 17.9179 37.9185 18.3473 37.9515C18.532 37.9657 18.7166 37.9799 18.899 38.0002H20.2923L20.35 37.9905C20.5975 37.949 20.8285 37.9102 21.0788 37.9102C22.7417 37.8878 24.3597 37.528 25.8877 36.8984C26.0226 36.8309 26.2023 36.7185 26.2473 36.5836C26.6967 35.3918 27.1237 34.1776 27.5282 32.9633C27.5731 32.8284 27.5507 32.6036 27.4832 32.4911C27.3061 32.2373 27.13 31.9834 26.9541 31.7297C26.3042 30.7928 25.656 29.8584 24.9664 28.9384Z" fill="currentColor"/>
<path d="M12.5619 17.358C12.817 18.245 13.0702 19.128 13.3226 20.0081C13.9147 22.0731 14.5025 24.1231 15.1012 26.1725C15.1461 26.3074 15.3933 26.4648 15.5506 26.4648C16.1932 26.4947 16.8457 26.5047 17.4949 26.5147C17.822 26.5197 18.1482 26.5247 18.4719 26.5323L18.6006 26.5353C20.4464 26.5793 22.3126 26.6238 24.1573 26.6897C24.427 26.6897 24.5618 26.5997 24.6517 26.3524C25.6405 23.5192 26.6292 20.6859 27.6405 17.8302C25.8068 16.4418 23.9854 15.029 22.1671 13.6187L22.1644 13.6166C21.5101 13.1091 20.8562 12.6019 20.2023 12.0963L19.1327 12.8383C16.9375 14.3615 14.7663 15.8681 12.5619 17.358Z" fill="#798D9F"/>
<path d="M6.80902 14.4574C6.44947 14.3225 6.24723 14.0976 6.13487 13.7379C5.79779 12.7035 5.43824 11.6467 5.05622 10.6123C4.92139 10.2975 4.9888 10.0951 5.19105 9.82531C6.74161 7.64417 8.69666 5.91275 10.9888 4.5636C12.5393 3.64168 14.1798 3.03456 15.9101 2.56235C16.0449 2.53987 16.2247 2.58484 16.3371 2.67478C17.3933 3.4393 18.4719 4.22631 19.5281 5.01332C19.6071 5.07657 19.6639 5.1732 19.7219 5.2719C19.7464 5.31354 19.7711 5.35555 19.7977 5.39558C19.7753 5.40682 19.7584 5.41244 19.7416 5.41806C19.7247 5.42369 19.7079 5.42931 19.6854 5.44055C19.6702 5.95597 19.6525 6.46883 19.6349 6.98086C19.6001 7.98782 19.5655 8.99157 19.5506 10.0052C19.5506 10.4549 19.3932 10.7472 19.0112 10.9946C17.464 12.022 15.9257 13.0582 14.3906 14.0922C13.4731 14.7102 12.5568 15.3274 11.6405 15.9415C11.4607 16.0539 11.1686 16.0989 10.9888 16.0314C10.1528 15.7346 9.31688 15.4135 8.48093 15.0924C7.92363 14.8783 7.36632 14.6643 6.80902 14.4574Z" fill="#798D9F"/>
<path d="M21.1684 5.53009C21.1459 6.31709 21.1459 7.08161 21.1459 7.86862C21.1459 8.06439 21.1445 8.26155 21.1431 8.45942C21.1389 9.05669 21.1347 9.66117 21.1684 10.2521C21.1684 10.4545 21.3032 10.7468 21.4605 10.8592C23.8425 12.6581 26.2246 14.457 28.6066 16.2334C28.7189 16.3233 28.9437 16.3683 29.0785 16.3233C30.6514 15.8287 32.2246 15.3339 33.7751 14.8168C33.9549 14.7718 34.1347 14.5919 34.2021 14.4345C34.629 13.3777 35.0111 12.2983 35.3931 11.219C35.4605 11.0616 35.438 10.7918 35.3481 10.6569C35.2403 10.4995 35.1333 10.3412 35.0263 10.1829C34.5985 9.54966 34.1706 8.91646 33.6852 8.34083C31.3706 5.57506 28.4268 3.73121 25.0111 2.6294C24.8538 2.58443 24.6066 2.65189 24.4718 2.74183C23.4605 3.46138 22.4493 4.20342 21.4605 4.96794C21.2808 5.10285 21.1684 5.3502 21.1684 5.53009Z" fill="#798D9F"/>
<path d="M28.9887 33.8849C29.0337 33.7726 29.191 33.6377 29.3034 33.6377C29.6404 33.6265 29.9775 33.6265 30.3286 33.6265C30.6798 33.6265 31.0449 33.6265 31.4382 33.6153C30.4944 34.5816 29.5505 35.2782 28.3371 35.7726C28.4402 35.4818 28.5317 35.2068 28.6195 34.9424C28.7421 34.5736 28.8579 34.2252 28.9887 33.8849Z" fill="#798D9F"/>
<path d="M4.20238 14.6373C4.29226 14.5699 4.35968 14.39 4.33721 14.3001C4.15743 13.6929 3.95519 13.0858 3.75294 12.4787H3.59564C3.21361 13.4906 2.83159 14.5249 2.47204 15.5368C2.49452 15.548 2.51699 15.5649 2.53946 15.5818C2.56193 15.5986 2.5844 15.6155 2.60688 15.6267L2.84247 15.4834C3.29144 15.2106 3.76317 14.924 4.20238 14.6373Z" fill="#798D9F"/>
<path d="M8.27301 32.9583C8.67001 32.9533 9.07037 32.9483 9.46071 32.9633C9.57307 32.9633 9.73037 33.0532 9.75285 33.1431C9.85397 33.4464 9.94947 33.7554 10.045 34.0644C10.1405 34.3734 10.236 34.6824 10.3371 34.9858C10.3146 35.0082 10.2922 35.0251 10.2697 35.0419C10.2472 35.0588 10.2248 35.0756 10.2023 35.0981C9.77532 34.7723 9.34273 34.4464 8.91015 34.1206C8.47757 33.7947 8.04499 33.4689 7.61802 33.1431C7.62926 33.1094 7.64049 33.0813 7.65173 33.0532C7.66297 33.0251 7.6742 32.997 7.68544 32.9633C7.87937 32.9633 8.07577 32.9608 8.27301 32.9583Z" fill="#798D9F"/>
</svg>
