<svg width="44" height="44" viewBox="0 0 44 44" fill="none" xmlns="http://www.w3.org/2000/svg">
<path d="M37.1569 4.17994C37.4397 3.51999 38.0992 3.14282 38.853 3.14282C40.3606 3.14282 41.3029 4.74563 40.6434 5.97139C39.9912 7.17632 39.2321 8.56839 38.6223 9.67791C38.0867 10.652 37.6662 11.4081 37.534 11.6285C37.3792 11.8994 37.2404 12.1543 37.1045 12.4063C36.9092 12.7687 36.7197 13.1251 36.4974 13.5143C36.2147 14.0799 35.8379 14.74 35.5552 15.3057C35.414 15.5884 35.2493 15.8945 35.0846 16.2008C34.9196 16.5074 34.7545 16.814 34.613 17.0972C34.2362 17.7571 33.8592 18.5114 33.4824 19.2657C33.1056 19.8313 32.8229 20.3028 32.5401 20.8686C32.3517 21.1514 32.1633 21.5285 31.9747 21.9057C31.8806 22.0942 31.7863 22.1885 31.6922 22.2829H31.5979C31.442 22.1788 31.286 22.1034 31.1303 22.0252C31.0035 21.9615 30.8768 21.8959 30.75 21.8114C30.1846 21.5285 29.5251 21.1514 28.8656 20.7742C28.7526 20.7177 28.6735 20.6612 28.5877 20.6047C28.5304 20.5669 28.4699 20.5292 28.3945 20.4914C28.3402 20.4372 28.3172 20.4142 28.3073 20.3864C28.3001 20.366 28.3001 20.3429 28.3001 20.3028C28.4885 19.8313 28.7712 19.2657 29.054 18.7942C29.2424 18.4171 29.5251 17.9456 29.7135 17.5686C30.0903 16.8143 30.5614 16.0599 30.9384 15.3057C31.174 14.9287 31.3858 14.528 31.5977 14.1274C31.8098 13.7265 32.0219 13.3257 32.2574 12.9486C32.4458 12.6657 32.6345 12.2885 32.8229 12.0057C33.1056 11.5343 35.9322 6.44282 37.1569 4.17994Z" fill="#FF284B"/>
<path fill-rule="evenodd" clip-rule="evenodd" d="M4.17936 12.1942C4.27367 11.9113 4.36776 11.7228 4.46207 11.5342C4.74479 10.9685 5.02727 10.497 5.30998 10.0256C5.87541 9.17702 6.4406 8.4228 7.19443 7.76273L8.60776 6.63135C9.26727 6.15992 9.92701 5.78275 10.6806 5.49997C10.9318 5.37428 11.2665 5.24871 11.6014 5.12303C11.7691 5.06007 11.9368 4.99712 12.0939 4.93416C12.4098 4.77625 12.7914 4.68452 13.1286 4.60349L13.3189 4.55711C13.6959 4.46273 14.167 4.46273 14.5438 4.36847C14.689 4.32013 14.8587 4.29653 15.0278 4.28502C15.1884 4.2742 15.3485 4.2742 15.486 4.2742H16.711C16.7257 4.2742 16.7409 4.27478 16.7568 4.27582L16.7954 4.27927C16.8713 4.28756 16.956 4.30447 17.0406 4.32139C17.1584 4.34487 17.2762 4.36847 17.3705 4.36847C17.5589 4.36847 17.8416 4.46273 18.1243 4.46273C18.2175 4.46273 18.3336 4.46273 18.45 4.47412C18.5692 4.48575 18.6886 4.50934 18.7838 4.55711L18.8832 4.59601C18.9363 4.61627 18.9883 4.63537 19.0394 4.65344C19.1231 4.68314 19.2048 4.71007 19.2858 4.73493L19.378 4.76232L19.4415 4.78039C19.654 4.83955 19.8666 4.88685 20.1028 4.93416C20.3856 4.93416 20.574 5.02854 20.8567 5.21706C21.3278 5.40559 21.7989 5.59423 22.1759 5.78275C22.5152 5.91857 22.8058 6.10329 23.1174 6.30172C23.2387 6.37883 23.3631 6.4579 23.4949 6.53709L24.6256 7.38568L25.7562 8.51706C26.0389 8.79996 26.2273 9.08275 26.51 9.08275C26.6043 9.17702 26.6043 9.36566 26.6043 9.45992V14.0799C26.6043 14.2178 26.5539 14.3053 26.49 14.416C26.4665 14.4568 26.4412 14.5006 26.4159 14.5514C26.2998 14.6909 26.1893 14.8304 26.0833 14.9699C25.9966 15.0838 25.9126 15.1977 25.8309 15.3117C25.6071 15.6239 25.3989 15.9362 25.191 16.2484C25.0026 16.5311 24.7907 16.8138 24.5789 17.0965L24.5727 17.1058C24.3626 17.3858 24.1526 17.6657 23.9661 17.9456C23.8446 18.1482 23.7231 18.3508 23.609 18.5533C23.4577 18.8222 23.3197 19.0911 23.2122 19.3599L23.2115 19.3623C23.1745 19.4733 23.1375 19.5842 23.1064 19.6952C23.0836 19.7761 23.0639 19.8569 23.0496 19.9378C23.0335 20.028 23.0238 20.1183 23.0238 20.2085V20.6799C23.1181 20.9627 23.1181 21.2456 23.2122 21.5285L23.4949 22.377C23.4949 22.4844 23.4949 22.5307 23.4775 22.5506C23.4747 22.5539 23.4712 22.5566 23.4673 22.5585C23.4639 22.5602 23.46 22.5616 23.4558 22.5625C23.4425 22.5657 23.4245 22.5657 23.4006 22.5657C23.3256 22.6032 23.2357 22.6257 23.1428 22.6393C23.0022 22.6599 22.8545 22.6599 22.7411 22.6599C22.3643 22.7542 22.0816 22.7542 21.7048 22.7542C21.6954 22.7542 21.6859 22.7551 21.6765 22.7568L21.6648 22.7594L21.6441 22.7655C21.6172 22.7744 21.5902 22.7879 21.5633 22.8014C21.5162 22.825 21.469 22.8484 21.4221 22.8484H20.0088C19.9131 22.8484 19.8659 22.8484 19.8427 22.8237C19.8204 22.7998 19.8204 22.7527 19.8204 22.6599V12.7599C19.8204 12.5714 19.726 12.2885 19.4433 12.1942H4.17936ZM21.9873 8.51706H21.6105C21.3278 8.61132 21.0451 8.89423 21.0451 9.17702C21.0451 9.45992 21.2337 9.64844 21.4221 9.74282H22.27C22.647 9.74282 22.7411 9.64844 22.8354 9.36566C22.9295 9.08275 22.7411 8.70559 22.4584 8.61132C22.27 8.51706 22.1759 8.51706 21.9873 8.51706ZM19.2549 8.51706C18.9722 8.61132 18.7838 8.70559 18.6895 9.08275C18.6895 9.36566 18.7838 9.64844 19.0665 9.64844C19.2549 9.74282 19.4433 9.74282 19.5376 9.74282H20.0088C20.1972 9.74282 20.4799 9.55418 20.574 9.17702C20.574 8.98849 20.4799 8.70559 20.2915 8.61132C20.2464 8.58877 20.2013 8.57162 20.1562 8.55861C20.1051 8.54388 20.0543 8.53433 20.0035 8.52823C19.911 8.51706 19.8185 8.51706 19.726 8.51706H19.2549Z" fill="#FF284B"/>
<path d="M8.60776 28.0343C8.51345 27.8456 8.51345 27.7514 8.41936 27.5628C8.23074 27.0914 8.04234 26.5257 7.85394 26.0543C7.75962 25.8657 7.75962 25.5829 7.66554 25.3942C7.57123 25.1114 7.57123 24.8285 7.57123 24.5456C7.57123 24.3571 7.57123 24.3571 7.38283 24.3571H3.33122C3.23714 24.3571 3.14282 24.3571 3.14282 24.5456V24.9228C3.23714 25.2057 3.42554 25.4885 3.61393 25.7714C3.64982 25.8193 3.68409 25.8687 3.71722 25.9192C3.76921 25.9981 3.8182 26.0797 3.86605 26.1626L3.9369 26.2874L3.99073 26.3843C4.03398 26.4621 4.07722 26.5399 4.12139 26.6165C4.19799 26.7489 4.27804 26.8778 4.36776 26.9972C4.46184 27.1856 4.55593 27.3505 4.65001 27.5154C4.74433 27.6805 4.83864 27.8455 4.93295 28.0343H8.60776Z" fill="#FF284B"/>
<path d="M26.9337 30.3913C26.8868 30.3678 26.8396 30.3442 26.7925 30.2972C26.6473 30.2245 26.5022 30.138 26.3517 30.0482C26.1116 29.9047 25.8576 29.7531 25.5678 29.6371C25.2853 29.4488 24.9794 29.2604 24.6734 29.072L24.3302 28.86C24.2345 28.8003 24.1395 28.7407 24.0463 28.6811C23.955 28.6226 23.8651 28.5642 23.7774 28.5057H23.589V28.6C23.4473 28.8363 23.3056 29.0961 23.1641 29.356C23.0747 29.5201 22.9852 29.6842 22.8957 29.8423L22.8343 29.9495C22.8032 30.0034 22.7722 30.0566 22.7411 30.1085C22.4584 30.6743 21.9873 31.24 21.4219 31.6172C20.8567 31.9942 20.1028 32.2771 19.4433 32.2771H16.428C16.3431 32.2771 16.2838 32.2771 16.2422 32.2823C16.2054 32.2868 16.1826 32.2953 16.1686 32.3115C16.1644 32.3161 16.1612 32.3214 16.1584 32.3274C16.1543 32.3364 16.1513 32.347 16.1495 32.3595C16.1472 32.3743 16.1462 32.3917 16.1458 32.4121L16.1455 32.4657C16.1055 32.6258 16.0485 32.7859 15.9889 32.9531C15.9082 33.1799 15.8228 33.42 15.7685 33.6914C15.7218 33.9252 15.6519 34.1589 15.582 34.3927L15.5426 34.5242C15.4851 34.7181 15.4304 34.9119 15.3917 35.1057L15.109 35.9543C15.0619 36.1898 14.9912 36.4018 14.9206 36.6137C14.85 36.826 14.7794 37.0384 14.7322 37.2743C14.5436 37.84 14.3552 38.4057 14.1668 39.0657C14.0725 39.5371 13.8841 39.9143 13.79 40.3857C13.79 40.4801 13.7663 40.5508 13.7426 40.6215C13.732 40.6536 13.7214 40.6857 13.7129 40.72C13.7028 40.7612 13.6957 40.8057 13.6957 40.8571H19.9144C20.2912 40.7628 20.668 40.7628 20.9508 40.5743C21.5162 40.2914 22.0814 39.9142 22.4584 39.3486C22.6468 39.0657 22.8352 38.7829 22.9295 38.5C23.0268 38.354 23.1177 38.2018 23.2056 38.0465L23.2773 37.9187L23.3475 37.7903L23.4478 37.6041C23.6127 37.2977 23.7774 36.9913 23.9658 36.7085C24.0972 36.4786 24.217 36.2601 24.3334 36.0451L24.4857 35.7627C24.6502 35.4572 24.8146 35.1517 25.0024 34.8228C25.1434 34.5406 25.2844 34.2819 25.4254 34.0232C25.5671 33.7634 25.7088 33.5035 25.8503 33.22C25.983 32.9546 26.1364 32.6683 26.291 32.3809L26.3448 32.2812C26.4348 32.1135 26.5247 31.9461 26.6105 31.783C26.674 31.6621 26.7352 31.5434 26.7925 31.4285C26.8868 31.1458 27.0752 30.9571 27.1695 30.6743C27.21 30.6336 27.2332 30.6104 27.2312 30.5897C27.2296 30.5727 27.2112 30.5574 27.1714 30.5352L27.1548 30.5262L27.1152 30.5058L27.0752 30.4857C27.0589 30.4693 27.0425 30.4559 27.0262 30.4442L27.0117 30.4341L26.9951 30.4239L26.982 30.4163C26.9659 30.4074 26.9498 30.3994 26.9337 30.3913Z" fill="#FF284B"/>
<path d="M11.7169 32.3714H8.41914C8.04234 32.3714 7.66531 32.4657 7.38283 32.5599C7.33797 32.575 7.29058 32.59 7.24251 32.605L7.23837 32.6064C6.98234 32.6874 6.69249 32.7793 6.53469 32.9371L6.53262 32.9385C6.42105 33.0223 6.30948 33.1062 6.20022 33.1925C6.08382 33.2846 5.96995 33.3794 5.86207 33.4801C5.82549 33.5143 5.7896 33.549 5.75441 33.5847C5.72589 33.6136 5.69782 33.6431 5.67022 33.6731C5.60995 33.7391 5.55244 33.8078 5.49838 33.8799C5.12135 34.4456 4.93295 35.0114 4.74456 35.6714C4.65024 35.9543 4.55616 36.2371 4.55616 36.4257C4.55616 36.5155 4.53476 36.6268 4.51245 36.739C4.48784 36.8624 4.46184 36.9869 4.46184 37.0857C4.46184 37.3686 4.46184 37.6514 4.55616 37.84L4.83864 38.6885C5.12135 39.3486 5.59246 39.82 6.25198 40.1972C6.629 40.4799 7.10011 40.6686 7.57123 40.6686C7.66531 40.6686 7.85394 40.6686 8.04234 40.7628H9.36136L9.45567 40.6686C9.49156 40.5968 9.52744 40.5114 9.55804 40.4226C9.60796 40.2783 9.64407 40.1253 9.64407 40.0085L9.92678 38.8771C10.0209 38.5 10.1152 38.1228 10.2095 37.84L10.2677 37.6101C10.3457 37.3095 10.4363 37.009 10.5863 36.7085L10.5884 36.6988C10.6599 36.4127 10.7314 36.1271 10.803 35.8829C10.8251 35.8081 10.8469 35.7372 10.869 35.6714L10.8711 35.6641C10.9645 35.3837 11.0581 35.1025 11.1517 34.7285L11.1545 34.7178C11.2476 34.3441 11.341 33.9697 11.4342 33.5028L11.7169 32.3714Z" fill="#FF284B"/>
<path d="M39.5601 37.651C39.7248 37.5569 39.8895 37.4627 40.0779 37.3685L40.083 37.3642L40.0904 37.3589C40.0959 37.3552 40.1035 37.3506 40.1134 37.3456C40.1354 37.3342 40.1695 37.3201 40.2194 37.3076C40.2916 37.2894 40.3974 37.2742 40.549 37.2742V38.5942C40.549 39.0657 40.3606 39.4428 39.9836 39.7256C39.6068 40.1028 39.1357 40.2913 38.5703 40.4799C38.1003 40.574 37.7242 40.668 37.3481 40.762L37.3453 40.7627C37.0629 40.8571 36.8742 40.8571 36.5918 40.8571H35.7436C35.6569 40.8397 35.5734 40.8256 35.4926 40.8135C35.3673 40.7946 35.2479 40.7806 35.1329 40.7671C35.0254 40.7546 34.9215 40.7424 34.8193 40.7269C34.7179 40.7117 34.6183 40.6934 34.5187 40.6685C34.4522 40.6552 34.3878 40.642 34.325 40.6284C34.2461 40.6114 34.1699 40.5941 34.0956 40.5758L34.0011 40.5515L33.9408 40.5353C33.8562 40.5118 33.7738 40.4865 33.6931 40.4585C33.5576 40.4116 33.4258 40.3573 33.294 40.2913C33.1493 40.2189 33.0046 40.1465 32.8652 40.0687C32.6414 39.9441 32.4316 39.8056 32.2574 39.6314C31.9747 39.3484 31.7863 38.9714 31.7863 38.5942V37.2742H31.8806C31.922 37.3053 31.9646 37.3352 32.0081 37.3642C32.0644 37.4016 32.1226 37.4373 32.182 37.4716C32.2933 37.5358 32.4095 37.5951 32.5291 37.6511C32.6614 37.7131 32.7976 37.7711 32.9353 37.8275C33.023 37.8635 33.1113 37.8988 33.1997 37.9342C33.5765 38.1228 33.9535 38.2171 34.4246 38.3113C34.9928 38.4535 35.6143 38.4349 36.2087 38.4171L36.2177 38.4168C36.4091 38.4111 36.5975 38.4056 36.7802 38.4056C36.9216 38.4056 37.0863 38.382 37.2513 38.3584L37.2547 38.3581C37.3493 38.3446 37.4433 38.3311 37.5333 38.3221C37.5993 38.3155 37.6628 38.3113 37.7224 38.3113C38.1935 38.2171 38.5703 38.1228 39.0414 37.9342C39.23 37.8398 39.3952 37.7454 39.5601 37.651Z" fill="#FF284B"/>
<path d="M3.33145 18.3229H4.55616C4.74479 18.3229 4.93318 18.4172 5.02727 18.5114C5.13493 18.6191 5.21199 18.7574 5.25799 18.909C5.29273 19.0229 5.30998 19.1443 5.30998 19.2658C5.30998 19.36 5.2159 19.4543 5.12158 19.4543H3.33145C3.30339 19.4543 3.28383 19.4543 3.27003 19.4567C3.2583 19.4588 3.25094 19.4626 3.24611 19.4695C3.23714 19.4823 3.23714 19.5056 3.23714 19.5486V23.0372C3.54446 23.0372 3.85156 23.0372 4.1437 23.022C4.23296 23.0174 4.32083 23.0114 4.40686 23.0035C4.55731 22.9897 4.702 22.9702 4.83887 22.9428C4.88074 22.9428 4.94101 22.9243 5.00358 22.8954C5.08179 22.8593 5.16345 22.8068 5.2159 22.7543C5.22349 22.7466 5.23062 22.7389 5.23706 22.7312C5.24626 22.7203 5.25454 22.7095 5.2619 22.6987C5.27042 22.686 5.27801 22.6734 5.28514 22.6607L5.29733 22.6376L5.30975 22.613C5.33345 22.5658 5.35714 22.5186 5.4043 22.4714C5.59269 22.0943 5.87541 21.9057 6.34652 21.9057H7.38283C7.41204 21.9057 7.43228 21.9057 7.44609 21.9029C7.47714 21.8966 7.47714 21.8765 7.47714 21.8114V16.3428C7.47714 16.3127 7.47714 16.2825 7.48013 16.2524C7.4868 16.1883 7.50728 16.1241 7.57146 16.06C7.66554 15.6829 7.85394 15.3057 7.94825 15.0229C8.04257 14.7872 8.11319 14.5751 8.18381 14.363C8.22706 14.233 8.2703 14.1032 8.31884 13.9681L8.36462 13.8438C8.3821 13.7977 8.40027 13.7508 8.41936 13.7029C8.41936 13.664 8.43547 13.625 8.45456 13.5792L8.45594 13.5757C8.48239 13.5116 8.51368 13.4343 8.51368 13.3257H3.80256L3.76254 13.3262L3.74781 13.3272L3.74022 13.3284C3.71998 13.3322 3.71262 13.3416 3.70986 13.3647L3.70848 13.3826L3.70825 13.42C3.67397 13.5228 3.6397 13.6379 3.61002 13.7564C3.55804 13.9644 3.51985 14.1827 3.51985 14.3628C3.51985 14.4571 3.49639 14.5513 3.47292 14.6454L3.47223 14.6482L3.46671 14.6696C3.44532 14.7559 3.42554 14.8422 3.42554 14.9285C3.42554 15.0688 3.4023 15.186 3.37907 15.3029L3.37838 15.3057C3.37056 15.3452 3.36274 15.3847 3.35583 15.4249C3.35054 15.4559 3.34571 15.4874 3.3418 15.5199L3.33697 15.5641C3.33352 15.6021 3.33145 15.6414 3.33145 15.6829C3.33145 15.7908 3.32386 15.8988 3.31282 16.0046C3.30316 16.0966 3.29096 16.187 3.27923 16.2742L3.27785 16.2825L3.27578 16.3005C3.2629 16.3993 3.25048 16.4939 3.24335 16.582C3.23944 16.63 3.23714 16.6761 3.23714 16.72V18.04C3.14282 18.3229 3.14282 18.3229 3.33145 18.3229Z" fill="#FF284B"/>
<path d="M34.2362 36.9914C33.6708 36.897 33.1053 36.7085 32.6342 36.4256C32.3517 36.3313 32.069 36.1428 31.8806 35.7657C31.5979 35.3885 31.5036 34.9171 31.7863 34.4456C31.8806 34.2571 31.9747 34.0685 32.1631 33.9742C32.6342 33.597 33.1053 33.4085 33.6708 33.22C33.8122 33.1728 33.9772 33.1492 34.1421 33.1256C34.3068 33.102 34.4717 33.0784 34.613 33.0313C34.7676 32.9798 34.9222 32.9564 35.0767 32.9458L35.1257 32.9428L35.172 32.9408L35.2734 32.9381C35.336 32.9371 35.3986 32.9371 35.4609 32.9371H36.7802C37.2513 33.0313 37.7224 33.1256 38.0992 33.22C38.4762 33.3143 38.853 33.4085 39.1357 33.597C39.1971 33.638 39.2629 33.679 39.3303 33.7209C39.4352 33.7861 39.5438 33.8537 39.6452 33.9272C39.7789 34.024 39.8999 34.1312 39.9836 34.2571C40.172 34.5399 40.2663 34.9171 40.172 35.2942C40.0779 35.5771 39.8895 35.8599 39.6068 36.0486C39.1357 36.4256 38.5703 36.6143 38.0051 36.8028C37.8967 36.8462 37.7935 36.8845 37.6927 36.9179C37.5648 36.9602 37.4415 36.9946 37.3177 37.021C37.2529 37.0348 37.188 37.0463 37.1224 37.0556L37.067 37.063C36.9446 37.0781 36.819 37.0857 36.6858 37.0857C36.4031 37.1799 36.1206 37.1799 35.8379 37.1799C35.3443 37.1799 34.9224 37.1081 34.4471 37.0271L34.2362 36.9914Z" fill="#FF284B"/>
<path d="M30.9384 23.6028C30.373 23.2256 29.9019 22.9428 29.3364 22.6599C29.2125 22.5607 29.082 22.4681 28.9486 22.3785C28.8283 22.2977 28.7055 22.2195 28.5824 22.1412C28.3234 21.9763 28.0644 21.8113 27.829 21.6228H27.6406C27.6001 21.6632 27.5771 21.7036 27.5564 21.7441C27.5288 21.798 27.5058 21.8518 27.452 21.9057C27.2636 22.2828 27.0752 22.6599 26.7925 23.0371C26.4157 23.6028 26.0387 24.2628 25.6619 24.8285L25.6352 24.8648L25.5929 24.925C25.574 24.9525 25.5558 24.9803 25.5376 25.0085L25.49 25.0842C25.4189 25.2003 25.352 25.3208 25.2851 25.4413L25.2421 25.519L25.1724 25.6424C25.1519 25.6781 25.1312 25.7135 25.11 25.7487L25.0762 25.8045L25.0463 25.8525C25.0228 25.8896 24.9989 25.9261 24.9743 25.9619L24.9409 26.0091L24.908 26.0542L24.8625 26.1436L24.7923 26.277L24.7114 26.4263L24.5733 26.6758L24.5623 26.6961C24.4974 26.8128 24.4328 26.9292 24.3725 27.0415C24.3284 27.1238 24.2865 27.2038 24.2485 27.2799V27.4685C24.4369 27.5628 24.5312 27.6571 24.7196 27.7514C24.848 27.837 24.9764 27.9178 25.1045 27.9959C25.2588 28.0899 25.4132 28.1799 25.5676 28.2699C25.7974 28.4041 26.0272 28.5383 26.257 28.685L26.3356 28.7355L26.4157 28.7885C26.4477 28.8046 26.4796 28.8214 26.5116 28.8387L26.582 28.8775L26.6779 28.9327L26.7683 28.9869C26.8392 29.03 26.91 29.0743 26.9809 29.1186L27.081 29.1813C27.1313 29.2125 27.1817 29.2435 27.2321 29.2736C27.337 29.3365 27.4416 29.3962 27.5463 29.4486H27.6406C27.6406 29.4029 27.6627 29.3572 27.6855 29.3115L27.6882 29.306C27.7115 29.2591 27.7347 29.2124 27.7347 29.1657C28.1117 28.4113 28.5829 27.6571 28.9597 26.9028L30.0903 24.9228C30.2787 24.5456 30.4673 24.1685 30.6557 23.8857L30.6585 23.8843C30.8156 23.8056 30.9069 23.7598 30.9527 23.7263C31.0157 23.6802 30.9927 23.6572 30.9384 23.6028Z" fill="#FF284B"/>
<path d="M13.8841 13.8914L13.6014 14.74C13.413 15.1172 13.3187 15.4942 13.1303 15.7771C13.1139 15.8423 13.0976 15.9047 13.0817 15.9652C13.0063 16.2549 12.9419 16.5022 12.9419 16.8143V18.2285C12.9419 18.3228 12.9419 18.3228 12.8475 18.3228H8.79616L8.76258 18.3226C8.752 18.3223 8.74325 18.3218 8.73589 18.3205L8.726 18.3182C8.72094 18.3165 8.7168 18.3142 8.71358 18.3109C8.70185 18.2992 8.70185 18.2756 8.70185 18.2285V16.6257C8.70185 16.4371 8.79616 16.3428 8.79616 16.1543C8.89025 15.7771 9.07865 15.4 9.17296 15.0228L9.45567 14.1743C9.45567 14.0597 9.49041 13.9104 9.53872 13.7686C9.57 13.6769 9.60704 13.5883 9.64407 13.5143C9.70986 13.4484 9.72987 13.4286 9.76783 13.4226C9.78439 13.42 9.80418 13.42 9.83247 13.42H13.9784C13.9784 13.5221 13.9784 13.5965 13.9634 13.6733C13.9568 13.7075 13.9471 13.7423 13.9331 13.78L13.9259 13.7988L13.9131 13.8294C13.9045 13.8489 13.8949 13.8695 13.8841 13.8914Z" fill="#FF284B"/>
<path d="M14.1668 28.0343C14.0725 27.9399 14.0725 27.8456 14.0725 27.6571C14.0423 27.5813 14.0097 27.503 13.9754 27.4231L13.9368 27.3339L13.8848 27.2165C13.8385 27.1129 13.7907 27.0079 13.7428 26.9028L13.6561 26.7115L13.583 26.5481C13.522 26.4105 13.464 26.2761 13.413 26.1486C13.3187 25.7714 13.1303 25.3942 13.0362 25.0171C12.9849 24.8631 12.9614 24.6811 12.9508 24.5017C12.9478 24.451 12.9458 24.4006 12.9444 24.351C12.9432 24.305 12.9425 24.2596 12.9423 24.2157L12.9419 24.0742V23.6028C12.9419 23.5085 12.9419 23.5085 12.8475 23.5085H8.79616C8.70185 23.5085 8.70185 23.5085 8.70185 23.6028V24.3571C8.70185 24.5897 8.73773 24.8582 8.78719 25.1183C8.81802 25.2799 8.85413 25.4383 8.89025 25.5828C8.98456 25.8658 9.10234 26.1487 9.22012 26.4316C9.33789 26.7144 9.45567 26.9972 9.54976 27.2799C9.64959 27.3798 9.72297 27.4797 9.78393 27.5937C9.83822 27.6947 9.88239 27.807 9.92678 27.9399C9.92678 28.0343 10.0209 28.0343 10.1152 28.0343H14.1668Z" fill="#FF284B"/>
<path d="M18.5009 13.5143C18.5952 13.5143 18.5952 13.5143 18.5952 13.6085V16.72C18.5952 16.8143 18.5952 16.9085 18.5009 16.9085C18.2651 17.0029 18.0293 17.0737 17.7935 17.1443C17.5582 17.215 17.3229 17.2857 17.0875 17.3799L16.8021 17.4518C16.6558 17.4889 16.5134 17.5261 16.3806 17.5633C16.2619 17.5964 16.1508 17.6297 16.0512 17.6628C16.0022 17.675 15.9532 17.6889 15.9042 17.7039C15.838 17.7243 15.7717 17.7467 15.7055 17.7705C15.6321 17.7966 15.5587 17.8241 15.4853 17.8516C15.297 17.9223 15.1088 17.9928 14.9206 18.04C14.9024 18.0491 14.8843 18.0573 14.8661 18.0648C14.8378 18.0764 14.8097 18.0864 14.7817 18.0953L14.7251 18.1118L14.6381 18.1342C14.5438 18.1578 14.4495 18.1813 14.3552 18.2285V16.5313C14.5436 16.0599 14.732 15.4942 14.9206 15.0228C15.0147 14.6456 15.2031 14.2686 15.2974 13.8914C15.2974 13.7972 15.3917 13.7028 15.3917 13.6085L15.392 13.5731L15.3933 13.5519C15.3945 13.5438 15.3961 13.5375 15.3986 13.5326C15.4 13.53 15.4016 13.5278 15.4037 13.526C15.4094 13.5204 15.4177 13.5174 15.4301 13.5159L15.4559 13.5144L15.4858 13.5143H18.5009Z" fill="#FF284B"/>
<path d="M18.5952 21.9056C18.5009 22.0942 18.5952 22.0942 18.5952 22.0942V21.9056Z" fill="#FF284B"/>
<path d="M18.5952 21.9056V17.9456H18.5009L17.653 18.2285C17.5518 18.2624 17.4381 18.3083 17.3213 18.3576L17.0287 18.4823C16.9688 18.5074 16.91 18.5316 16.8534 18.5536C16.8039 18.5728 16.7561 18.5904 16.7107 18.6056C16.3339 18.7942 15.9569 18.8885 15.5801 18.9828C15.3915 19.0299 15.2031 19.1007 15.0147 19.1715C14.8263 19.2422 14.6379 19.3128 14.4495 19.3599C14.4065 19.3599 14.383 19.3796 14.3704 19.401C14.3635 19.4125 14.3598 19.4247 14.3577 19.4345C14.3552 19.446 14.3552 19.4542 14.3552 19.4542V21.8113C14.3552 21.8518 14.3552 21.875 14.3628 21.8881C14.3667 21.8951 14.3727 21.8993 14.3821 21.9018C14.3961 21.9056 14.4173 21.9056 14.4495 21.9056H18.5952Z" fill="#FF284B"/>
<path d="M14.2611 24.8285V24.0743C14.2611 23.9801 14.2611 23.7914 14.3554 23.7914C14.3554 23.7731 14.3554 23.7584 14.3561 23.7465C14.3582 23.7113 14.3662 23.7012 14.398 23.6983C14.4109 23.6972 14.4276 23.6972 14.4495 23.6972C14.8265 23.6972 15.2976 23.7914 15.6744 23.9801C15.9017 24.1507 16.1635 24.2871 16.4388 24.4305C16.5348 24.4805 16.6325 24.5314 16.731 24.5848C16.8182 24.6322 16.9058 24.6816 16.9935 24.7343C17.0878 24.7815 17.1761 24.8345 17.2601 24.8921C17.3815 24.9753 17.4938 25.0678 17.6012 25.1651C17.7165 25.2692 17.8262 25.3789 17.9357 25.4886C18.1239 25.6768 18.2179 25.9589 18.312 26.2411L18.3127 26.2428V26.5257C18.3127 26.5677 18.2941 26.6284 18.2651 26.6911C18.2287 26.7693 18.1765 26.8506 18.1243 26.9029L17.5589 27.7515C17.5386 27.7717 17.5228 27.792 17.5094 27.8123C17.4915 27.8392 17.4779 27.8661 17.4643 27.8931C17.4409 27.9401 17.4174 27.9872 17.3705 28.0343C17.3705 28.1285 17.2762 28.1285 17.1821 28.1285H15.6744C15.5801 28.1285 15.486 28.0343 15.486 27.94C15.3924 27.7529 15.299 27.4727 15.2054 27.1919L15.2033 27.1857C15.0149 26.8086 14.8265 26.3372 14.6379 25.96C14.45 25.5838 14.3559 25.2075 14.2618 24.8313L14.2611 24.8285Z" fill="#FF284B"/>
<path d="M12.9419 19.4542H8.79616C8.70185 19.4542 8.70185 19.4542 8.70185 19.5484V21.9056C8.70185 21.952 8.70185 21.9756 8.71312 21.9875C8.72462 22 8.74808 22 8.79616 22H12.9419V19.4542Z" fill="#FF284B"/>
<path d="M12.9419 19.4542V19.3599C12.9835 19.4015 12.9883 19.4247 12.9807 19.4377C12.9713 19.4542 12.9419 19.4542 12.9419 19.4542Z" fill="#FF284B"/>
</svg>
