<svg width="40" height="40" viewBox="0 0 40 40" fill="none" xmlns="http://www.w3.org/2000/svg">
<path d="M34.468 2.98998C34.7379 2.36002 35.3674 2 36.087 2C37.5261 2 38.4255 3.52996 37.796 4.7C37.1735 5.85016 36.4488 7.17896 35.8667 8.23804C35.3556 9.16781 34.9542 9.88961 34.8279 10.1C34.6801 10.3585 34.5477 10.6019 34.418 10.8425C34.2315 11.1883 34.0506 11.5286 33.8385 11.9C33.5686 12.44 33.209 13.07 32.9391 13.61C32.8043 13.8798 32.6471 14.1721 32.4898 14.4644C32.3324 14.7571 32.1747 15.0498 32.0397 15.32C31.68 15.95 31.3201 16.67 30.9605 17.39C30.6008 17.93 30.3309 18.38 30.0611 18.92C29.8812 19.19 29.7014 19.55 29.5214 19.91C29.4315 20.09 29.3415 20.18 29.2517 20.27H29.1617C29.0128 20.1707 28.8639 20.0988 28.7153 20.0241C28.5943 19.9633 28.4733 19.9007 28.3523 19.82C27.8126 19.55 27.1831 19.19 26.5535 18.83C26.4457 18.776 26.3702 18.7221 26.2883 18.6681C26.2336 18.6321 26.1758 18.5961 26.1038 18.56C26.052 18.5083 26.0301 18.4863 26.0206 18.4598C26.0138 18.4403 26.0138 18.4183 26.0138 18.38C26.1936 17.93 26.4635 17.39 26.7334 16.94C26.9132 16.58 27.1831 16.13 27.3629 15.77C27.7226 15.05 28.1723 14.33 28.5322 13.61C28.757 13.2501 28.9592 12.8677 29.1615 12.4852C29.3639 12.1026 29.5664 11.72 29.7912 11.36C29.9711 11.09 30.1511 10.73 30.3309 10.46C30.6008 10.01 33.299 5.15 34.468 2.98998Z" fill="#798D9F"/>
<path fill-rule="evenodd" clip-rule="evenodd" d="M2.98942 10.64C3.07945 10.3699 3.16926 10.19 3.25928 10.0099C3.52915 9.46993 3.79879 9.01993 4.06865 8.56993C4.60838 7.75991 5.14788 7.03998 5.86744 6.40991L7.21653 5.32996C7.84607 4.87996 8.47582 4.51993 9.19516 4.25C9.43494 4.13003 9.75443 4.01017 10.0741 3.8902C10.2342 3.8301 10.3943 3.77001 10.5443 3.70991C10.8457 3.55918 11.21 3.47162 11.5319 3.39427L11.7135 3.35C12.0734 3.25991 12.5231 3.25991 12.8828 3.16993C13.0213 3.12379 13.1834 3.10127 13.3448 3.09028C13.498 3.07996 13.6509 3.07996 13.7822 3.07996H14.9514C14.9655 3.07996 14.98 3.08051 14.9951 3.08149L15.032 3.08479C15.1045 3.0927 15.1853 3.10885 15.2661 3.125C15.3785 3.14741 15.4909 3.16993 15.581 3.16993C15.7608 3.16993 16.0306 3.25991 16.3005 3.25991C16.3894 3.25991 16.5003 3.25991 16.6114 3.27079C16.7252 3.28188 16.8391 3.30441 16.93 3.35L17.0249 3.38713C17.0756 3.40647 17.1252 3.42471 17.174 3.44196C17.2539 3.4703 17.3319 3.49601 17.4092 3.51974L17.4972 3.54589L17.5578 3.56313C17.7607 3.6196 17.9636 3.66476 18.1891 3.70991C18.459 3.70991 18.6388 3.8 18.9087 3.97996C19.3584 4.15991 19.8081 4.33998 20.168 4.51993C20.4918 4.64957 20.7692 4.8259 21.0667 5.01531C21.1824 5.08892 21.3012 5.16439 21.427 5.23998L22.5062 6.05L23.5855 7.12996C23.8553 7.4 24.0352 7.66993 24.305 7.66993C24.3951 7.75991 24.3951 7.93998 24.3951 8.02996V12.44C24.3951 12.5716 24.347 12.6551 24.2859 12.7608C24.2635 12.7997 24.2394 12.8415 24.2152 12.89C24.1043 13.0231 23.9989 13.1563 23.8977 13.2894C23.8149 13.3982 23.7348 13.507 23.6568 13.6157C23.4432 13.9138 23.2445 14.2119 23.046 14.5099C22.8661 14.7797 22.6639 15.0496 22.4617 15.3194L22.4557 15.3283C22.2553 15.5956 22.0548 15.8628 21.8767 16.13C21.7608 16.3233 21.6448 16.5167 21.5359 16.71C21.3914 16.9667 21.2597 17.2233 21.1572 17.48L21.1565 17.4823C21.1211 17.5882 21.0858 17.6941 21.0562 17.8C21.0344 17.8772 21.0155 17.9543 21.0019 18.0316C20.9865 18.1177 20.9773 18.2038 20.9773 18.29V18.74C21.0673 19.0099 21.0673 19.28 21.1572 19.55L21.427 20.3599C21.427 20.4624 21.427 20.5066 21.4103 20.5256C21.4077 20.5288 21.4044 20.5313 21.4007 20.5332C21.3974 20.5348 21.3936 20.5361 21.3897 20.537C21.377 20.54 21.3598 20.54 21.337 20.54C21.2654 20.5758 21.1796 20.5973 21.0908 20.6103C20.9567 20.63 20.8157 20.63 20.7075 20.63C20.3478 20.7199 20.0779 20.7199 19.7183 20.7199C19.7093 20.7199 19.7003 20.7208 19.6912 20.7225L19.68 20.7249L19.6603 20.7307C19.6346 20.7393 19.6089 20.7521 19.5832 20.765C19.5382 20.7875 19.4932 20.8099 19.4484 20.8099H18.0993C18.008 20.8099 17.9629 20.8099 17.9408 20.7863C17.9195 20.7634 17.9195 20.7185 17.9195 20.63V11.18C17.9195 11 17.8294 10.73 17.5596 10.64H2.98942ZM19.9879 7.12996H19.6282C19.3584 7.21993 19.0885 7.48998 19.0885 7.75991C19.0885 8.02996 19.2686 8.20991 19.4484 8.3H20.2578C20.6177 8.3 20.7075 8.20991 20.7975 7.93998C20.8873 7.66993 20.7075 7.30991 20.4376 7.21993C20.2578 7.12996 20.168 7.12996 19.9879 7.12996ZM17.3797 7.12996C17.1099 7.21993 16.93 7.30991 16.84 7.66993C16.84 7.93998 16.93 8.20991 17.1999 8.20991C17.3797 8.3 17.5596 8.3 17.6496 8.3H18.0993C18.2791 8.3 18.549 8.11993 18.6388 7.75991C18.6388 7.57996 18.549 7.30991 18.3692 7.21993C18.3261 7.1984 18.2831 7.18203 18.2401 7.16962C18.1913 7.15555 18.1428 7.14644 18.0942 7.14061C18.006 7.12996 17.9177 7.12996 17.8294 7.12996H17.3797Z" fill="#798D9F"/>
<path d="M7.21653 25.76C7.12651 25.58 7.12651 25.49 7.0367 25.31C6.85664 24.86 6.67681 24.32 6.49697 23.87C6.40695 23.69 6.40695 23.42 6.31714 23.24C6.22711 22.97 6.22711 22.7 6.22711 22.43C6.22711 22.25 6.22711 22.25 6.04728 22.25H2.17984C2.09003 22.25 2 22.25 2 22.43V22.79C2.09003 23.06 2.26986 23.33 2.4497 23.6C2.48395 23.6457 2.51667 23.6928 2.54829 23.7411C2.59791 23.8164 2.64468 23.8943 2.69036 23.9734L2.75799 24.0925L2.80937 24.185C2.85065 24.2593 2.89193 24.3336 2.93409 24.4067C3.00721 24.5331 3.08362 24.6561 3.16926 24.77C3.25907 24.9499 3.34887 25.1073 3.43868 25.2648C3.52871 25.4223 3.61874 25.5798 3.70876 25.76H7.21653Z" fill="#798D9F"/>
<path d="M24.7095 28.0099C24.6647 27.9875 24.6197 27.965 24.5747 27.92C24.4361 27.8507 24.2976 27.7681 24.154 27.6824C23.9247 27.5454 23.6823 27.4007 23.4056 27.29C23.136 27.1102 22.844 26.9304 22.5519 26.7505L22.2243 26.5482C22.133 26.4913 22.0423 26.4344 21.9533 26.3775C21.8662 26.3216 21.7803 26.2658 21.6967 26.21H21.5168V26.3C21.3816 26.5255 21.2463 26.7736 21.1113 27.0217C21.0258 27.1784 20.9404 27.3349 20.855 27.4859L20.7964 27.5881C20.7667 27.6397 20.7371 27.6904 20.7075 27.74C20.4376 28.2801 19.9879 28.82 19.4482 29.1801C18.9087 29.54 18.1891 29.81 17.5596 29.81H14.6813C14.6003 29.81 14.5437 29.81 14.5039 29.815C14.4688 29.8193 14.447 29.8274 14.4337 29.8429C14.4297 29.8473 14.4266 29.8523 14.424 29.858C14.42 29.8666 14.4172 29.8767 14.4154 29.8887C14.4132 29.9027 14.4124 29.9193 14.4119 29.9389L14.4117 29.99C14.3735 30.1428 14.319 30.2956 14.2622 30.4552C14.1851 30.6718 14.1036 30.901 14.0518 31.16C14.0072 31.3832 13.9405 31.6063 13.8737 31.8294L13.8362 31.955C13.7813 32.14 13.729 32.325 13.6921 32.51L13.4223 33.32C13.3773 33.5448 13.3098 33.7472 13.2424 33.9494C13.175 34.1521 13.1076 34.3548 13.0626 34.5801C12.8825 35.12 12.7027 35.66 12.5229 36.29C12.4328 36.74 12.253 37.1 12.1632 37.55C12.1632 37.6401 12.1406 37.7077 12.118 37.7751C12.1079 37.8058 12.0978 37.8364 12.0896 37.8692C12.08 37.9085 12.0732 37.9509 12.0732 38H18.0093C18.3689 37.91 18.7286 37.91 18.9985 37.7301C19.5382 37.46 20.0777 37.1 20.4376 36.56C20.6174 36.29 20.7973 36.02 20.8873 35.75C20.9802 35.6107 21.0669 35.4653 21.1508 35.3171L21.2193 35.1952L21.2863 35.0726L21.382 34.8948C21.5394 34.6024 21.6967 34.3099 21.8765 34.04C22.0019 33.8205 22.1163 33.6119 22.2274 33.4067L22.3727 33.1371C22.5297 32.8455 22.6867 32.554 22.8659 32.24C23.0005 31.9706 23.1351 31.7236 23.2697 31.4768C23.405 31.2287 23.5402 30.9806 23.6753 30.71C23.802 30.4567 23.9484 30.1834 24.096 29.9091L24.1474 29.8139C24.2332 29.6538 24.3191 29.4941 24.401 29.3384C24.4616 29.2229 24.52 29.1096 24.5747 29C24.6647 28.7301 24.8445 28.55 24.9346 28.2801C24.9732 28.2412 24.9954 28.2191 24.9934 28.1993C24.9919 28.1831 24.9743 28.1684 24.9363 28.1472L24.9205 28.1387L24.8827 28.1192L24.8445 28.1C24.829 28.0844 24.8134 28.0715 24.7978 28.0604L24.7839 28.0508L24.7681 28.041L24.7556 28.0338C24.7402 28.0253 24.7249 28.0176 24.7095 28.0099Z" fill="#798D9F"/>
<path d="M10.1844 29.9H7.03648C6.67681 29.9 6.31692 29.99 6.04728 30.08C6.00446 30.0943 5.95923 30.1086 5.91333 30.123L5.90938 30.1243C5.66499 30.2017 5.38832 30.2894 5.23769 30.44L5.23571 30.4413C5.12922 30.5213 5.02272 30.6014 4.91842 30.6838C4.80732 30.7717 4.69862 30.8622 4.59564 30.9583C4.56073 30.9909 4.52647 31.0241 4.49288 31.0582C4.46565 31.0858 4.43886 31.1139 4.41251 31.1426C4.35498 31.2055 4.30009 31.2711 4.24849 31.34C3.8886 31.88 3.70876 32.42 3.52893 33.05C3.4389 33.32 3.34909 33.59 3.34909 33.77C3.34909 33.8557 3.32867 33.962 3.30737 34.0691C3.28388 34.1869 3.25907 34.3057 3.25907 34.4C3.25907 34.67 3.25907 34.94 3.34909 35.12L3.61874 35.93C3.8886 36.56 4.33829 37.01 4.96783 37.37C5.32772 37.64 5.77741 37.82 6.22711 37.82C6.31692 37.82 6.49697 37.82 6.67681 37.91H7.93587L8.0259 37.82C8.06016 37.7515 8.09441 37.67 8.12361 37.5853C8.17126 37.4475 8.20574 37.3015 8.20574 37.19L8.4756 36.11C8.56541 35.75 8.65543 35.39 8.74546 35.12L8.80102 34.9005C8.87545 34.6137 8.96197 34.3268 9.10513 34.04L9.10711 34.0308C9.1754 33.7576 9.24369 33.4849 9.31198 33.2519C9.33306 33.1805 9.35391 33.1128 9.37499 33.05L9.37697 33.0431C9.46612 32.7753 9.55549 32.5069 9.64486 32.15L9.64749 32.1398C9.73642 31.7831 9.82557 31.4257 9.9145 30.98L10.1844 29.9Z" fill="#798D9F"/>
<path d="M36.762 34.9396C36.9192 34.8498 37.0764 34.7599 37.2562 34.6699L37.2611 34.6659L37.2681 34.6608C37.2734 34.6573 37.2806 34.6529 37.2901 34.6481C37.3111 34.6372 37.3436 34.6238 37.3913 34.6118C37.4602 34.5945 37.5612 34.58 37.7059 34.58V35.84C37.7059 36.29 37.5261 36.65 37.1662 36.9199C36.8065 37.28 36.3568 37.4599 35.8171 37.64C35.3685 37.7297 35.0095 37.8195 34.6505 37.9093L34.6479 37.9099C34.3782 38 34.1982 38 33.9285 38H33.1189C33.0362 37.9834 32.9564 37.9699 32.8794 37.9584C32.7597 37.9403 32.6457 37.9269 32.536 37.9141C32.4334 37.9021 32.3342 37.8905 32.2367 37.8757C32.1398 37.8612 32.0448 37.8438 31.9497 37.8199C31.8862 37.8073 31.8247 37.7947 31.7648 37.7817C31.6895 37.7654 31.6168 37.749 31.5459 37.7315L31.4556 37.7083L31.3981 37.6928C31.3173 37.6704 31.2387 37.6462 31.1616 37.6195C31.0323 37.5747 30.9065 37.5229 30.7806 37.4599C30.6425 37.3908 30.5044 37.3217 30.3713 37.2474C30.1577 37.1285 29.9574 36.9963 29.7912 36.83C29.5214 36.5599 29.3415 36.2 29.3415 35.84V34.58H29.4315C29.4711 34.6096 29.5117 34.6382 29.5532 34.6659C29.607 34.7016 29.6625 34.7356 29.7192 34.7684C29.8255 34.8297 29.9364 34.8863 30.0505 34.9398C30.1768 34.9989 30.3068 35.0542 30.4383 35.1081C30.522 35.1425 30.6063 35.1762 30.6906 35.2099C31.0503 35.39 31.4102 35.48 31.8599 35.5699C32.4022 35.7056 32.9955 35.6879 33.5629 35.6709L33.5715 35.6706C33.7542 35.6652 33.934 35.6599 34.1084 35.6599C34.2434 35.6599 34.4006 35.6374 34.5581 35.6149L34.5613 35.6145C34.6516 35.6017 34.7414 35.5888 34.8273 35.5803C34.8903 35.5739 34.9509 35.5699 35.0078 35.5699C35.4574 35.48 35.8171 35.39 36.2668 35.2099C36.4469 35.1198 36.6045 35.0297 36.762 34.9396Z" fill="#798D9F"/>
<path d="M2.18005 16.4901H3.34909C3.52915 16.4901 3.70898 16.5801 3.79879 16.67C3.90155 16.7728 3.97511 16.9048 4.01903 17.0495C4.05218 17.1583 4.06865 17.2742 4.06865 17.3901C4.06865 17.4801 3.97884 17.57 3.88882 17.57H2.18005C2.15327 17.57 2.1346 17.57 2.12143 17.5724C2.11023 17.5743 2.1032 17.578 2.09859 17.5845C2.09003 17.5967 2.09003 17.619 2.09003 17.66V20.9901C2.38338 20.9901 2.67652 20.9901 2.95539 20.9756C3.04058 20.9712 3.12446 20.9655 3.20659 20.9579C3.35019 20.9447 3.48831 20.9261 3.61895 20.9C3.65892 20.9 3.71645 20.8823 3.77617 20.8547C3.85083 20.8202 3.92878 20.7701 3.97884 20.72C3.98609 20.7127 3.9929 20.7053 3.99905 20.698C4.00783 20.6876 4.01573 20.6773 4.02276 20.667C4.03088 20.6549 4.03813 20.6428 4.04494 20.6307L4.05658 20.6086L4.06843 20.5851C4.09105 20.5401 4.11367 20.495 4.15868 20.45C4.33851 20.0901 4.60838 19.91 5.05807 19.91H6.04728C6.07516 19.91 6.09449 19.91 6.10766 19.9074C6.1373 19.9013 6.1373 19.8821 6.1373 19.82V14.6C6.1373 14.5712 6.1373 14.5424 6.14016 14.5136C6.14653 14.4525 6.16607 14.3913 6.22733 14.3301C6.31714 13.97 6.49697 13.61 6.587 13.3401C6.67703 13.1151 6.74444 12.9126 6.81185 12.7101C6.85313 12.5861 6.89441 12.4622 6.94074 12.3332L6.98444 12.2145C7.00113 12.1706 7.01847 12.1258 7.0367 12.0801C7.0367 12.0429 7.05207 12.0057 7.07029 11.962L7.07161 11.9587C7.09686 11.8975 7.12673 11.8236 7.12673 11.72H2.62975L2.59155 11.7205L2.57749 11.7215L2.57025 11.7226C2.55092 11.7262 2.5439 11.7352 2.54126 11.7573L2.53994 11.7743L2.53972 11.81C2.50701 11.9081 2.47429 12.018 2.44596 12.1312C2.39634 12.3297 2.35989 12.5381 2.35989 12.71C2.35989 12.8 2.33749 12.8899 2.3151 12.9797L2.31444 12.9824L2.30917 13.0028C2.28875 13.0852 2.26986 13.1676 2.26986 13.25C2.26986 13.3839 2.24768 13.4958 2.22551 13.6074L2.22485 13.61C2.21738 13.6477 2.20992 13.6854 2.20333 13.7238C2.19828 13.7534 2.19367 13.7835 2.18994 13.8145L2.18532 13.8567C2.18203 13.8929 2.18005 13.9305 2.18005 13.97C2.18005 14.0731 2.17281 14.1761 2.16227 14.2771C2.15305 14.365 2.14141 14.4512 2.13021 14.5345L2.12889 14.5424L2.12692 14.5596C2.11462 14.6539 2.10276 14.7443 2.09596 14.8283C2.09222 14.8741 2.09003 14.9182 2.09003 14.96V16.22C2 16.4901 2 16.4901 2.18005 16.4901Z" fill="#798D9F"/>
<path d="M31.68 34.31C31.1403 34.2199 30.6006 34.04 30.1509 33.7699C29.8812 33.68 29.6114 33.5 29.4315 33.14C29.1617 32.78 29.0717 32.33 29.3415 31.88C29.4315 31.7 29.5214 31.5199 29.7012 31.43C30.1509 31.0699 30.6006 30.89 31.1403 30.71C31.2753 30.665 31.4328 30.6425 31.5902 30.6199C31.7474 30.5974 31.9049 30.5749 32.0397 30.53C32.1873 30.4807 32.3348 30.4584 32.4824 30.4483L32.5291 30.4455L32.5733 30.4435L32.6701 30.441C32.7298 30.44 32.7896 30.44 32.8491 30.44H34.1084C34.5581 30.53 35.0078 30.6199 35.3674 30.71C35.7273 30.8 36.087 30.89 36.3568 31.0699C36.4155 31.109 36.4783 31.1482 36.5426 31.1881C36.6427 31.2504 36.7464 31.3149 36.8432 31.3851C36.9708 31.4775 37.0863 31.5798 37.1662 31.7C37.346 31.9699 37.4361 32.33 37.346 32.69C37.2562 32.96 37.0764 33.23 36.8065 33.41C36.3568 33.7699 35.8171 33.95 35.2776 34.13C35.1742 34.1714 35.0756 34.208 34.9794 34.2398C34.8573 34.2802 34.7396 34.3131 34.6215 34.3383C34.5596 34.3514 34.4977 34.3624 34.4351 34.3713L34.3822 34.3784C34.2654 34.3927 34.1455 34.4 34.0183 34.4C33.7485 34.49 33.4788 34.49 33.209 34.49C32.7377 34.49 32.335 34.4214 31.8814 34.3441L31.68 34.31Z" fill="#798D9F"/>
<path d="M28.5322 21.53C27.9924 21.1699 27.5427 20.9 27.003 20.63C26.8847 20.5353 26.7601 20.4468 26.6328 20.3613C26.518 20.2842 26.4007 20.2095 26.2832 20.1348C26.036 19.9774 25.7887 19.8199 25.5641 19.64H25.3843C25.3456 19.6785 25.3237 19.7171 25.3039 19.7558C25.2776 19.8072 25.2556 19.8586 25.2042 19.91C25.0244 20.2699 24.8445 20.63 24.5747 20.99C24.215 21.53 23.8551 22.16 23.4955 22.7L23.47 22.7346L23.4296 22.7921C23.4116 22.8183 23.3942 22.8449 23.3769 22.8718L23.3314 22.944C23.2636 23.0549 23.1997 23.1699 23.1358 23.2849L23.0947 23.3591L23.0282 23.4768C23.0086 23.5109 22.9889 23.5447 22.9687 23.5784L22.9364 23.6316L22.9079 23.6775C22.8855 23.7128 22.8626 23.7477 22.8391 23.7818L22.8073 23.8269L22.7759 23.8699L22.7324 23.9553L22.6654 24.0826L22.5882 24.2251L22.4564 24.4633L22.4459 24.4826C22.3839 24.594 22.3222 24.7052 22.2647 24.8123C22.2226 24.8909 22.1826 24.9672 22.1464 25.04V25.2199C22.3262 25.31 22.4162 25.4 22.5961 25.49C22.7186 25.5717 22.8411 25.6488 22.9634 25.7234C23.1107 25.8131 23.2581 25.899 23.4054 25.9849C23.6248 26.113 23.8441 26.2411 24.0635 26.3812L24.1386 26.4294L24.215 26.48C24.2455 26.4953 24.2761 26.5114 24.3066 26.5279L24.3738 26.5649L24.4653 26.6176L24.5516 26.6694C24.6193 26.7104 24.6869 26.7527 24.7545 26.795L24.85 26.8549C24.8981 26.8847 24.9462 26.9142 24.9943 26.943C25.0944 27.003 25.1943 27.06 25.2942 27.11H25.3843C25.3843 27.0664 25.4053 27.0228 25.4271 26.9792L25.4297 26.9739C25.4519 26.9292 25.4741 26.8846 25.4741 26.84C25.834 26.1199 26.2837 25.4 26.6433 24.68L27.7226 22.79C27.9024 22.43 28.0825 22.0699 28.2623 21.8L28.2649 21.7987C28.4149 21.7235 28.5021 21.6798 28.5458 21.6478C28.6059 21.6039 28.584 21.5819 28.5322 21.53Z" fill="#798D9F"/>
<path d="M12.253 12.26L11.9832 13.07C11.8033 13.4301 11.7133 13.79 11.5335 14.06C11.5179 14.1222 11.5023 14.1818 11.4871 14.2395C11.4151 14.5161 11.3536 14.7522 11.3536 15.05V16.4C11.3536 16.49 11.3536 16.49 11.2636 16.49H7.39637L7.36431 16.4898C7.35421 16.4895 7.34587 16.489 7.33884 16.4878L7.3294 16.4856C7.32457 16.4839 7.32061 16.4817 7.31754 16.4787C7.30634 16.4675 7.30634 16.4449 7.30634 16.4V14.87C7.30634 14.69 7.39637 14.6 7.39637 14.42C7.48618 14.06 7.66601 13.7 7.75604 13.34L8.0259 12.5301C8.0259 12.4206 8.05906 12.2781 8.10517 12.1428C8.13503 12.0552 8.17038 11.9706 8.20574 11.9C8.26854 11.8372 8.28764 11.8183 8.32387 11.8125C8.33968 11.81 8.35856 11.81 8.38557 11.81H12.343C12.343 11.9075 12.343 11.9786 12.3288 12.0518C12.3224 12.0845 12.3132 12.1176 12.2998 12.1537L12.293 12.1716L12.2807 12.2008C12.2726 12.2195 12.2633 12.2391 12.253 12.26Z" fill="#798D9F"/>
<path d="M12.5229 25.76C12.4328 25.6699 12.4328 25.58 12.4328 25.4C12.4041 25.3276 12.3729 25.2529 12.3402 25.1766L12.3033 25.0915L12.2537 24.9794C12.2095 24.8806 12.1639 24.7803 12.1182 24.68L12.0354 24.4974L11.9656 24.3414C11.9074 24.2101 11.8521 24.0817 11.8033 23.96C11.7133 23.6 11.5335 23.24 11.4436 22.88C11.3947 22.733 11.3723 22.5593 11.3622 22.388C11.3593 22.3396 11.3574 22.2915 11.356 22.2442C11.3549 22.2002 11.3543 22.1569 11.3541 22.115L11.3536 21.98V21.53C11.3536 21.44 11.3536 21.44 11.2636 21.44H7.39637C7.30634 21.44 7.30634 21.44 7.30634 21.53V22.25C7.30634 22.472 7.3406 22.7283 7.38781 22.9766C7.41723 23.1309 7.4517 23.2821 7.48618 23.4199C7.5762 23.6901 7.68863 23.9601 7.80105 24.2302C7.91348 24.5001 8.0259 24.77 8.11571 25.04C8.21101 25.1353 8.28105 25.2307 8.33924 25.3395C8.39106 25.4359 8.43322 25.543 8.4756 25.6699C8.4756 25.76 8.56541 25.76 8.65543 25.76H12.5229Z" fill="#798D9F"/>
<path d="M16.66 11.9C16.75 11.9 16.75 11.9 16.75 11.99V14.96C16.75 15.05 16.75 15.14 16.66 15.14C16.4349 15.2301 16.2098 15.2976 15.9848 15.3651C15.7601 15.4325 15.5355 15.5 15.3109 15.59L15.0384 15.6585C14.8987 15.694 14.7628 15.7295 14.6361 15.765C14.5228 15.7966 14.4167 15.8284 14.3217 15.86C14.2749 15.8717 14.2281 15.8849 14.1814 15.8992C14.1181 15.9187 14.0549 15.9401 13.9916 15.9627C13.9216 15.9877 13.8515 16.0139 13.7815 16.0402C13.6017 16.1077 13.4221 16.175 13.2424 16.22C13.2251 16.2287 13.2077 16.2365 13.1904 16.2437C13.1634 16.2548 13.1366 16.2643 13.1098 16.2728L13.0558 16.2886L12.9728 16.3099C12.8828 16.3324 12.7927 16.355 12.7027 16.4V14.78C12.8825 14.33 13.0624 13.79 13.2424 13.34C13.3322 12.98 13.5121 12.62 13.6021 12.26C13.6021 12.17 13.6921 12.08 13.6921 11.99L13.6924 11.9561L13.6937 11.9359C13.6948 11.9282 13.6963 11.9222 13.6987 11.9175C13.7 11.9151 13.7016 11.913 13.7036 11.9112C13.709 11.9058 13.7169 11.903 13.7288 11.9015L13.7534 11.9001L13.7819 11.9H16.66Z" fill="#798D9F"/>
<path d="M16.75 19.9099C16.66 20.09 16.75 20.09 16.75 20.09V19.9099Z" fill="#798D9F"/>
<path d="M16.75 19.9099V16.13H16.66L15.8506 16.4C15.754 16.4323 15.6455 16.4761 15.534 16.5232L15.2547 16.6422C15.1976 16.6662 15.1414 16.6893 15.0873 16.7103C15.0401 16.7286 14.9945 16.7454 14.9512 16.7599C14.5915 16.94 14.2316 17.03 13.872 17.1199C13.6919 17.165 13.5121 17.2325 13.3322 17.3001C13.1524 17.3676 12.9726 17.435 12.7927 17.48C12.7517 17.48 12.7293 17.4987 12.7172 17.5192C12.7106 17.5302 12.7071 17.5418 12.7051 17.5511C12.7027 17.5621 12.7027 17.5699 12.7027 17.5699V19.8199C12.7027 19.8586 12.7027 19.8807 12.71 19.8932C12.7137 19.8999 12.7194 19.9039 12.7284 19.9063C12.7418 19.9099 12.762 19.9099 12.7927 19.9099H16.75Z" fill="#798D9F"/>
<path d="M12.6129 22.7V21.9801C12.6129 21.8901 12.6129 21.71 12.7029 21.71C12.7029 21.6926 12.7029 21.6785 12.7036 21.6672C12.7056 21.6336 12.7133 21.6239 12.7436 21.6211C12.7558 21.62 12.7719 21.62 12.7927 21.62C13.1526 21.62 13.6023 21.71 13.962 21.8901C14.1789 22.053 14.4288 22.1832 14.6917 22.3201C14.7832 22.3678 14.8765 22.4163 14.9705 22.4673C15.0537 22.5126 15.1374 22.5597 15.2211 22.61C15.3111 22.6551 15.3954 22.7057 15.4756 22.7606C15.5915 22.8401 15.6986 22.9284 15.8012 23.0212C15.9112 23.1207 16.0159 23.2254 16.1205 23.3301C16.3001 23.5097 16.3899 23.779 16.4797 24.0484L16.4803 24.05V24.32C16.4803 24.3601 16.4626 24.418 16.4349 24.4779C16.4002 24.5525 16.3504 24.6302 16.3005 24.6801L15.7608 25.4901C15.7415 25.5094 15.7263 25.5288 15.7136 25.5481C15.6964 25.5738 15.6835 25.5995 15.6705 25.6252C15.6481 25.6702 15.6257 25.7151 15.581 25.76C15.581 25.85 15.4909 25.85 15.4011 25.85H13.962C13.872 25.85 13.7822 25.76 13.7822 25.67C13.6928 25.4914 13.6036 25.224 13.5143 24.9559L13.5123 24.95C13.3325 24.5901 13.1526 24.1401 12.9726 23.7801C12.7932 23.4209 12.7034 23.0618 12.6136 22.7026L12.6129 22.7Z" fill="#798D9F"/>
<path d="M11.3536 17.5699H7.39637C7.30634 17.5699 7.30634 17.5699 7.30634 17.6599V19.9099C7.30634 19.9542 7.30634 19.9767 7.3171 19.9881C7.32808 20 7.35048 20 7.39637 20H11.3536V17.5699Z" fill="#798D9F"/>
<path d="M11.3536 17.5699V17.48C11.3934 17.5196 11.398 17.5418 11.3907 17.5542C11.3817 17.5699 11.3536 17.5699 11.3536 17.5699Z" fill="#798D9F"/>
</svg>
