<svg width="32" height="32" viewBox="0 0 32 32" fill="none" xmlns="http://www.w3.org/2000/svg">
<path d="M14.8382 1C17.444 1.00001 19.9968 1.73574 22.2029 3.12253C24.4089 4.50932 26.1787 6.49082 27.3083 8.83898C28.438 11.1871 28.8817 13.8065 28.5884 16.3957C28.2951 18.985 27.2767 21.4387 25.6504 23.4747L30.6706 28.4964C30.8174 28.6383 30.9346 28.8079 31.0152 28.9955C31.0957 29.1831 31.1382 29.3849 31.1399 29.589C31.1417 29.7932 31.1028 29.9956 31.0255 30.1846C30.9482 30.3736 30.834 30.5452 30.6897 30.6896C30.5453 30.834 30.3736 30.9481 30.1847 31.0255C29.9957 31.1028 29.7932 31.1417 29.5891 31.1399C29.3849 31.1381 29.1831 31.0957 28.9956 31.0151C28.808 30.9345 28.6383 30.8174 28.4965 30.6706L23.4748 25.6504C21.7476 27.03 19.7151 27.9758 17.5473 28.4085C15.3796 28.8413 13.1397 28.7485 11.0152 28.1378C8.89073 27.5271 6.94345 26.4164 5.3364 24.8985C3.72935 23.3807 2.50929 21.5 1.77837 19.4138C1.04746 17.3276 0.826945 15.0967 1.1353 12.9078C1.44366 10.7189 2.27191 8.63571 3.55072 6.83264C4.82953 5.02958 6.52167 3.5591 8.4855 2.54433C10.4493 1.52955 12.6277 0.999994 14.8382 1ZM14.8382 4.07515C13.4247 4.07506 12.0251 4.3534 10.7192 4.89425C9.41328 5.43511 8.2267 6.22789 7.2272 7.22734C6.22769 8.22679 5.43484 9.41332 4.89391 10.7192C4.35298 12.0251 4.07457 13.4247 4.07457 14.8382C4.07457 16.2516 4.35298 17.6513 4.89391 18.9571C5.43484 20.263 6.22769 21.4495 7.2272 22.449C8.2267 23.4484 9.41328 24.2412 10.7192 24.7821C12.0251 25.3229 13.4247 25.6013 14.8382 25.6012C17.6926 25.601 20.4301 24.467 22.4484 22.4485C24.4667 20.4301 25.6006 17.6926 25.6006 14.8382C25.6006 11.9837 24.4667 9.24622 22.4484 7.22778C20.4301 5.20934 17.6926 4.07531 14.8382 4.07515Z" fill="#7D8086"/>
</svg>
