<svg width="49" height="48" viewBox="0 0 49 48" fill="none" xmlns="http://www.w3.org/2000/svg">
<path fill-rule="evenodd" clip-rule="evenodd" d="M17.8049 13.0516L11.1977 24.0525L17.7954 34.9484H38.033V13.0516H17.8049ZM18.183 35.5885L18.1821 35.5871L18.183 35.5885ZM39.3553 9H17.0647C16.145 9 15.2913 9.48803 14.8104 10.2887L7.39034 22.6431C6.86807 23.5126 6.87003 24.6085 7.39539 25.4762L14.8091 37.7196C15.2911 38.5156 16.1421 39 17.0584 39H39.3553C40.8159 39 42 37.7907 42 36.2989V11.7011C42 10.2093 40.8159 9 39.3553 9Z" fill="#798D9F"/>
<path d="M20.3051 31.6402C19.5305 30.8491 19.5305 29.5664 20.3051 28.7753L32.4605 16.3606C33.2351 15.5694 34.4909 15.5694 35.2655 16.3606C36.0401 17.1517 36.0401 18.4344 35.2655 19.2255L23.1102 31.6402C22.3356 32.4314 21.0797 32.4314 20.3051 31.6402Z" fill="#798D9F"/>
<path d="M35.2636 31.6402C36.0382 30.8491 36.0382 29.5664 35.2636 28.7753L23.1083 16.3606C22.3337 15.5694 21.0778 15.5694 20.3032 16.3606C19.5286 17.1517 19.5286 18.4344 20.3032 19.2255L32.4586 31.6402C33.2332 32.4314 34.489 32.4314 35.2636 31.6402Z" fill="#798D9F"/>
</svg>
