<svg width="48" height="48" viewBox="0 0 48 48" fill="none" xmlns="http://www.w3.org/2000/svg">
<path fill-rule="evenodd" clip-rule="evenodd" d="M1 13.8987C1 11.1932 3.18671 9 5.88414 9H42.9159C45.6133 9 47.8 11.1932 47.8 13.8987V27.7633C47.8 28.6651 47.0711 29.3962 46.172 29.3962C45.2728 29.3962 44.5439 28.6651 44.5439 27.7633V13.8987C44.5439 12.9969 43.815 12.2658 42.9159 12.2658H5.88414C4.985 12.2658 4.25609 12.9969 4.25609 13.8987V27.7633C4.25609 28.6651 3.52719 29.3962 2.62805 29.3962C1.7289 29.3962 1 28.6651 1 27.7633V13.8987Z" fill="#798D9F"/>
<path d="M7.91284 15.9558C7.91284 15.5049 8.27729 15.1393 8.72686 15.1393H11.1689C11.6185 15.1393 11.983 15.5049 11.983 15.9558V18.4052C11.983 18.8561 11.6185 19.2216 11.1689 19.2216H8.72686C8.27729 19.2216 7.91284 18.8561 7.91284 18.4052V15.9558Z" fill="#798D9F"/>
<path d="M7.91284 23.2808C7.91284 22.8298 8.27729 22.4643 8.72686 22.4643H11.1689C11.6185 22.4643 11.983 22.8298 11.983 23.2808V25.7301C11.983 26.181 11.6185 26.5466 11.1689 26.5466H8.72686C8.27729 26.5466 7.91284 26.181 7.91284 25.7301V23.2808Z" fill="#798D9F"/>
<path d="M22.5653 15.9558C22.5653 15.5049 22.9297 15.1393 23.3793 15.1393H25.8214C26.2709 15.1393 26.6354 15.5049 26.6354 15.9558V18.4052C26.6354 18.8561 26.2709 19.2216 25.8214 19.2216H23.3793C22.9297 19.2216 22.5653 18.8561 22.5653 18.4052V15.9558Z" fill="#798D9F"/>
<path d="M22.5653 23.2808C22.5653 22.8298 22.9297 22.4643 23.3793 22.4643H25.8214C26.2709 22.4643 26.6354 22.8298 26.6354 23.2808V25.7301C26.6354 26.181 26.2709 26.5466 25.8214 26.5466H23.3793C22.9297 26.5466 22.5653 26.181 22.5653 25.7301V23.2808Z" fill="#798D9F"/>
<path d="M15.2391 15.9558C15.2391 15.5049 15.6035 15.1393 16.0531 15.1393H18.4951C18.9447 15.1393 19.3092 15.5049 19.3092 15.9558V18.4052C19.3092 18.8561 18.9447 19.2216 18.4951 19.2216H16.0531C15.6035 19.2216 15.2391 18.8561 15.2391 18.4052V15.9558Z" fill="#798D9F"/>
<path d="M15.2391 23.2808C15.2391 22.8298 15.6035 22.4643 16.0531 22.4643H18.4951C18.9447 22.4643 19.3092 22.8298 19.3092 23.2808V25.7301C19.3092 26.181 18.9447 26.5466 18.4951 26.5466H16.0531C15.6035 26.5466 15.2391 26.181 15.2391 25.7301V23.2808Z" fill="#798D9F"/>
<path d="M29.8915 15.9558C29.8915 15.5049 30.2559 15.1393 30.7055 15.1393H33.1476C33.5971 15.1393 33.9616 15.5049 33.9616 15.9558V18.4052C33.9616 18.8561 33.5971 19.2216 33.1476 19.2216H30.7055C30.2559 19.2216 29.8915 18.8561 29.8915 18.4052V15.9558Z" fill="#798D9F"/>
<path d="M29.8915 23.2808C29.8915 22.8298 30.2559 22.4643 30.7055 22.4643H33.1476C33.5971 22.4643 33.9616 22.8298 33.9616 23.2808V25.7301C33.9616 26.181 33.5971 26.5466 33.1476 26.5466H30.7055C30.2559 26.5466 29.8915 26.181 29.8915 25.7301V23.2808Z" fill="#798D9F"/>
<path d="M37.2177 15.9558C37.2177 15.5049 37.5821 15.1393 38.0317 15.1393H40.4738C40.9234 15.1393 41.2878 15.5049 41.2878 15.9558V18.4052C41.2878 18.8561 40.9234 19.2216 40.4738 19.2216H38.0317C37.5821 19.2216 37.2177 18.8561 37.2177 18.4052V15.9558Z" fill="#798D9F"/>
<path d="M37.2177 23.2808C37.2177 22.8298 37.5821 22.4643 38.0317 22.4643H40.4738C40.9234 22.4643 41.2878 22.8298 41.2878 23.2808V25.7301C41.2878 26.181 40.9234 26.5466 40.4738 26.5466H38.0317C37.5821 26.5466 37.2177 26.181 37.2177 25.7301V23.2808Z" fill="#798D9F"/>
<path d="M11.1184 31.1558C11.4983 30.3385 12.467 29.9849 13.2819 30.366L25.086 35.8868C25.9009 36.2679 26.2535 37.2395 25.8735 38.0568C25.4935 38.8741 24.5248 39.2278 23.7099 38.8466L11.9058 33.3258C11.0909 32.9447 10.7384 31.9732 11.1184 31.1558Z" fill="#798D9F"/>
<path d="M37.6815 31.1558C37.3015 30.3385 36.3328 29.9849 35.5179 30.366L23.7138 35.8868C22.8989 36.2679 22.5464 37.2395 22.9264 38.0568C23.3064 38.8741 24.275 39.2278 25.0899 38.8466L36.894 33.3258C37.7089 32.9447 38.0615 31.9732 37.6815 31.1558Z" fill="#798D9F"/>
</svg>
