<svg width="34" height="27" viewBox="0 0 34 27" fill="none" xmlns="http://www.w3.org/2000/svg">
<path fill-rule="evenodd" clip-rule="evenodd" d="M30.9456 7.96081H3.05437C2.56607 7.96081 2.17021 8.35666 2.17021 8.84497V22.9915C2.17021 23.4799 2.56607 23.8757 3.05437 23.8757H30.9456C31.4339 23.8757 31.8298 23.4799 31.8298 22.9915V8.84497C31.8298 8.35667 31.4339 7.96081 30.9456 7.96081ZM3.05437 5.7906C1.36749 5.7906 0 7.15809 0 8.84497V22.9915C0 24.6784 1.36749 26.0459 3.05437 26.0459H30.9456C32.6325 26.0459 34 24.6784 34 22.9915V8.84497C34 7.15809 32.6325 5.7906 30.9456 5.7906H3.05437Z" fill="#FDFDFD"/>
<path d="M22.6206 13.1546C22.6206 12.6828 23.0341 12.3004 23.5443 12.3004H27.5025C27.8672 12.3004 28.1628 12.5738 28.1628 12.911C28.1628 13.2482 27.8672 13.5216 27.5025 13.5216H24.2226V15.6536H27.1345C27.4693 15.6536 27.7407 15.9045 27.7407 16.2141C27.7407 16.5237 27.4693 16.7746 27.1345 16.7746H24.2226V19.0467H27.5621C27.9238 19.0467 28.217 19.3179 28.217 19.6523C28.217 19.9868 27.9238 20.2579 27.5621 20.2579H23.7685C23.1345 20.2579 22.6206 19.7826 22.6206 19.1964V13.1546Z" fill="#FDFDFD"/>
<path d="M14.8446 13.2553C14.6899 12.7795 15.0751 12.3004 15.6124 12.3004C15.9881 12.3004 16.3134 12.5416 16.395 12.8806L17.7563 18.5323C17.8175 18.7861 18.061 18.9667 18.3422 18.9667C18.6006 18.9667 18.8242 18.8004 18.8796 18.5671L20.2297 12.8853C20.3109 12.5437 20.6381 12.3004 21.0163 12.3004C21.5563 12.3004 21.9433 12.7823 21.7873 13.2603L19.8466 19.2045C19.6424 19.8299 19.0193 20.2579 18.3127 20.2579C17.6054 20.2579 16.9819 19.8291 16.7782 19.2028L14.8446 13.2553Z" fill="#FDFDFD"/>
<path d="M12.1307 13.0311C12.1307 12.6276 12.4844 12.3004 12.9209 12.3004C13.3573 12.3004 13.7111 12.6276 13.7111 13.0311V19.5272C13.7111 19.9307 13.3573 20.2579 12.9209 20.2579C12.4844 20.2579 12.1307 19.9307 12.1307 19.5272V13.0311Z" fill="#FDFDFD"/>
<path d="M5.79143 13.0311C5.79143 12.6276 6.14522 12.3004 6.58164 12.3004C7.01806 12.3004 7.37185 12.6276 7.37185 13.0311V19.0467H10.484C10.8457 19.0467 11.1389 19.3179 11.1389 19.6523C11.1389 19.9868 10.8457 20.2579 10.484 20.2579H6.53468C6.1242 20.2579 5.79143 19.9502 5.79143 19.5706V13.0311Z" fill="#FDFDFD"/>
<path d="M11.7448 2.2912C11.5289 2.448 11.5289 2.70222 11.7448 2.85901L16.6155 6.39557C16.8314 6.55237 17.1815 6.55237 17.3975 6.39557C17.6134 6.23877 17.6134 5.98455 17.3975 5.82775L12.5268 2.2912C12.3109 2.1344 11.9608 2.1344 11.7448 2.2912Z" fill="#FDFDFD"/>
<path d="M22.272 2.2912C22.4879 2.448 22.4879 2.70222 22.272 2.85901L17.4001 6.39643C17.1842 6.55322 16.8341 6.55322 16.6181 6.39643C16.4022 6.23963 16.4022 5.98541 16.6181 5.82861L21.49 2.2912C21.7059 2.1344 22.056 2.1344 22.272 2.2912Z" fill="#FDFDFD"/>
<path fill-rule="evenodd" clip-rule="evenodd" d="M12.5268 2.2912C12.3109 2.1344 11.9608 2.1344 11.7448 2.2912C11.5289 2.448 11.5289 2.70222 11.7448 2.85901L16.6155 6.39557C16.6162 6.39609 16.6174 6.39591 16.6181 6.39643C16.6673 6.43177 16.7229 6.45973 16.7827 6.47893C16.9855 6.54498 17.2319 6.5178 17.3988 6.39739C17.3992 6.39707 17.3997 6.39675 17.4001 6.39643L22.272 2.85901C22.4879 2.70222 22.4879 2.448 22.272 2.2912C22.056 2.1344 21.7059 2.1344 21.49 2.2912L17.0084 5.54524L12.5268 2.2912ZM17.0084 4.65125L12.9519 1.70583C12.6986 1.52193 12.4008 1.4502 12.1358 1.4502C11.8709 1.4502 11.573 1.52193 11.3198 1.70583C11.0588 1.89529 10.8595 2.20116 10.8595 2.57511C10.8595 2.94905 11.0588 3.25492 11.3198 3.44438L16.1904 6.98094C16.3066 7.06528 16.4321 7.12602 16.5595 7.16708C16.7108 7.21616 16.8648 7.23743 17.0091 7.23743C17.2741 7.23743 17.5719 7.16569 17.8252 6.9818L22.697 3.44438C22.9579 3.25492 23.1573 2.94905 23.1573 2.57511C23.1573 2.20116 22.9579 1.89529 22.697 1.70583C22.4437 1.52193 22.1459 1.4502 21.881 1.4502C21.616 1.4502 21.3182 1.52193 21.0649 1.70583L17.0084 4.65125Z" fill="#FDFDFD"/>
</svg>
