<svg width="26" height="26" viewBox="0 0 26 26" fill="none" xmlns="http://www.w3.org/2000/svg">
<path d="M0.388069 11.162C-0.129356 11.7129 -0.129356 12.6062 0.388069 13.1572L12.0585 25.5838C12.576 26.1347 13.4149 26.1347 13.9323 25.5838C14.4497 25.0328 14.4497 24.1396 13.9323 23.5886L2.26183 11.162C1.74441 10.611 0.905495 10.611 0.388069 11.162Z" fill="#798D9F"/>
<path d="M25.6119 11.162C26.1294 11.7129 26.1294 12.6062 25.6119 13.1572L13.9386 25.5868C13.4212 26.1377 12.5823 26.1377 12.0649 25.5868C11.5475 25.0358 11.5475 24.1426 12.0649 23.5916L23.7382 11.162C24.2556 10.611 25.0945 10.611 25.6119 11.162Z" fill="#798D9F"/>
<path d="M0.388069 0.413214C-0.129356 0.964164 -0.129356 1.85743 0.388069 2.40838L12.0585 14.835C12.576 15.3859 13.4149 15.3859 13.9323 14.835C14.4497 14.284 14.4497 13.3908 13.9323 12.8398L2.26183 0.413213C1.74441 -0.137738 0.905495 -0.137737 0.388069 0.413214Z" fill="#798D9F"/>
<path d="M25.6119 0.413214C26.1294 0.964164 26.1294 1.85743 25.6119 2.40838L13.9386 14.838C13.4212 15.389 12.5823 15.389 12.0649 14.838C11.5474 14.2871 11.5474 13.3938 12.0649 12.8428L23.7382 0.413213C24.2556 -0.137738 25.0945 -0.137737 25.6119 0.413214Z" fill="#798D9F"/>
</svg>
