<svg width="18" height="16" viewBox="0 0 18 16" fill="none" xmlns="http://www.w3.org/2000/svg">
<path d="M0 4.30463C0 3.68041 0.447714 3.17438 0.999997 3.17438H11.25V1.13224C11.25 0.212928 12.1693 -0.321819 12.8312 0.21252L17.5808 3.95003C18.3724 4.58913 17.9724 6 16.9995 6H0.999997C0.447714 6 0 5.49397 0 4.86975V4.30463Z" fill="#01AFF6"/>
<path d="M18.002 11.6954C18.002 12.3196 17.5542 12.8256 17.002 12.8256H6.75199V14.8678C6.75199 15.7871 5.83262 16.3218 5.17076 15.7875L0.421202 12.05C-0.370428 11.4109 0.0296001 10 1.00244 10H17.002C17.5542 10 18.002 10.506 18.002 11.1302V11.6954Z" fill="#798D9F"/>
</svg>
