<svg width="40" height="26" viewBox="0 0 40 26" fill="none" xmlns="http://www.w3.org/2000/svg">
<path fill-rule="evenodd" clip-rule="evenodd" d="M4 0.5C1.79086 0.5 0 2.29086 0 4.5V21.5C0 23.7091 1.79086 25.5 4 25.5H19V18.4C16.7178 17.9367 15 15.919 15 13.5C15 11.081 16.7178 9.06329 19 8.60002V0.5H4ZM21 0.5V8.60002C23.2822 9.06329 25 11.081 25 13.5C25 15.919 23.2822 17.9367 21 18.4V25.5H36C38.2091 25.5 40 23.7091 40 21.5V4.5C40 2.29086 38.2091 0.5 36 0.5H21ZM35 9.5C34.4477 9.5 34 9.94772 34 10.5V15.5C34 16.0523 34.4477 16.5 35 16.5C35.5523 16.5 36 16.0523 36 15.5V10.5C36 9.94772 35.5523 9.5 35 9.5ZM4 10.5C4 9.94772 4.44772 9.5 5 9.5C5.55228 9.5 6 9.94772 6 10.5V15.5C6 16.0523 5.55228 16.5 5 16.5C4.44772 16.5 4 16.0523 4 15.5V10.5Z" fill="#FDFDFD"/>
</svg>
