<svg width="33" height="32" viewBox="0 0 33 32" fill="none" xmlns="http://www.w3.org/2000/svg">
<rect x="1.03857" y="7" width="30" height="20" rx="1.8747" stroke="#798D9F" stroke-width="2"/>
<path d="M22.0107 13.8293C22.0107 13.2958 22.4533 12.8633 22.9992 12.8633H27.2354C27.6257 12.8633 27.9421 13.1725 27.9421 13.5538C27.9421 13.9352 27.6257 14.2444 27.2354 14.2444H23.7252V16.6557H26.8415C27.1998 16.6557 27.4903 16.9396 27.4903 17.2897C27.4903 17.6398 27.1998 17.9237 26.8415 17.9237H23.7252V20.4935H27.2991C27.6862 20.4935 28 20.8001 28 21.1784C28 21.5566 27.6862 21.8633 27.2991 21.8633H23.2393C22.5607 21.8633 22.0107 21.3258 22.0107 20.6627V13.8293Z" fill="url(#paint0_linear_9454_18021)"/>
<path d="M13.6888 13.9432C13.5232 13.4051 13.9355 12.8633 14.5105 12.8633C14.9125 12.8633 15.2607 13.136 15.3481 13.5195L16.8049 19.9116C16.8704 20.1987 17.131 20.4029 17.432 20.4029C17.7085 20.4029 17.9477 20.2149 18.0071 19.951L19.452 13.5248C19.5388 13.1385 19.889 12.8633 20.2938 12.8633C20.8717 12.8633 21.2859 13.4082 21.1189 13.9489L19.042 20.6719C18.8235 21.3793 18.1565 21.8633 17.4004 21.8633C16.6435 21.8633 15.9761 21.3783 15.7582 20.67L13.6888 13.9432Z" fill="url(#paint1_linear_9454_18021)"/>
<path d="M10.7843 13.6897C10.7843 13.2333 11.1629 12.8633 11.63 12.8633C12.097 12.8633 12.4757 13.2333 12.4757 13.6897V21.0369C12.4757 21.4933 12.097 21.8633 11.63 21.8633C11.1629 21.8633 10.7843 21.4933 10.7843 21.0369V13.6897Z" fill="url(#paint2_linear_9454_18021)"/>
<path d="M4 13.6897C4 13.2333 4.37863 12.8633 4.84569 12.8633C5.31275 12.8633 5.69138 13.2333 5.69138 13.6897V20.4935H9.02199C9.40908 20.4935 9.72287 20.8001 9.72287 21.1784C9.72287 21.5566 9.40908 21.8633 9.02199 21.8633H4.79544C4.35613 21.8633 4 21.5153 4 21.086V13.6897Z" fill="url(#paint3_linear_9454_18021)"/>
<rect x="7.03857" y="3" width="6.74494" height="2" rx="1" transform="rotate(30 7.03857 3)" fill="#798D9F"/>
<rect width="6.73761" height="2" rx="1" transform="matrix(-0.866025 0.5 0.5 0.866025 25.2346 3)" fill="#798D9F"/>
<defs>
<linearGradient id="paint0_linear_9454_18021" x1="4" y1="17.3633" x2="27.1426" y2="17.0366" gradientUnits="userSpaceOnUse">
<stop stop-color="#4F94FB"/>
<stop offset="1" stop-color="#D63ADA"/>
</linearGradient>
<linearGradient id="paint1_linear_9454_18021" x1="4" y1="17.3633" x2="27.1426" y2="17.0366" gradientUnits="userSpaceOnUse">
<stop stop-color="#4F94FB"/>
<stop offset="1" stop-color="#D63ADA"/>
</linearGradient>
<linearGradient id="paint2_linear_9454_18021" x1="4" y1="17.3633" x2="27.1426" y2="17.0366" gradientUnits="userSpaceOnUse">
<stop stop-color="#4F94FB"/>
<stop offset="1" stop-color="#D63ADA"/>
</linearGradient>
<linearGradient id="paint3_linear_9454_18021" x1="4" y1="17.3633" x2="27.1426" y2="17.0366" gradientUnits="userSpaceOnUse">
<stop stop-color="#4F94FB"/>
<stop offset="1" stop-color="#D63ADA"/>
</linearGradient>
</defs>
</svg>
