<svg width="33" height="32" viewBox="0 0 33 32" fill="none" xmlns="http://www.w3.org/2000/svg">
<path d="M11.6613 16.6469C11.6618 17.6217 11.8827 18.5671 12.2875 19.3279C12.6924 20.0887 13.2572 20.6196 13.889 20.8332V12.4607C13.2572 12.6743 12.6924 13.2051 12.2875 13.9659C11.8827 14.7267 11.6618 15.6722 11.6613 16.6469Z" fill="#798D9F"/>
<path d="M20.2961 16.6469C20.2942 15.6668 20.0697 14.7171 19.6597 13.9556C19.2497 13.194 18.679 12.6665 18.0423 12.4607V20.8332C18.6762 20.6192 19.2436 20.0894 19.6526 19.3297C20.0616 18.5699 20.2883 17.6247 20.2961 16.6469Z" fill="#798D9F"/>
<path fill-rule="evenodd" clip-rule="evenodd" d="M2.89399 4C1.30634 4 0.0192871 5.17979 0.0192871 6.63515V25.3649C0.0192871 26.8202 1.30634 28 2.89399 28H29.1446C30.7322 28 32.0193 26.8202 32.0193 25.3649V6.63515C32.0193 5.17979 30.7322 4 29.1446 4H2.89399ZM3.92838 5.74359C2.82381 5.74359 1.92838 6.63902 1.92838 7.74359V24.2564C1.92838 25.361 2.82381 26.2564 3.92838 26.2564H28.1102C29.2148 26.2564 30.1102 25.361 30.1102 24.2564V7.74359C30.1102 6.63902 29.2148 5.74359 28.1102 5.74359H17V26.2564H15V5.74359H3.92838Z" fill="#798D9F"/>
<path d="M6.01929 11C6.01929 10.4477 6.467 10 7.01929 10C7.57157 10 8.01929 10.4477 8.01929 11V21C8.01929 21.5523 7.57157 22 7.01929 22C6.467 22 6.01929 21.5523 6.01929 21V11Z" fill="#798D9F"/>
<path d="M24.0193 11C24.0193 10.4477 24.467 10 25.0193 10C25.5716 10 26.0193 10.4477 26.0193 11V21C26.0193 21.5523 25.5716 22 25.0193 22C24.467 22 24.0193 21.5523 24.0193 21V11Z" fill="#798D9F"/>
</svg>
