<svg width="24" height="28" viewBox="0 0 24 28" fill="none" xmlns="http://www.w3.org/2000/svg">
<path d="M4.94584 1.38442C5.4584 0.871859 6.28943 0.871859 6.80199 1.38442L18.3628 12.9452C18.8753 13.4578 18.8753 14.2888 18.3628 14.8014C17.8502 15.3139 17.0192 15.3139 16.5066 14.8014L4.94584 3.24058C4.43327 2.72801 4.43328 1.89698 4.94584 1.38442Z" fill="#3BC116"/>
<path d="M4.94584 26.3712C5.4584 26.8838 6.28943 26.8838 6.80199 26.3712L18.3656 14.8076C18.8781 14.2951 18.8781 13.4641 18.3656 12.9515C17.853 12.4389 17.022 12.4389 16.5094 12.9515L4.94584 24.5151C4.43327 25.0276 4.43327 25.8587 4.94584 26.3712Z" fill="#3BC116"/>
</svg>
