<svg width="40" height="40" viewBox="0 0 40 40" fill="none" xmlns="http://www.w3.org/2000/svg">
<path d="M7.38442 26.8042C6.87186 26.2916 6.87186 25.4606 7.38442 24.948L18.9452 13.3872C19.4578 12.8747 20.2888 12.8747 20.8014 13.3872C21.3139 13.8998 21.3139 14.7308 20.8014 15.2434L9.24058 26.8042C8.72801 27.3167 7.89699 27.3167 7.38442 26.8042Z" fill="#798D9F"/>
<path d="M32.3712 26.8042C32.8838 26.2916 32.8838 25.4606 32.3712 24.948L20.8076 13.3844C20.2951 12.8719 19.4641 12.8719 18.9515 13.3844C18.4389 13.897 18.4389 14.728 18.9515 15.2406L30.5151 26.8042C31.0276 27.3167 31.8587 27.3167 32.3712 26.8042Z" fill="#798D9F"/>
</svg>
