<svg width="48" height="48" viewBox="0 0 48 48" fill="none" xmlns="http://www.w3.org/2000/svg">
<path d="M38.1871 47.9994H9.81311C8.19048 47.9978 6.63475 47.3525 5.48738 46.2051C4.34 45.0578 3.6947 43.502 3.69312 41.8794V13.5054C3.6947 11.8828 4.34 10.327 5.48738 9.17966C6.63475 8.03229 8.19048 7.38699 9.81311 7.3854H15.1801V11.0874H9.81311C9.17206 11.0882 8.5575 11.3432 8.10421 11.7965C7.65092 12.2498 7.39591 12.8644 7.39511 13.5054V41.8854C7.39591 42.5264 7.65092 43.141 8.10421 43.5943C8.5575 44.0476 9.17206 44.3026 9.81311 44.3034H38.1871C38.8282 44.3026 39.4427 44.0476 39.896 43.5943C40.3493 43.141 40.6043 42.5264 40.6051 41.8854V13.5054C40.6043 12.8644 40.3493 12.2498 39.896 11.7965C39.4427 11.3432 38.8282 11.0882 38.1871 11.0874H32.9821V7.3854H38.1871C39.8098 7.38699 41.3655 8.03229 42.5129 9.17966C43.6602 10.327 44.3055 11.8828 44.3071 13.5054V41.8854C44.3039 43.507 43.6579 45.0612 42.5107 46.2073C41.3635 47.3533 39.8087 47.9978 38.1871 47.9994ZM34.3681 15.0744H13.6291V2.8584H17.7721C18.5438 1.96307 19.4995 1.24468 20.574 0.752237C21.6485 0.259796 22.8166 0.00488281 23.9986 0.00488281C25.1806 0.00488281 26.3487 0.259796 27.4232 0.752237C28.4978 1.24468 29.4534 1.96307 30.2251 2.8584H34.3681V15.0744ZM17.3311 11.3724H30.6661V6.5544H27.2611L27.1111 4.8654C27.0841 4.5654 25.9741 3.6984 24.0001 3.6984C22.0261 3.6984 20.9161 4.5654 20.8891 4.8624L20.7421 6.5514H17.3341L17.3311 11.3724ZM33.7321 23.7294H14.2681C13.7772 23.7294 13.3064 23.5344 12.9593 23.1873C12.6121 22.8401 12.4171 22.3693 12.4171 21.8784C12.4171 21.3875 12.6121 20.9167 12.9593 20.5695C13.3064 20.2224 13.7772 20.0274 14.2681 20.0274H33.7291C34.22 20.0274 34.6908 20.2224 35.038 20.5695C35.3851 20.9167 35.5801 21.3875 35.5801 21.8784C35.5801 22.3693 35.3851 22.8401 35.038 23.1873C34.6908 23.5344 34.22 23.7294 33.7291 23.7294H33.7321ZM33.7321 31.1814H14.2681C13.7772 31.1814 13.3064 30.9864 12.9593 30.6393C12.6121 30.2921 12.4171 29.8213 12.4171 29.3304C12.4171 28.8395 12.6121 28.3687 12.9593 28.0215C13.3064 27.6744 13.7772 27.4794 14.2681 27.4794H33.7291C34.22 27.4794 34.6908 27.6744 35.038 28.0215C35.3851 28.3687 35.5801 28.8395 35.5801 29.3304C35.5801 29.8213 35.3851 30.2921 35.038 30.6393C34.6908 30.9864 34.22 31.1814 33.7291 31.1814H33.7321ZM22.7321 38.6334H14.2681C13.7772 38.6334 13.3064 38.4384 12.9593 38.0913C12.6121 37.7441 12.4171 37.2733 12.4171 36.7824C12.4171 36.2915 12.6121 35.8207 12.9593 35.4735C13.3064 35.1264 13.7772 34.9314 14.2681 34.9314H22.7291C23.22 34.9314 23.6908 35.1264 24.038 35.4735C24.3851 35.8207 24.5801 36.2915 24.5801 36.7824C24.5801 37.2733 24.3851 37.7441 24.038 38.0913C23.6908 38.4384 23.22 38.6334 22.7291 38.6334H22.7321Z" fill="#FDFDFD"/>
<path d="M38.5718 34.0116L33.0678 41.4828C32.4562 42.1724 31.5389 42.1724 30.9273 41.4828V41.3678L27.3599 37.5748C26.8503 36.8851 26.8503 35.7357 27.5638 35.161C28.1753 34.5863 28.9908 34.5863 29.5004 35.161L31.8447 37.6897L36.3294 31.5979C36.839 30.9082 37.8583 30.7933 38.4698 31.368C39.0814 31.9427 39.1833 33.0921 38.6737 33.7817C38.6737 33.8967 38.6737 33.8967 38.5718 34.0116Z" fill="#FDFDFD"/>
</svg>
