<svg width="22" height="22" viewBox="0 0 22 22" fill="none" xmlns="http://www.w3.org/2000/svg">
<path d="M22 4.01876V4.03415L20.7894 8.90594C20.7256 9.17693 20.5316 9.36478 20.381 9.46949L20.3694 9.47872L20.3578 9.4818C20.326 9.49412 20.297 9.50336 20.268 9.51568C20.1551 9.55879 20.0479 9.59882 19.906 9.59882C19.8626 9.59882 19.8162 9.58343 19.7699 9.56495C19.7467 9.55571 19.7091 9.54339 19.6975 9.54339H19.6801L19.6685 9.54031L15.0982 8.25616C14.6232 8.1299 14.3307 7.6187 14.4494 7.11982C14.5682 6.6117 15.049 6.30375 15.5182 6.42693H15.5211L18.4695 7.31383C17.1198 4.06495 13.9455 1.8939 10.5018 1.8939C9.33465 1.8939 8.19642 2.1341 7.1248 2.61142C6.08794 3.07027 5.15245 3.72928 4.35018 4.56383C2.69352 6.28835 1.7812 8.57643 1.7812 11C1.7812 13.4297 2.68773 15.7178 4.32991 17.4362C5.97788 19.1576 8.16746 20.1061 10.5018 20.1061C14.1917 20.1061 17.5079 17.6887 18.7591 14.0887C18.9387 13.5806 19.4223 13.3373 19.8886 13.5221C20.1174 13.6145 20.2999 13.7839 20.3984 14.0025C20.4997 14.2242 20.5084 14.4798 20.4215 14.7231C18.93 19.0745 14.9447 22 10.5018 22C9.08847 22 7.71564 21.7105 6.42391 21.1377C5.17272 20.5834 4.04897 19.792 3.08452 18.785C1.09768 16.7063 0 13.944 0 11C0 8.05907 1.09479 5.29367 3.08452 3.21501C4.04897 2.20801 5.17272 1.41657 6.42391 0.862262C7.71564 0.289474 9.08847 0 10.5018 0C14.2873 0 17.7917 2.15258 19.712 5.6355L20.2246 3.59994C20.2825 3.35666 20.4244 3.15034 20.6243 3.021C20.827 2.88858 21.0645 2.84854 21.2933 2.91013C21.7828 3.03947 22 3.55991 22 4.01876Z" fill="currentColor"/>
</svg>
