<svg width="26" height="26" viewBox="0 0 26 26" fill="none" xmlns="http://www.w3.org/2000/svg">
<g clip-path="url(#clip0_5869_12449)">
<path d="M0.39745 4.04458L0.397418 4.04453L0.396583 4.04306C0.386674 4.02568 0.37124 3.9986 0.358041 3.96804L0.357984 3.96791C0.344399 3.93641 0.335135 3.90658 0.328671 3.8854L0.52793 3.82458L0.328898 3.88614C0.328554 3.88503 0.32819 3.88386 0.327807 3.88262C0.322534 3.86564 0.31384 3.83764 0.307924 3.80708M0.39745 4.04458L19.9233 1.97205H20.0198C20.9902 1.97205 21.7649 2.58762 21.9243 3.36061L15.5047 9.66147L15.5047 9.66154C15.3242 9.8388 15.2448 10.0701 15.264 10.297C15.2638 10.2986 15.2635 10.3004 15.2632 10.3024C15.2614 10.3154 15.2587 10.337 15.2587 10.362V24.842C15.2587 25.3366 15.6887 25.7083 16.182 25.7083C16.6753 25.7083 17.1053 25.3366 17.1053 24.842V10.563L23.5569 4.23076L23.411 4.08208L23.5569 4.23075C23.5733 4.2147 23.5851 4.19928 23.5903 4.19245L23.5953 4.18595C23.6108 4.16869 23.6323 4.14446 23.6525 4.11629L23.6527 4.11599C23.6722 4.08871 23.6872 4.06203 23.6971 4.04442L23.6975 4.04365L23.6977 4.0433C23.7077 4.02583 23.7229 3.99924 23.736 3.9693L23.7366 3.96787C23.7502 3.93637 23.7595 3.90647 23.7658 3.88573L23.766 3.88502L23.7675 3.88024C23.7725 3.86388 23.7807 3.83683 23.7865 3.80802L23.7866 3.80745C23.7935 3.77212 23.796 3.73853 23.7975 3.71694L23.7985 3.7107C23.7997 3.70289 23.8028 3.683 23.8028 3.65925C23.8028 1.776 22.0841 0.291667 20.0198 0.291667H19.9233H19.8114H4.28316H4.19407H4.07483C2.01044 0.291667 0.291667 1.77599 0.291667 3.65925C0.291667 3.68322 0.294857 3.70334 0.296123 3.71133L0.296175 3.71166L0.297048 3.71713C0.298627 3.74052 0.3012 3.77267 0.307924 3.80708M0.39745 4.04458L0.398555 4.04653C0.408244 4.06356 0.422776 4.0891 0.441045 4.11499L0.441041 4.115L0.441825 4.11609C0.462237 4.14463 0.484377 4.16942 0.49906 4.18586L0.499463 4.18627L0.499592 4.18641L0.499721 4.1866L0.504578 4.19289L0.504656 4.19299C0.509788 4.19964 0.521549 4.21487 0.537677 4.23071L0.537687 4.23071L6.98927 10.5629V19.1816C6.98927 19.6691 7.42756 20.0218 7.91257 20.0218C8.39744 20.0218 8.83587 19.6691 8.83587 19.1816V10.3357C8.83587 10.3142 8.83346 10.2957 8.83193 10.2854C8.84747 10.0618 8.76709 9.83541 8.58984 9.66146L2.17026 3.36061C2.32964 2.58764 3.1044 1.97205 4.07483 1.97205H4.19407H4.28316L0.39745 4.04458ZM0.307924 3.80708C0.307946 3.80719 0.307967 3.8073 0.307989 3.80741L0.512427 3.76731L0.30786 3.80675C0.307882 3.80686 0.307903 3.80697 0.307924 3.80708ZM23.5822 3.76736C23.5866 3.74458 23.5883 3.72175 23.59 3.69873L23.5822 3.76736ZM23.5822 3.76736C23.5786 3.7854 23.5733 3.80267 23.568 3.82005L23.5667 3.82463L23.5822 3.76736ZM7.19761 10.4754L0.683618 4.08203C0.677527 4.07605 0.672544 4.06957 0.667554 4.06307C0.663845 4.05824 0.660132 4.05341 0.655957 4.04878C0.640308 4.03125 0.624829 4.01384 0.611279 3.9949C0.598999 3.97749 0.588794 3.95959 0.578467 3.94146L7.19761 10.4754ZM23.4832 3.99495C23.4696 4.01389 23.4542 4.03127 23.4385 4.04883L23.5453 3.88547C23.5368 3.90486 23.5264 3.92312 23.516 3.9415C23.5058 3.95964 23.4956 3.97754 23.4832 3.99495ZM0.29735 3.71902C0.297368 3.71915 0.297366 3.71914 0.297349 3.71902L0.29735 3.71902ZM18.142 11.3046C18.142 11.7921 18.5803 12.1448 19.0653 12.1448H24.785C25.2701 12.1448 25.7083 11.7921 25.7083 11.3046C25.7083 10.8171 25.27 10.4644 24.785 10.4644H19.0653C18.5803 10.4644 18.142 10.8171 18.142 11.3046ZM19.0652 18.6317H24.7849C25.2699 18.6317 25.7082 18.2791 25.7082 17.7916C25.7082 17.3041 25.2699 16.9514 24.7849 16.9514H19.0652C18.5802 16.9514 18.1419 17.3041 18.1419 17.7916C18.1419 18.2791 18.5802 18.6317 19.0652 18.6317ZM24.785 24.028H19.0653C18.5803 24.028 18.142 24.3806 18.142 24.8681C18.142 25.3556 18.5803 25.7083 19.0653 25.7083H24.785C25.2701 25.7083 25.7083 25.3556 25.7083 24.8681C25.7083 24.3806 25.2701 24.028 24.785 24.028Z" fill="currentColor" stroke="#798D9F" stroke-width="0.416667"/>
</g>
<defs>
<clipPath id="clip0_5869_12449">
<rect width="26" height="26" fill="currentColor"/>
</clipPath>
</defs>
</svg>
