<svg width="20" height="20" viewBox="0 0 20 20" fill="none" xmlns="http://www.w3.org/2000/svg">
<rect x="1.81836" y="1.81836" width="1.81818" height="16.3636" rx="0.909091" fill="#798D9F"/>
<rect x="19.0911" y="16.3638" width="1.81818" height="17.2727" rx="0.909091" transform="rotate(90 19.0911 16.3638)" fill="#798D9F"/>
<rect width="1.81818" height="15.1274" rx="0.909091" transform="matrix(0.618459 0.785817 -0.86057 0.509333 14.5691 7.82861)" fill="#798D9F"/>
<path d="M4.58442 2.31787L10.7069 6.33243L4.58442 8.52881L4.58442 2.31787Z" fill="#FF0000"/>
<path fill-rule="evenodd" clip-rule="evenodd" d="M7.53191 16.5407C7.78749 16.1427 7.79124 15.6402 7.52058 15.2297C7.24992 14.8191 6.75111 14.5707 6.22969 14.5656L5.77687 13.8788C6.70224 13.734 7.68522 14.1145 8.19548 14.8885C8.70574 15.6624 8.59063 16.5981 7.98472 17.2275L7.53191 16.5407Z" fill="#798D9F"/>
</svg>
