<svg width="32" height="32" viewBox="0 0 32 32" fill="none" xmlns="http://www.w3.org/2000/svg">
<path fill-rule="evenodd" clip-rule="evenodd" d="M16 32C24.8366 32 32 24.8366 32 16C32 7.16344 24.8366 0 16 0C7.16344 0 0 7.16344 0 16C0 24.8366 7.16344 32 16 32ZM9.41967 15.4176L12.0273 18.027L21.5809 8.47348C22.3946 7.65975 23.714 7.65991 24.5275 8.47382C25.3408 9.2875 25.3406 10.6064 24.5271 11.4198L12.0273 23.9183L6.47305 18.363C5.65954 17.5493 5.65976 16.2302 6.47354 15.4168C7.2873 14.6034 8.60638 14.6038 9.41967 15.4176Z" fill="#3BC116"/>
</svg>
