<svg width="30" height="30" viewBox="0 0 30 30" fill="none" xmlns="http://www.w3.org/2000/svg">
<path d="M28.9773 5.45455H24.8864C23.5684 5.45455 22.5 4.38613 22.5 3.06818C22.5 1.36364 21.1364 0 19.4318 0H10.5682C8.86364 0 7.5 1.36364 7.5 3.06818C7.5 4.38613 6.43159 5.45455 5.11364 5.45455H1.02273C0.477273 5.45455 0 5.93182 0 6.47727C0 7.02273 0.477273 7.5 1.02273 7.5H28.9773C29.5227 7.5 30 7.02273 30 6.47727C30 5.93182 29.5227 5.45455 28.9773 5.45455ZM11.9318 5.45455C10.6139 5.45455 9.54545 4.38613 9.54545 3.06818C9.54545 2.52273 10.0227 2.04545 10.5682 2.04545H19.4318C19.9773 2.04545 20.4545 2.52273 20.4545 3.06818C20.4545 4.38613 19.3861 5.45455 18.0682 5.45455H11.9318ZM25.5 9.54545C24.9545 9.54545 24.4773 10.0227 24.4773 10.5682V26.0455C24.4773 27.0682 23.6591 27.9545 22.5682 27.9545H7.36364C6.34091 27.9545 5.45455 27.1364 5.45455 26.0455V10.5682C5.45455 10.0227 4.97727 9.54545 4.43182 9.54545C3.88636 9.54545 3.40909 10.0227 3.40909 10.5682V26.0455C3.40909 28.2273 5.18182 30 7.36364 30H22.6364C24.8182 30 26.5909 28.2273 26.5909 26.0455V10.5682C26.5227 10.0227 26.0455 9.54545 25.5 9.54545Z" fill="#FDFDFD"/>
<path d="M12.1364 24.8864V10.5682C12.1364 10.0227 11.6591 9.54545 11.1136 9.54545C10.5682 9.54545 10.0909 10.0227 10.0909 10.5682V24.8864C10.0909 25.4318 10.5682 25.9091 11.1136 25.9091C11.6591 25.9091 12.1364 25.4318 12.1364 24.8864ZM19.9091 24.8864V10.5682C19.9091 10.0227 19.4318 9.54545 18.8864 9.54545C18.3409 9.54545 17.8636 10.0227 17.8636 10.5682V24.8864C17.8636 25.4318 18.3409 25.9091 18.8864 25.9091C19.4318 25.9091 19.9091 25.4318 19.9091 24.8864Z" fill="#FDFDFD"/>
</svg>
