<svg width="44" height="44" viewBox="0 0 44 44" fill="none" xmlns="http://www.w3.org/2000/svg">
<path d="M21.9732 3.14728C22.6372 13.5286 13.6338 22.5027 3.16957 21.4141C2.93054 12.3073 11.2966 2.90833 21.9732 3.14728Z" fill="#7D8086"/>
<path d="M3.14282 23.9101C9.11856 24.3084 14.2975 22.5295 18.547 18.4407C22.8229 14.3253 24.7086 9.17449 24.4961 3.28025C33.1809 4.34227 40.2455 11.7234 40.8298 20.3523C34.9338 19.8744 29.7548 21.6002 25.4788 25.6359C21.2028 29.6716 19.2906 34.7428 19.3437 40.5839C12.6243 40.0529 4.23173 34.0259 3.14282 23.9101Z" fill="#7D8086"/>
<path d="M21.6545 40.8489C20.9905 30.149 30.7376 21.3342 40.8565 22.6883C40.9362 31.5828 32.9154 41.1676 21.6545 40.8489Z" fill="#7D8086"/>
</svg>
