<svg width="40" height="40" viewBox="0 0 40 40" fill="none" xmlns="http://www.w3.org/2000/svg">
<path d="M19.9745 2.00444C20.6083 11.9139 12.0141 20.4801 2.02553 19.441C1.79737 10.7481 9.78313 1.77635 19.9745 2.00444Z" fill="#3BC116"/>
<path d="M2 21.8235C7.70411 22.2037 12.6477 20.5056 16.7039 16.6027C20.7856 12.6744 22.5855 7.75769 22.3827 2.13136C30.6727 3.14511 37.4162 10.1907 37.9739 18.4274C32.3459 17.9712 27.4023 19.6186 23.3207 23.4709C19.2391 27.3231 17.4138 32.1638 17.4645 37.7394C11.0505 37.2325 3.03942 31.4795 2 21.8235Z" fill="#3BC116"/>
<path d="M19.6702 37.9924C19.0364 27.7788 28.3405 19.3647 37.9994 20.6572C38.0755 29.1474 30.4193 38.2965 19.6702 37.9924Z" fill="#3BC116"/>
</svg>
