<svg width="44" height="44" viewBox="0 0 44 44" fill="none" xmlns="http://www.w3.org/2000/svg">
<path d="M24.0879 3.43276C23.5744 3.32125 23.0831 3.23203 22.5695 3.14282H20.6715C20.6045 3.18743 20.5152 3.23203 20.4482 3.23203C16.362 3.58888 12.767 5.08318 9.70783 7.80413C8.68068 8.71855 7.74285 9.74448 6.93899 10.9934C8.16711 12.1532 9.39522 13.3129 10.668 14.495C13.6378 8.89697 18.1037 5.2616 24.0879 3.43276Z" fill="#FF284B"/>
<path d="M21.1179 23.4608C22.1228 23.8622 22.3237 24.4421 22.3461 25.4011C22.3907 28.0998 22.1897 30.7984 21.7432 33.564C21.4819 33.564 21.2232 33.569 20.9653 33.5739C20.4517 33.5838 19.9411 33.5937 19.4209 33.564C16.0268 33.3856 12.8114 32.4934 9.88628 30.7092C7.29608 29.148 5.17479 27.0738 3.58941 24.4867C3.44641 24.2439 3.36752 23.9645 3.28822 23.6837C3.24369 23.526 3.19903 23.3678 3.14282 23.2154V20.8736C3.17629 20.653 3.20776 20.4343 3.23902 20.2171C3.31203 19.7097 3.38395 19.21 3.47776 18.7102C3.85736 16.5246 4.66122 14.5173 5.84467 12.6215C5.867 12.5992 5.91167 12.5546 5.97865 12.51C6.34705 12.878 6.70964 13.2498 7.07156 13.621C7.938 14.5095 8.80075 15.3943 9.72998 16.2123C10.7188 17.1012 11.8303 17.8852 12.9247 18.6571C13.066 18.7567 13.2069 18.8561 13.3473 18.9556C15.8036 20.7175 18.3268 22.3233 21.1179 23.4608Z" fill="#FF284B"/>
<path d="M31.9703 16.6138C32.2606 16.48 32.3499 16.5469 32.5062 16.7699C34.1363 19.1563 35.2081 21.7435 35.61 24.6205C36.2352 28.6797 35.6993 32.5827 33.8013 36.2627C33.578 36.7087 33.1314 37.1325 32.7072 37.4447C30.2733 39.2066 27.5491 40.2549 24.5793 40.634C24.3115 40.6675 24.0493 40.7065 23.787 40.7455C23.5248 40.7845 23.2617 40.8236 22.9939 40.8571H21.9891C22.1211 40.3853 22.2595 39.9157 22.3977 39.4469C22.7038 38.4087 23.0088 37.3743 23.2395 36.3296C23.4852 35.1921 23.5745 34.0101 23.6415 32.8503C23.7978 30.0178 23.9094 27.1854 23.9764 24.3529C23.9938 23.5897 23.9166 22.8264 23.8394 22.0632C23.8173 21.8451 23.7953 21.627 23.7754 21.4089C23.7308 20.9629 23.7978 20.6952 24.2444 20.4276C26.7229 18.9333 29.3131 17.7289 31.9703 16.6138Z" fill="#FF284B"/>
<path d="M4.52744 28.925C4.56776 29.0357 4.59443 29.1192 4.61566 29.1856C4.64147 29.2664 4.65925 29.3221 4.68374 29.371C7.11764 34.8352 11.2262 38.4483 16.9425 40.1656C17.6196 40.361 18.3067 40.4956 18.9972 40.6308C19.3314 40.6963 19.6667 40.762 20.0017 40.8347H20.225C20.3609 40.2774 20.4968 39.7179 20.6334 39.1553C20.9233 37.9619 21.2166 36.7542 21.5201 35.5266C14.9329 35.7273 9.30592 33.564 4.52744 28.925Z" fill="#FF284B"/>
<path d="M39.2717 14.6066C39.9639 16.1009 40.4329 17.6398 40.6561 19.2679C40.6759 19.3996 40.6976 19.5332 40.7196 19.6682C40.772 19.9905 40.8256 20.3206 40.8571 20.6507V22.881C40.7901 23.4386 40.7231 23.9961 40.6338 24.5537C40.1872 27.6984 38.9814 30.5086 36.9718 33.0065C38.4902 26.8509 37.4854 21.1414 34.069 15.7218C34.2233 15.6739 34.3764 15.6261 34.5285 15.5785C35.0145 15.4266 35.4909 15.2778 35.967 15.1419C36.2382 15.0606 36.5094 14.9814 36.78 14.9024C37.4005 14.7212 38.0178 14.5409 38.6242 14.339C38.9591 14.2275 39.1154 14.2944 39.2717 14.6066Z" fill="#FF284B"/>
<path d="M12.2309 15.677C13.1017 13.8035 14.2628 12.1085 15.6919 10.6142C18.5947 7.55871 22.1004 5.61836 26.1644 4.74855C26.4212 4.69279 26.6891 4.65376 26.9571 4.61473C27.225 4.5757 27.493 4.53667 27.7498 4.48091C28.4438 4.33386 29.0191 4.60235 29.606 4.87634C29.6422 4.89323 29.6784 4.91014 29.7147 4.92697C33.1981 6.51048 35.9893 8.87459 37.9096 12.1977C37.9356 12.2367 37.9541 12.2832 37.9737 12.3329C37.9879 12.3686 38.0026 12.4058 38.0212 12.4431C31.5457 14.1381 25.7401 17.2159 20.2024 20.9405C18.2821 20.026 13.2357 16.7029 12.2309 15.677Z" fill="#FF284B"/>
</svg>
