<svg width="40" height="40" viewBox="0 0 40 40" fill="none" xmlns="http://www.w3.org/2000/svg">
<path d="M21.9931 2.27694C21.5028 2.1705 21.0339 2.08534 20.5437 2.00018H18.732C18.668 2.04276 18.5828 2.08534 18.5188 2.08534C14.6183 2.42597 11.1867 3.85234 8.2666 6.44961C7.28614 7.32247 6.39094 8.30177 5.62362 9.49396C6.79591 10.601 7.9682 11.708 9.18312 12.8364C12.0179 7.49278 16.2808 4.02265 21.9931 2.27694Z" fill="#3BC116"/>
<path d="M19.1581 21.3946C20.1172 21.7778 20.309 22.3313 20.3304 23.2467C20.373 25.8227 20.1812 28.3987 19.7549 31.0386C19.5055 31.0386 19.2585 31.0433 19.0123 31.0481C18.5221 31.0575 18.0347 31.0669 17.5382 31.0386C14.2984 30.8682 11.2291 30.0167 8.43694 28.3135C5.96447 26.8233 3.93961 24.8434 2.42629 22.3739C2.28979 22.1421 2.21448 21.8754 2.13878 21.6073C2.09628 21.4568 2.05365 21.3058 2 21.1604V18.925C2.03195 18.7144 2.06198 18.5057 2.09182 18.2984C2.16152 17.814 2.23017 17.337 2.31972 16.86C2.68206 14.7737 3.44938 12.8576 4.57904 11.0481C4.60035 11.0268 4.64299 10.9842 4.70692 10.9416C5.05858 11.2929 5.40469 11.6478 5.75016 12.0021C6.57722 12.8502 7.40074 13.6948 8.28774 14.4756C9.23163 15.3241 10.2926 16.0724 11.3373 16.8093C11.4721 16.9044 11.6067 16.9993 11.7407 17.0942C14.0852 18.776 16.4938 20.3088 19.1581 21.3946Z" fill="#3BC116"/>
<path d="M29.5171 14.8588C29.7942 14.7311 29.8795 14.795 30.0287 15.0079C31.5846 17.2858 32.6077 19.7553 32.9914 22.5016C33.5882 26.3763 33.0766 30.1019 31.2649 33.6146C31.0518 34.0404 30.6255 34.4449 30.2205 34.7429C27.8972 36.4247 25.2969 37.4253 22.4621 37.7872C22.2065 37.8192 21.9562 37.8564 21.7059 37.8936C21.4555 37.9309 21.2044 37.9682 20.9488 38.0001H19.9896C20.1156 37.5498 20.2478 37.1015 20.3797 36.654C20.6719 35.6631 20.963 34.6757 21.1832 33.6784C21.4177 32.5927 21.5029 31.4644 21.5669 30.3573C21.7161 27.6536 21.8227 24.9499 21.8866 22.2462C21.9032 21.5176 21.8295 20.7891 21.7558 20.0605C21.7348 19.8523 21.7137 19.6442 21.6948 19.436C21.6521 19.0102 21.7161 18.7548 22.1424 18.4993C24.5083 17.0729 26.9807 15.9233 29.5171 14.8588Z" fill="#3BC116"/>
<path d="M3.32168 26.6104C3.36017 26.7161 3.38562 26.7958 3.40589 26.8592C3.43052 26.9363 3.44749 26.9895 3.47088 27.0362C5.79415 32.252 9.71599 35.7009 15.1725 37.3401C15.8187 37.5266 16.4747 37.6551 17.1337 37.7842C17.4527 37.8467 17.7728 37.9094 18.0925 37.9788H18.3057C18.4354 37.4469 18.5651 36.9127 18.6956 36.3757C18.9723 35.2365 19.2522 34.0838 19.5419 32.912C13.2542 33.1036 7.88295 31.0385 3.32168 26.6104Z" fill="#3BC116"/>
<path d="M36.4867 12.9429C37.1474 14.3693 37.595 15.8382 37.8082 17.3923C37.827 17.518 37.8478 17.6455 37.8687 17.7744C37.9187 18.082 37.97 18.3971 38 18.7123V20.8412C37.9361 21.3734 37.8721 21.9056 37.7869 22.4379C37.3606 25.4396 36.2096 28.122 34.2913 30.5064C35.7407 24.6306 34.7815 19.1806 31.5204 14.0074C31.6678 13.9617 31.8139 13.916 31.9591 13.8706C32.423 13.7256 32.8777 13.5835 33.3322 13.4538C33.591 13.3763 33.8499 13.3007 34.1082 13.2252C34.7005 13.0522 35.2898 12.8801 35.8686 12.6874C36.1883 12.581 36.3375 12.6448 36.4867 12.9429Z" fill="#3BC116"/>
<path d="M10.675 13.9646C11.5062 12.1763 12.6146 10.5583 13.9787 9.13196C16.7495 6.21535 20.0959 4.3632 23.9751 3.53292C24.2202 3.4797 24.476 3.44244 24.7318 3.40519C24.9875 3.36793 25.2433 3.33067 25.4884 3.27745C26.151 3.13708 26.7 3.39337 27.2603 3.6549C27.2949 3.67102 27.3294 3.68717 27.3641 3.70323C30.6891 5.21476 33.3534 7.47141 35.1865 10.6435C35.2113 10.6807 35.2289 10.7251 35.2477 10.7726C35.2612 10.8066 35.2752 10.8421 35.293 10.8777C29.1119 12.4956 23.5701 15.4335 18.2842 18.9888C16.4511 18.116 11.6341 14.9439 10.675 13.9646Z" fill="#3BC116"/>
</svg>
