<svg viewBox="0 0 32 32" fill="none" xmlns="http://www.w3.org/2000/svg">
<path fill-rule="evenodd" clip-rule="evenodd" d="M7.16313 0V12.6153C7.16313 17.6501 11.1256 21.7461 15.9962 21.7461C20.8669 21.7461 24.8293 17.6501 24.8293 12.6153V0H7.16313ZM20.8237 9.81836L19.3089 11.3446C19.1167 11.5383 19.0289 11.8175 19.0744 12.091L19.432 14.2461C19.5463 14.935 18.8468 15.4604 18.2483 15.1351L16.376 14.1176C16.1383 13.9884 15.8544 13.9884 15.6167 14.1176L13.7443 15.1351C13.1458 15.4603 12.4463 14.935 12.5606 14.2461L12.9183 12.091C12.9636 11.8175 12.8759 11.5383 12.6837 11.3446L11.169 9.81836C10.6847 9.33043 10.9519 8.4804 11.6211 8.37996L13.7144 8.06552C13.9802 8.0256 14.2098 7.85307 14.3286 7.60414L15.2648 5.64331C15.564 5.0165 16.4287 5.0165 16.7279 5.64331L17.6641 7.60414C17.7828 7.85307 18.0126 8.02554 18.2783 8.06552L20.3716 8.37996C21.0407 8.48053 21.3079 9.33056 20.8237 9.81836Z" fill="url(#paint0_linear_13185_6268)"/>
<path d="M4.2565 11.8309L5.64939 12.7365C5.66095 13.8091 5.82529 14.8444 6.12204 15.8197L3.04633 13.8201C1.47454 12.7982 0.397086 11.1266 0.0902147 9.23361C-0.503407 5.57219 1.89533 2.09408 5.43738 1.48058L5.458 1.47697C5.52186 1.46586 5.58522 1.46185 5.64789 1.46185V3.83117C3.43306 4.30837 1.95506 6.51944 2.33211 8.84521C2.53194 10.0774 3.23341 11.1657 4.2565 11.8309Z" fill="url(#paint1_linear_13185_6268)"/>
<path d="M26.542 1.4769L26.5635 1.48065C30.1046 2.09421 32.5034 5.57219 31.9098 9.23367C31.6028 11.1266 30.5254 12.7983 28.9537 13.8201L25.878 15.8198C26.1747 14.8444 26.3391 13.8091 26.3506 12.7366L27.7435 11.831C28.7667 11.1657 29.468 10.0775 29.6679 8.84521C30.0449 6.51918 28.5665 4.30779 26.3521 3.83117V1.46185C26.4147 1.46185 26.4781 1.46586 26.542 1.4769Z" fill="url(#paint2_linear_13185_6268)"/>
<path d="M18.7237 26.5974C18.8837 26.5974 19.0417 26.6062 19.1975 26.6228C21.4859 26.8678 23.2706 28.8672 23.2706 31.2976V32H8.70501V31.2976C8.70501 28.8672 10.4897 26.8678 12.7782 26.6228C12.9339 26.6062 13.092 26.5974 13.252 26.5974H14.2937V23.3112H17.682V26.5974H18.7237Z" fill="url(#paint3_linear_13185_6268)"/>
<defs>
<linearGradient id="paint0_linear_13185_6268" x1="16" y1="32" x2="16" y2="0" gradientUnits="userSpaceOnUse">
<stop stop-color="#D40505"/>
<stop offset="1" stop-color="#FF8E26"/>
</linearGradient>
<linearGradient id="paint1_linear_13185_6268" x1="16" y1="32" x2="16" y2="0" gradientUnits="userSpaceOnUse">
<stop stop-color="#D40505"/>
<stop offset="1" stop-color="#FF8E26"/>
</linearGradient>
<linearGradient id="paint2_linear_13185_6268" x1="16" y1="32" x2="16" y2="0" gradientUnits="userSpaceOnUse">
<stop stop-color="#D40505"/>
<stop offset="1" stop-color="#FF8E26"/>
</linearGradient>
<linearGradient id="paint3_linear_13185_6268" x1="16" y1="32" x2="16" y2="0" gradientUnits="userSpaceOnUse">
<stop stop-color="#D40505"/>
<stop offset="1" stop-color="#FF8E26"/>
</linearGradient>
</defs>
</svg>
