<svg  viewBox="0 0 32 32" fill="none" xmlns="http://www.w3.org/2000/svg">
<path fill-rule="evenodd" clip-rule="evenodd" d="M0 16C0 7.16344 7.16344 0 16 0C24.8366 0 32 7.16344 32 16C32 24.8366 24.8366 32 16 32H2C0.895431 32 0 31.1046 0 30V16ZM8 13C8 11.8954 8.89543 11 10 11H22C23.1046 11 24 11.8954 24 13C24 14.1046 23.1046 15 22 15H10C8.89543 15 8 14.1046 8 13ZM10 19C8.89543 19 8 19.8954 8 21C8 22.1046 8.89543 23 10 23H18C19.1046 23 20 22.1046 20 21C20 19.8954 19.1046 19 18 19H10Z" fill="url(#paint0_linear_12121_6660)"/>
<defs>
<linearGradient id="paint0_linear_12121_6660" x1="16" y1="0" x2="16" y2="32" gradientUnits="userSpaceOnUse">
<stop stop-color="#D2D5DE"/>
<stop offset="1" stop-color="#A1A4A9"/>
</linearGradient>
</defs>
</svg>
